<svg width="16" height="16" viewBox="0 0 16 16" fill="none" xmlns="http://www.w3.org/2000/svg">
<path d="M4 0.5H12C13.933 0.5 15.5 2.067 15.5 4V12C15.5 13.933 13.933 15.5 12 15.5H4C2.067 15.5 0.5 13.933 0.5 12V4C0.5 2.067 2.067 0.5 4 0.5Z" fill="#F0F5FF"/>
<path d="M4 0.5H12C13.933 0.5 15.5 2.067 15.5 4V12C15.5 13.933 13.933 15.5 12 15.5H4C2.067 15.5 0.5 13.933 0.5 12V4C0.5 2.067 2.067 0.5 4 0.5Z" stroke="#6B7C93"/>
<path d="M11 7C11.5523 7 12 7.44772 12 8C12 8.55228 11.5523 9 11 9H5C4.44772 9 4 8.55228 4 8C4 7.44772 4.44772 7 5 7H11Z" fill="#6B7C93"/>
</svg>
