<svg width="120" height="40" viewBox="0 0 120 40" fill="none" xmlns="http://www.w3.org/2000/svg">
<path d="M97.7031 7.29688H94.2031V32.8969H97.7031V7.29688Z" fill="white"/>
<path d="M102.102 7.29688V32.9969H105.702V22.8969V7.29688H102.102Z" fill="white"/>
<path d="M119.803 12.8984H115.003L105.703 22.8984L115.003 32.9984H119.803L110.503 22.8984L119.803 12.8984Z" fill="white"/>
<path d="M80.7969 12.8969C78.2969 12.8969 75.9969 13.7969 74.2969 15.2969V7.29688H70.7969V22.8969C70.7969 28.3969 75.2969 32.8969 80.7969 32.8969C86.2969 32.8969 90.7969 28.3969 90.7969 22.8969C90.7969 17.3969 86.2969 12.8969 80.7969 12.8969ZM80.7969 29.3969C77.1969 29.3969 74.2969 26.4969 74.2969 22.8969C74.2969 19.2969 77.1969 16.3969 80.7969 16.3969C84.3969 16.3969 87.2969 19.2969 87.2969 22.8969C87.2969 26.4969 84.3969 29.3969 80.7969 29.3969Z" fill="white"/>
<path d="M57.2969 12.8984C51.7969 12.8984 47.2969 17.3984 47.2969 22.8984C47.2969 28.3984 51.7969 32.8984 57.2969 32.8984C62.7969 32.8984 64.7969 30.4984 66.3969 27.0984H62.2969C61.0969 28.4984 59.2969 29.3984 57.2969 29.3984C54.1969 29.3984 51.5969 27.1984 50.8969 24.2984H67.1969C67.1969 23.7984 67.2969 23.3984 67.2969 22.8984C67.2969 17.3984 62.7969 12.8984 57.2969 12.8984ZM50.8969 21.4984C51.4969 18.5984 54.1969 16.3984 57.2969 16.3984C60.3969 16.3984 62.9969 18.5984 63.6969 21.4984H50.8969Z" fill="white"/>
<path d="M12.2016 20.1969L1.10156 13.7969V23.3969C1.10156 25.3969 2.20156 27.1969 3.90156 28.1969L12.2016 32.9969V20.1969Z" fill="white"/>
<path d="M1.10156 0.898438V13.6984L12.2016 7.29844L1.10156 0.898438Z" fill="white"/>
<path d="M23.3031 13.6984V0.898438L12.2031 7.29844V20.1984L23.3031 13.6984Z" fill="white"/>
<path d="M12.2031 20.2031L23.3031 26.6031L34.4031 20.2031L23.3031 13.7031L12.2031 20.2031Z" fill="#7FFFAF"/>
<path d="M23.2031 26.6016L12.2031 32.9016L23.3031 39.3016L31.6031 34.5016C33.3031 33.5016 34.4031 31.7016 34.4031 29.7016V20.1016L23.3031 26.5016H23.2031V26.6016Z" fill="white"/>
</svg>
