<svg width="80" height="25" viewBox="0 0 80 25" fill="none" xmlns="http://www.w3.org/2000/svg">
<path d="M0.0166691 20.6118C0.0735028 21.2796 0.380404 22.2601 1.50003 23.1268C3.17662 24.4284 6.96742 25.6816 15.4953 24.2579C15.5635 24.2465 21.8664 23.0387 33.3752 20.0974C48.5242 16.2268 60.1893 17.392 61.4254 17.7017C61.5391 17.7188 69.6407 18.6936 72.9797 23.1695L73.3747 22.8739C69.9078 18.2246 61.8545 17.2556 61.5135 17.2158C60.0614 16.8492 48.5384 15.7153 33.2558 19.62C21.7641 22.5556 15.4726 23.7606 15.4101 23.7719C7.06404 25.1616 3.40395 23.9765 1.80125 22.7347C1.02547 22.1322 0.579322 21.3848 0.50828 20.5663C0.246845 17.5483 3.66823 14.7519 3.70233 14.7235L3.39259 14.3398C3.24198 14.4592 -0.270341 17.3266 0.0166691 20.609V20.6118Z" fill="#004098"/>
<path d="M27.9695 4.2832H30.8141L27.9894 14.4996L25.0938 14.4826L27.9695 4.2832Z" fill="#4D4D4D"/>
<path d="M34.398 4.44336L29.4961 8.86527L31.3631 14.5689H34.8612L32.5708 8.91926L37.6858 4.46041L34.398 4.44336Z" fill="#4D4D4D"/>
<path d="M38.67 4.51367L37.8516 6.64506H46.3255L47.0359 4.51367H38.67Z" fill="#4D4D4D"/>
<path d="M40.6419 7.21484H43.4296L41.5285 14.5695H38.5078L40.6419 7.21484Z" fill="#4D4D4D"/>
<path d="M50.1934 4.51367L49.5 6.75305L56.0728 6.78715C56.0728 6.78715 56.2859 6.78715 56.2149 6.98323L54.0836 14.5511H56.9083L59.3947 5.72146C59.3947 5.72146 59.6789 4.67282 58.7014 4.55062L50.1934 4.51367Z" fill="#4D4D4D"/>
<path d="M49.4338 7.21484L47.3906 14.5866H50.1272L52.159 7.26884L49.4338 7.21484Z" fill="#4D4D4D"/>
<path d="M61.6976 4.64062H69.6913L69.0718 6.78906L61.0781 6.826L61.6976 4.64062Z" fill="#4D4D4D"/>
<path d="M61.083 7.26758H63.7627L63.3023 8.56346H67.9911L67.2636 10.6778H62.805L62.2736 12.579H67.5137L66.9255 14.7246L58.9688 14.6933L61.083 7.26758Z" fill="#4D4D4D"/>
<path d="M71.4483 4.6543L80.0046 4.67419L79.3994 6.89367H70.7891L71.4483 4.6543Z" fill="#4D4D4D"/>
<path d="M73.6376 7.35742H76.4992L74.4731 14.7292H71.5234L73.6376 7.35742Z" fill="#4D4D4D"/>
<path d="M20.9997 6.79075C21.0253 6.70833 23.0599 0.399439 23.1736 0.0527344C22.915 0.24598 14.4326 6.57761 14.1484 6.79075H21.0026H20.9997Z" fill="#E8380D"/>
<path d="M18.7026 13.9243C18.7737 13.6998 20.8168 7.36244 20.868 7.20898H13.957C14.0877 7.39655 18.5662 13.731 18.7026 13.9243Z" fill="#E8380D"/>
<path d="M3.97656 14.3867H11.1547C11.1802 14.3014 13.0273 7.89304 13.1239 7.56055C12.8426 7.77084 4.12149 14.2787 3.97656 14.3867Z" fill="#004098"/>
<path d="M18.5129 14.3863C18.3822 14.1988 13.7332 7.62276 13.5911 7.42383C13.5229 7.6597 11.6275 14.2357 11.582 14.3863H18.5129Z" fill="#004098"/>
<path d="M12.877 7.20898H6.12803C6.10246 7.2914 4.21842 13.4099 4.11328 13.7509C4.40029 13.5349 12.5957 7.42212 12.877 7.20898Z" fill="#004098"/>
<path d="M8.35817 0.00976562C8.28713 0.237113 6.315 6.6341 6.26953 6.78756H13.1492C13.0185 6.60284 8.49741 0.205853 8.35817 0.00976562Z" fill="#004098"/>
<path d="M8.86328 0C8.994 0.18472 13.2963 6.26911 13.4355 6.46804C13.5037 6.23217 15.2571 0.150618 15.3025 0H8.86328Z" fill="#004098"/>
<path d="M22.5428 0H15.7342C15.7086 0.0852553 13.961 6.14407 13.8672 6.47656C14.1457 6.26911 22.2615 0.210297 22.5428 0Z" fill="#004098"/>
</svg>
