<svg width="400" height="400" viewBox="0 0 400 400" fill="none" xmlns="http://www.w3.org/2000/svg">
<path opacity="0.25" d="M328 368H324V364H328V368ZM320 368H316V364H320V368ZM312 368H308V364H312V368ZM304 368H300V364H304V368ZM296 368H292V364H296V368ZM288 368H284V364H288V368ZM280 368H276V364H280V368ZM272 368H268V364H272V368ZM264 368H260V364H264V368ZM256 368H252V364H256V368ZM248 368H244V364H248V368ZM240 368H236V364H240V368ZM232 368H228V364H232V368ZM224 368H220V364H224V368ZM216 368H212V364H216V368ZM208 368H204V364H208V368ZM200 368H196V364H200V368ZM192 368H188V364H192V368ZM184 368H180V364H184V368ZM176 368H172V364H176V368ZM168 368H164V364H168V368ZM160 368H156V364H160V368ZM152 368H148V364H152V368ZM144 368H140V364H144V368ZM136 368H132V364H136V368ZM128 368H124V364H128V368ZM120 368H116V364H120V368ZM112 368H108V364H112V368ZM104 368H100V364H104V368ZM96 368H92V364H96V368ZM88 368H84V364H88V368ZM80 368H76V364H80V368Z" fill="#1D5AB5"/>
<path opacity="0.25" d="M324 44H320V40H324V44ZM316 44H312V40H316V44ZM308 44H304V40H308V44ZM300 44H296V40H300V44ZM292 44H288V40H292V44ZM284 44H280V40H284V44ZM276 44H272V40H276V44ZM268 44H264V40H268V44ZM260 44H256V40H260V44ZM252 44H248V40H252V44ZM244 44H240V40H244V44ZM236 44H232V40H236V44ZM228 44H224V40H228V44ZM220 44H216V40H220V44ZM212 44H208V40H212V44ZM204 44H200V40H204V44ZM196 44H192V40H196V44ZM188 44H184V40H188V44ZM180 44H176V40H180V44ZM172 44H168V40H172V44ZM164 44H160V40H164V44ZM156 44H152V40H156V44ZM148 44H144V40H148V44ZM140 44H136V40H140V44ZM132 44H128V40H132V44ZM124 44H120V40H124V44ZM116 44H112V40H116V44ZM108 44H104V40H108V44ZM100 44H96V40H100V44ZM92 44H88V40H92V44ZM84 44H80V40H84V44Z" fill="#1D5AB5"/>
<path opacity="0.25" d="M152 208H148V204H152V208ZM144 208H140V204H144V208ZM136 208H132V204H136V208Z" fill="#1D5AB5"/>
<path opacity="0.25" d="M212 208H208V204H212V208ZM204 208H200V204H204V208ZM196 208H192V204H196V208Z" fill="#1D5AB5"/>
<path opacity="0.25" d="M272 208H268V204H272V208ZM264 208H260V204H264V208ZM256 208H252V204H256V208Z" fill="#1D5AB5"/>
<path opacity="0.25" d="M364 320H360V316H364V320ZM364 312H360V308H364V312ZM364 304H360V300H364V304ZM364 296H360V292H364V296ZM364 288H360V284H364V288ZM364 280H360V276H364V280ZM364 272H360V268H364V272ZM364 264H360V260H364V264ZM364 256H360V252H364V256ZM364 248H360V244H364V248ZM364 240H360V236H364V240ZM364 232H360V228H364V232ZM364 224H360V220H364V224ZM364 216H360V212H364V216ZM364 208H360V204H364V208ZM364 200H360V196H364V200ZM364 192H360V188H364V192ZM364 184H360V180H364V184ZM364 176H360V172H364V176ZM364 168H360V164H364V168ZM364 160H360V156H364V160ZM364 152H360V148H364V152ZM364 144H360V140H364V144ZM364 136H360V132H364V136ZM364 128H360V124H364V128ZM364 120H360V116H364V120ZM364 112H360V108H364V112ZM364 104H360V100H364V104ZM364 96H360V92H364V96ZM364 88H360V84H364V88ZM364 80H360V76H364V80ZM364 72H360V68H364V72Z" fill="#1D5AB5"/>
<path opacity="0.25" d="M40 264H36V260H40V264ZM40 256H36V252H40V256ZM40 248H36V244H40V248ZM40 240H36V236H40V240ZM40 232H36V228H40V232ZM40 224H36V220H40V224ZM40 216H36V212H40V216ZM40 208H36V204H40V208ZM40 200H36V196H40V200ZM40 192H36V188H40V192ZM40 184H36V180H40V184ZM40 176H36V172H40V176ZM40 168H36V164H40V168ZM40 160H36V156H40V160ZM40 152H36V148H40V152Z" fill="#1D5AB5"/>
<path opacity="0.85" d="M68 400V320H72V400H68Z" fill="url(#paint0_linear_3047_131371)"/>
<path opacity="0.85" d="M72 192V112H76V192H72Z" fill="url(#paint1_linear_3047_131371)"/>
<path opacity="0.85" d="M72 8V124H76V8H72Z" fill="url(#paint2_linear_3047_131371)"/>
<path opacity="0.85" d="M324 192V112H328V192H324Z" fill="url(#paint3_linear_3047_131371)"/>
<path opacity="0.85" d="M324 8V124H328V8H324Z" fill="url(#paint4_linear_3047_131371)"/>
<path opacity="0.85" d="M328 400V320H332V400H328Z" fill="url(#paint5_linear_3047_131371)"/>
<path opacity="0.85" d="M400 328H320V324H400V328Z" fill="url(#paint6_linear_3047_131371)"/>
<path opacity="0.85" d="M372 272H300V268H372V272Z" fill="url(#paint7_linear_3047_131371)"/>
<path opacity="0.85" d="M360 148H300V144H360V148Z" fill="url(#paint8_linear_3047_131371)"/>
<path opacity="0.85" d="M396 68H200V64H396V68Z" fill="url(#paint9_linear_3047_131371)"/>
<path opacity="0.85" d="M200 64H4V68H200V64Z" fill="url(#paint10_linear_3047_131371)"/>
<path opacity="0.85" d="M100 144H0V148H100V144Z" fill="url(#paint11_linear_3047_131371)"/>
<path opacity="0.85" d="M80 324H0V328H80V324Z" fill="url(#paint12_linear_3047_131371)"/>
<path opacity="0.85" d="M100 268H0V272H100V268Z" fill="url(#paint13_linear_3047_131371)"/>
<path opacity="0.85" d="M92 284H36V288H92V284Z" fill="url(#paint14_linear_3047_131371)"/>
<path opacity="0.85" d="M88 180V124H84V180H88Z" fill="url(#paint15_linear_3047_131371)"/>
<path opacity="0.85" d="M316 180V124H312V180H316Z" fill="url(#paint16_linear_3047_131371)"/>
<path opacity="0.85" d="M84 300H28V304H84V300Z" fill="url(#paint17_linear_3047_131371)"/>
<path opacity="0.85" d="M364 288H308V284H364V288Z" fill="url(#paint18_linear_3047_131371)"/>
<path opacity="0.85" d="M372 304H316V300H372V304Z" fill="url(#paint19_linear_3047_131371)"/>
<path d="M296.047 116.001H103.951L199.999 80.7812L200.687 81.0293L296.047 116.001ZM126.475 112.001H273.523L199.999 85.0413L126.475 112.001Z" fill="#769ED6"/>
<path d="M200 68L76 112V128H88V144H312V128H324V112L200 68Z" fill="#F0F5FF"/>
<path d="M316 148.002H84V132.002H72V109.178L200 63.7578L201.336 64.2338L328 109.178V132.002H316V148.002ZM92 140.002H308V124.002H320V114.826L200 72.2498L80 114.826V124.002H92V140.002Z" fill="#1D5AB5"/>
<path d="M320 304V288H312V272H88V288H80V304H72V324H328V304H320Z" fill="#F0F5FF"/>
<path d="M332 328H68V300H76V284H84V268H316V284H324V300H332V328ZM76 320H324V308H316V292H308V276H92V292H84V308H76V320Z" fill="#1D5AB5"/>
<path d="M96 272H124L124 144H96L96 272Z" fill="#F0F5FF"/>
<path d="M128 276H92V140H128V276ZM100 268H120V148H100V268Z" fill="#1D5AB5"/>
<path d="M308 288H92V292H308V288Z" fill="#769ED6"/>
<path d="M308 124H92V128H308V124Z" fill="#769ED6"/>
<path d="M316 304H84V308H316V304Z" fill="#769ED6"/>
<path opacity="0.3" d="M108 158H104V258H108V158Z" fill="#1D5AB5"/>
<path opacity="0.3" d="M116 158H112V258H116V158Z" fill="#1D5AB5"/>
<path opacity="0.3" d="M100 140H96V128H100V140ZM108 128H104V140H108V128ZM116 128H112V140H116V128ZM124 128H120V140H124V128ZM132 128H128V140H132V128ZM140 128H136V140H140V128ZM148 128H144V140H148V128ZM156 128H152V140H156V128ZM164 128H160V140H164V128ZM172 128H168V140H172V128ZM180 128H176V140H180V128ZM188 128H184V140H188V128ZM196 128H192V140H196V128ZM204 128H200V140H204V128ZM212 128H208V140H212V128ZM220 128H216V140H220V128ZM228 128H224V140H228V128ZM236 128H232V140H236V128ZM244 128H240V140H244V128ZM252 128H248V140H252V128ZM260 128H256V140H260V128ZM268 128H264V140H268V128ZM276 128H272V140H276V128ZM284 128H280V140H284V128ZM292 128H288V140H292V128ZM300 128H296V140H300V128ZM308 128H304V140H308V128Z" fill="#1D5AB5"/>
<path d="M120 256H100V260H120V256Z" fill="#769ED6"/>
<path d="M120 156H100V160H120V156Z" fill="#769ED6"/>
<path d="M156 272H184L184 144H156V272Z" fill="#F0F5FF"/>
<path d="M188 276H152V140H188V276ZM160 268H180V148H160V268Z" fill="#1D5AB5"/>
<path opacity="0.3" d="M168 158H164V258H168V158Z" fill="#1D5AB5"/>
<path opacity="0.3" d="M176 158H172V258H176V158Z" fill="#1D5AB5"/>
<path d="M180 256H160V260H180V256Z" fill="#769ED6"/>
<path d="M180 156H160V160H180V156Z" fill="#769ED6"/>
<path d="M216 272H244L244 144H216V272Z" fill="#F0F5FF"/>
<path d="M248 276H212V140H248V276ZM220 268H240V148H220V268Z" fill="#1D5AB5"/>
<path opacity="0.3" d="M228 158H224V258H228V158Z" fill="#1D5AB5"/>
<path opacity="0.3" d="M236 158H232V258H236V158Z" fill="#1D5AB5"/>
<path d="M240 256H220V260H240V256Z" fill="#769ED6"/>
<path d="M240 156H220V160H240V156Z" fill="#769ED6"/>
<path d="M276 272H304V144H276V272Z" fill="#F0F5FF"/>
<path d="M308 276H272V140H308V276ZM280 268H300V148H280V268Z" fill="#1D5AB5"/>
<path opacity="0.3" d="M288 158H284V258H288V158Z" fill="#1D5AB5"/>
<path opacity="0.3" d="M296 158H292V258H296V158Z" fill="#1D5AB5"/>
<path d="M300 256H280V260H300V256Z" fill="#769ED6"/>
<path d="M300 156H280V160H300V156Z" fill="#769ED6"/>
<path d="M295.832 116.001H103.928L200.016 80.7852L295.832 116.001ZM126.472 112.001H273.58L199.98 85.0612L126.472 112.001Z" fill="#769ED6"/>
<path opacity="0.85" d="M25.9122 129.772L24.5762 126L80.9762 105.988L82.3122 109.76L25.9122 129.772Z" fill="url(#paint20_linear_3047_131371)"/>
<path opacity="0.85" d="M374.088 129.772L375.424 126L319.023 105.988L317.688 109.76L374.088 129.772Z" fill="url(#paint21_linear_3047_131371)"/>
<defs>
<linearGradient id="paint0_linear_3047_131371" x1="70" y1="399.188" x2="70" y2="295.928" gradientUnits="userSpaceOnUse">
<stop stop-color="#1D5AB5" stop-opacity="0"/>
<stop offset="1" stop-color="#1D5AB5"/>
</linearGradient>
<linearGradient id="paint1_linear_3047_131371" x1="74" y1="191.188" x2="74" y2="87.928" gradientUnits="userSpaceOnUse">
<stop stop-color="#1D5AB5" stop-opacity="0"/>
<stop offset="1" stop-color="#1D5AB5"/>
</linearGradient>
<linearGradient id="paint2_linear_3047_131371" x1="74" y1="9.176" x2="74" y2="158.908" gradientUnits="userSpaceOnUse">
<stop stop-color="#1D5AB5" stop-opacity="0"/>
<stop offset="1" stop-color="#1D5AB5"/>
</linearGradient>
<linearGradient id="paint3_linear_3047_131371" x1="326" y1="191.188" x2="326" y2="87.928" gradientUnits="userSpaceOnUse">
<stop stop-color="#1D5AB5" stop-opacity="0"/>
<stop offset="1" stop-color="#1D5AB5"/>
</linearGradient>
<linearGradient id="paint4_linear_3047_131371" x1="326" y1="9.176" x2="326" y2="158.908" gradientUnits="userSpaceOnUse">
<stop stop-color="#1D5AB5" stop-opacity="0"/>
<stop offset="1" stop-color="#1D5AB5"/>
</linearGradient>
<linearGradient id="paint5_linear_3047_131371" x1="330" y1="399.188" x2="330" y2="295.928" gradientUnits="userSpaceOnUse">
<stop stop-color="#1D5AB5" stop-opacity="0"/>
<stop offset="1" stop-color="#1D5AB5"/>
</linearGradient>
<linearGradient id="paint6_linear_3047_131371" x1="399.188" y1="326" x2="295.928" y2="326" gradientUnits="userSpaceOnUse">
<stop stop-color="#1D5AB5" stop-opacity="0"/>
<stop offset="1" stop-color="#1D5AB5"/>
</linearGradient>
<linearGradient id="paint7_linear_3047_131371" x1="371.272" y1="270" x2="278.336" y2="270" gradientUnits="userSpaceOnUse">
<stop stop-color="#1D5AB5" stop-opacity="0"/>
<stop offset="1" stop-color="#1D5AB5"/>
</linearGradient>
<linearGradient id="paint8_linear_3047_131371" x1="359.392" y1="146" x2="281.944" y2="146" gradientUnits="userSpaceOnUse">
<stop stop-color="#1D5AB5" stop-opacity="0"/>
<stop offset="1" stop-color="#1D5AB5"/>
</linearGradient>
<linearGradient id="paint9_linear_3047_131371" x1="394.016" y1="66" x2="141.02" y2="66" gradientUnits="userSpaceOnUse">
<stop stop-color="#1D5AB5" stop-opacity="0"/>
<stop offset="1" stop-color="#1D5AB5"/>
</linearGradient>
<linearGradient id="paint10_linear_3047_131371" x1="5.984" y1="66" x2="258.98" y2="66" gradientUnits="userSpaceOnUse">
<stop stop-color="#1D5AB5" stop-opacity="0"/>
<stop offset="1" stop-color="#1D5AB5"/>
</linearGradient>
<linearGradient id="paint11_linear_3047_131371" x1="1.012" y1="146" x2="130.092" y2="146" gradientUnits="userSpaceOnUse">
<stop stop-color="#1D5AB5" stop-opacity="0"/>
<stop offset="1" stop-color="#1D5AB5"/>
</linearGradient>
<linearGradient id="paint12_linear_3047_131371" x1="0.812" y1="326" x2="104.072" y2="326" gradientUnits="userSpaceOnUse">
<stop stop-color="#1D5AB5" stop-opacity="0"/>
<stop offset="1" stop-color="#1D5AB5"/>
</linearGradient>
<linearGradient id="paint13_linear_3047_131371" x1="1.012" y1="270" x2="130.092" y2="270" gradientUnits="userSpaceOnUse">
<stop stop-color="#1D5AB5" stop-opacity="0"/>
<stop offset="1" stop-color="#1D5AB5"/>
</linearGradient>
<linearGradient id="paint14_linear_3047_131371" x1="36.568" y1="286" x2="135.684" y2="286" gradientUnits="userSpaceOnUse">
<stop stop-color="#1D5AB5" stop-opacity="0"/>
<stop offset="1" stop-color="#1D5AB5"/>
</linearGradient>
<linearGradient id="paint15_linear_3047_131371" x1="86" y1="179.432" x2="86" y2="80.316" gradientUnits="userSpaceOnUse">
<stop stop-color="#1D5AB5" stop-opacity="0"/>
<stop offset="1" stop-color="#1D5AB5"/>
</linearGradient>
<linearGradient id="paint16_linear_3047_131371" x1="314" y1="179.432" x2="314" y2="80.316" gradientUnits="userSpaceOnUse">
<stop stop-color="#1D5AB5" stop-opacity="0"/>
<stop offset="1" stop-color="#1D5AB5"/>
</linearGradient>
<linearGradient id="paint17_linear_3047_131371" x1="28.568" y1="302" x2="127.684" y2="302" gradientUnits="userSpaceOnUse">
<stop stop-color="#1D5AB5" stop-opacity="0"/>
<stop offset="1" stop-color="#1D5AB5"/>
</linearGradient>
<linearGradient id="paint18_linear_3047_131371" x1="363.432" y1="286" x2="264.316" y2="286" gradientUnits="userSpaceOnUse">
<stop stop-color="#1D5AB5" stop-opacity="0"/>
<stop offset="1" stop-color="#1D5AB5"/>
</linearGradient>
<linearGradient id="paint19_linear_3047_131371" x1="371.432" y1="302" x2="272.316" y2="302" gradientUnits="userSpaceOnUse">
<stop stop-color="#1D5AB5" stop-opacity="0"/>
<stop offset="1" stop-color="#1D5AB5"/>
</linearGradient>
<linearGradient id="paint20_linear_3047_131371" x1="31.3322" y1="125.496" x2="106.912" y2="99.4683" gradientUnits="userSpaceOnUse">
<stop stop-color="#1D5AB5" stop-opacity="0"/>
<stop offset="1" stop-color="#1D5AB5"/>
</linearGradient>
<linearGradient id="paint21_linear_3047_131371" x1="368.668" y1="125.496" x2="293.087" y2="99.4683" gradientUnits="userSpaceOnUse">
<stop stop-color="#1D5AB5" stop-opacity="0"/>
<stop offset="1" stop-color="#1D5AB5"/>
</linearGradient>
</defs>
</svg>
