<svg width="400" height="400" viewBox="0 0 400 400" fill="none" xmlns="http://www.w3.org/2000/svg">
<path d="M88 164.001V308.001H316V164.001V160.853C316 150.305 310.804 140.433 302.104 134.469L202 65.7773L101.896 134.465C93.196 140.433 88 150.305 88 160.853V164.001Z" fill="#F0F5FF"/>
<path opacity="0.25" d="M312 352H308V348H312V352ZM304 352H300V348H304V352ZM296 352H292V348H296V352ZM288 352H284V348H288V352ZM280 352H276V348H280V352ZM272 352H268V348H272V352ZM264 352H260V348H264V352ZM256 352H252V348H256V352ZM248 352H244V348H248V352ZM240 352H236V348H240V352ZM232 352H228V348H232V352ZM224 352H220V348H224V352ZM216 352H212V348H216V352ZM208 352H204V348H208V352ZM200 352H196V348H200V352ZM192 352H188V348H192V352ZM184 352H180V348H184V352ZM176 352H172V348H176V352ZM168 352H164V348H168V352ZM160 352H156V348H160V352ZM152 352H148V348H152V352ZM144 352H140V348H144V352ZM136 352H132V348H136V352ZM128 352H124V348H128V352ZM120 352H116V348H120V352ZM112 352H108V348H112V352ZM104 352H100V348H104V352ZM96 352H92V348H96V352Z" fill="#1D5AB5"/>
<path opacity="0.25" d="M356 304H352V300H356V304ZM356 296H352V292H356V296ZM356 288H352V284H356V288ZM356 280H352V276H356V280ZM356 272H352V268H356V272ZM356 264H352V260H356V264ZM356 256H352V252H356V256ZM356 248H352V244H356V248ZM356 240H352V236H356V240ZM356 232H352V228H356V232ZM356 224H352V220H356V224ZM356 216H352V212H356V216ZM356 208H352V204H356V208ZM356 200H352V196H356V200ZM356 192H352V188H356V192ZM356 184H352V180H356V184ZM356 176H352V172H356V176ZM356 168H352V164H356V168ZM356 160H352V156H356V160ZM356 152H352V148H356V152ZM356 144H352V140H356V144ZM356 136H352V132H356V136ZM356 128H352V124H356V128ZM356 120H352V116H356V120ZM356 112H352V108H356V112ZM356 104H352V100H356V104ZM356 96H352V92H356V96ZM356 88H352V84H356V88ZM356 80H352V76H356V80ZM356 72H352V68H356V72Z" fill="#1D5AB5"/>
<path opacity="0.85" d="M400 312H312V308H400V312Z" fill="url(#paint0_linear_2613_129611)"/>
<path opacity="0.85" d="M92 308H4V312H92V308Z" fill="url(#paint1_linear_2613_129611)"/>
<path opacity="0.85" d="M88 392V304H84V392H88Z" fill="url(#paint2_linear_2613_129611)"/>
<path opacity="0.85" d="M320 392V304H316V392H320Z" fill="url(#paint3_linear_2613_129611)"/>
<path opacity="0.85" d="M88 24.0117V168.012H84V24.0117H88Z" fill="url(#paint4_linear_2613_129611)"/>
<path opacity="0.85" d="M320 24.0117V168.012H316V24.0117H320Z" fill="url(#paint5_linear_2613_129611)"/>
<path opacity="0.85" d="M380 60H202V64H380V60Z" fill="url(#paint6_linear_2613_129611)"/>
<path opacity="0.85" d="M202 60H24V64H202V60Z" fill="url(#paint7_linear_2613_129611)"/>
<path opacity="0.3" d="M311.161 298.36L305.521 304H311.161L312.881 302.28L311.161 298.36ZM307.761 290.4L294.161 304H299.841L309.481 294.36L307.761 290.4ZM298.881 288L282.881 304H288.561L304.561 288H298.881ZM287.561 288L271.561 304H277.201L293.201 288H287.561ZM276.241 288L260.241 304H265.921L281.921 288H276.241ZM264.961 288L248.961 304H254.561L270.561 288H264.961ZM253.601 288L237.601 304H243.281L259.281 288H253.601ZM242.321 288L226.321 304H231.961L247.961 288H242.321ZM230.961 288L214.961 304H220.641L236.641 288H230.961ZM219.681 288L203.681 304H209.361L225.361 288H219.681ZM208.361 288L192.361 304H198.001L214.001 288H208.361ZM197.041 288L181.041 304H186.721L202.721 288H197.041ZM185.761 288L169.761 304H175.361L191.361 288H185.761ZM174.401 288L158.401 304H164.081L180.081 288H174.401ZM163.121 288L147.121 304H152.761L168.761 288H163.121ZM151.801 288L135.801 304H141.441L157.441 288H151.801ZM140.481 288L124.481 304H130.161L146.161 288H140.481ZM129.201 288L113.201 304H118.801L134.801 288H129.201ZM117.841 288L101.841 304H107.521L123.521 288H117.841ZM106.561 288L90.5605 304H96.2005L112.201 288H106.561Z" fill="#1D5AB5"/>
<path opacity="0.25" d="M204 284H200V280H204V284ZM204 276H200V272H204V276ZM204 268H200V264H204V268ZM204 260H200V256H204V260ZM204 252H200V248H204V252ZM204 244H200V240H204V244ZM204 236H200V232H204V236ZM204 228H200V224H204V228Z" fill="#1D5AB5"/>
<path opacity="0.3" d="M120.6 125.281L92.8 153.081C92.28 155.161 92 157.321 92 159.521L138.56 112.961L120.6 125.281ZM156.52 100.641L92 165.161V165.401C92 167.001 92.24 168.601 92.76 170.081L174.6 88.2414L156.52 100.641ZM202 69.4414L192.72 75.8014L94.56 173.961C95.2 175.081 96.08 176.121 97.08 177.041L128 146.121V144.001H130.12L203.6 70.5214L202 69.4414ZM206.96 72.8414L135.8 144.001H141.48L210.32 75.1614L206.96 72.8414ZM100.32 179.481L103.68 181.801L128 157.481V151.801L100.32 179.481ZM213.68 77.4414L147.12 144.001H152.76L217 79.7614L213.68 77.4414ZM107.04 184.081L110.4 186.361L128 168.761V163.121L107.04 184.081ZM220.4 82.0414L158.44 144.001H164.12L223.76 84.3614L220.4 82.0414ZM113.8 188.641L117.2 190.921L128 180.121V174.441L113.8 188.641ZM227.08 86.6414L169.72 144.001H175.4L230.44 88.9614L227.08 86.6414ZM120.52 193.201L123.92 195.481L128 191.401V185.721L120.52 193.201ZM233.8 91.2814L181.08 144.001H186.72L237.16 93.5614L233.8 91.2814ZM127.32 197.761L128 198.241V197.081L127.32 197.761ZM240.52 95.8414L192.36 144.001H198.04L243.88 98.1614L240.52 95.8414ZM247.24 100.481L203.72 144.001H209.32L250.56 102.761L247.24 100.481ZM253.92 105.081L215 144.001H220.68L257.32 107.361L253.92 105.081ZM260.64 109.681L226.32 144.001H231.96L264 111.961L260.64 109.681ZM267.36 114.281L237.64 144.001H243.28L270.72 116.561L267.36 114.281ZM274.04 118.881L248.92 144.001H254.6L277.44 121.161L274.04 118.881ZM280.8 123.481L260.28 144.001H265.88L284.12 125.761L280.8 123.481ZM290.84 130.401L287.48 128.081L271.56 144.001H276V145.241L290.84 130.401ZM294.2 132.681L276 150.881V156.521L297.52 135.001L294.2 132.681ZM300.88 137.321L276 162.201V167.881L303.92 139.961C302.96 139.041 301.96 138.121 300.88 137.321ZM306.48 143.001L276 173.481V179.161L308.68 146.481C308.04 145.281 307.32 144.121 306.48 143.001ZM310.44 150.401L276 184.841V190.481L311.6 154.881C311.32 153.361 310.96 151.841 310.44 150.401ZM276 196.121V198.241L287 190.801L311.96 165.841C312 165.681 312 165.561 312 165.401V160.121L276 196.121Z" fill="#1D5AB5"/>
<path opacity="0.85" d="M128 256V200H124V256H128Z" fill="url(#paint8_linear_2613_129611)"/>
<path d="M169.42 231.132L96.784 181.948C91.284 178.22 88 172.032 88 165.388V164H92V165.388C92 170.704 94.628 175.656 99.028 178.636L171.664 227.816L169.42 231.132Z" fill="#769ED6"/>
<path opacity="0.85" d="M280 256V200H276V256H280Z" fill="url(#paint9_linear_2613_129611)"/>
<path d="M234.58 231.132L232.336 227.82L304.972 178.64C309.372 175.66 312 170.708 312 165.392V164H316V165.388C316 172.032 312.716 178.22 307.216 181.948L234.58 231.132Z" fill="#769ED6"/>
<path d="M252 160H152V164H252V160Z" fill="#769ED6"/>
<path d="M252 176H152V180H252V176Z" fill="#769ED6"/>
<path d="M252 192H152V196H252V192Z" fill="#769ED6"/>
<path d="M91.6844 309.565L84.3164 306.441L90.8924 290.957C93.7764 284.169 98.4764 278.325 104.488 274.061L183.48 218.013C194.56 210.157 209.444 210.157 220.516 218.013L299.408 273.981C305.492 278.297 310.248 284.209 313.164 291.077L319.684 306.437L312.316 309.561L305.796 294.201C303.46 288.697 299.648 283.957 294.776 280.501L215.888 224.537C207.584 218.645 196.424 218.645 188.112 224.537L109.116 280.585C104.312 283.993 100.556 288.657 98.2564 294.081L91.6844 309.565Z" fill="#1D5AB5"/>
<path d="M320 311.999H84V159.651C84 147.783 89.844 136.683 99.628 129.967L202 59.7266L304.368 129.967C314.156 136.683 320 147.783 320 159.651V311.999ZM92 303.999H312V159.651C312 150.419 307.452 141.787 299.84 136.563L202 69.4266L104.156 136.563C96.548 141.787 92 150.419 92 159.651V303.999Z" fill="#1D5AB5"/>
<path d="M280 200H276V144H128V200H124V140H280V200Z" fill="#769ED6"/>
<path opacity="0.85" d="M292 212H202V216H292V212Z" fill="url(#paint10_linear_2613_129611)"/>
<path opacity="0.85" d="M202 212H112V216H202V212Z" fill="url(#paint11_linear_2613_129611)"/>
<defs>
<linearGradient id="paint0_linear_2613_129611" x1="399.108" y1="310" x2="285.52" y2="310" gradientUnits="userSpaceOnUse">
<stop stop-color="#1D5AB5" stop-opacity="0"/>
<stop offset="1" stop-color="#1D5AB5"/>
</linearGradient>
<linearGradient id="paint1_linear_2613_129611" x1="4.892" y1="310" x2="118.48" y2="310" gradientUnits="userSpaceOnUse">
<stop stop-color="#1D5AB5" stop-opacity="0"/>
<stop offset="1" stop-color="#1D5AB5"/>
</linearGradient>
<linearGradient id="paint2_linear_2613_129611" x1="86" y1="391.108" x2="86" y2="277.52" gradientUnits="userSpaceOnUse">
<stop stop-color="#1D5AB5" stop-opacity="0"/>
<stop offset="1" stop-color="#1D5AB5"/>
</linearGradient>
<linearGradient id="paint3_linear_2613_129611" x1="318" y1="391.108" x2="318" y2="277.52" gradientUnits="userSpaceOnUse">
<stop stop-color="#1D5AB5" stop-opacity="0"/>
<stop offset="1" stop-color="#1D5AB5"/>
</linearGradient>
<linearGradient id="paint4_linear_2613_129611" x1="86" y1="25.4717" x2="86" y2="211.344" gradientUnits="userSpaceOnUse">
<stop stop-color="#1D5AB5" stop-opacity="0"/>
<stop offset="1" stop-color="#1D5AB5"/>
</linearGradient>
<linearGradient id="paint5_linear_2613_129611" x1="318" y1="25.4717" x2="318" y2="211.344" gradientUnits="userSpaceOnUse">
<stop stop-color="#1D5AB5" stop-opacity="0"/>
<stop offset="1" stop-color="#1D5AB5"/>
</linearGradient>
<linearGradient id="paint6_linear_2613_129611" x1="378.196" y1="62" x2="148.436" y2="62" gradientUnits="userSpaceOnUse">
<stop stop-color="#1D5AB5" stop-opacity="0"/>
<stop offset="1" stop-color="#1D5AB5"/>
</linearGradient>
<linearGradient id="paint7_linear_2613_129611" x1="25.804" y1="62" x2="255.564" y2="62" gradientUnits="userSpaceOnUse">
<stop stop-color="#1D5AB5" stop-opacity="0"/>
<stop offset="1" stop-color="#1D5AB5"/>
</linearGradient>
<linearGradient id="paint8_linear_2613_129611" x1="126" y1="255.432" x2="126" y2="141.664" gradientUnits="userSpaceOnUse">
<stop stop-color="#1D5AB5" stop-opacity="0"/>
<stop offset="1" stop-color="#1D5AB5"/>
</linearGradient>
<linearGradient id="paint9_linear_2613_129611" x1="278" y1="255.432" x2="278" y2="141.664" gradientUnits="userSpaceOnUse">
<stop stop-color="#1D5AB5" stop-opacity="0"/>
<stop offset="1" stop-color="#1D5AB5"/>
</linearGradient>
<linearGradient id="paint10_linear_2613_129611" x1="269.372" y1="214" x2="110.9" y2="214" gradientUnits="userSpaceOnUse">
<stop stop-color="#1D5AB5" stop-opacity="0"/>
<stop offset="1" stop-color="#1D5AB5"/>
</linearGradient>
<linearGradient id="paint11_linear_2613_129611" x1="134.628" y1="214" x2="293.1" y2="214" gradientUnits="userSpaceOnUse">
<stop stop-color="#1D5AB5" stop-opacity="0"/>
<stop offset="1" stop-color="#1D5AB5"/>
</linearGradient>
</defs>
</svg>
