<svg width="400" height="400" viewBox="0 0 400 400" fill="none" xmlns="http://www.w3.org/2000/svg">
<path opacity="0.25" d="M71.9961 232H67.9961V228H71.9961V232ZM71.9961 224H67.9961V220H71.9961V224ZM71.9961 216H67.9961V212H71.9961V216ZM71.9961 208H67.9961V204H71.9961V208ZM71.9961 200H67.9961V196H71.9961V200ZM71.9961 192H67.9961V188H71.9961V192ZM71.9961 184H67.9961V180H71.9961V184ZM71.9961 176H67.9961V172H71.9961V176ZM71.9961 168H67.9961V164H71.9961V168ZM71.9961 160H67.9961V156H71.9961V160Z" fill="#1D5AB5"/>
<path opacity="0.85" d="M364 328H201.996V332H364V328Z" fill="url(#paint0_linear_2930_132102)"/>
<path opacity="0.85" d="M364 64H201.996V68H364V64Z" fill="url(#paint1_linear_2930_132102)"/>
<path opacity="0.85" d="M202 64H39.9961V68H202V64Z" fill="url(#paint2_linear_2930_132102)"/>
<path opacity="0.85" d="M201.992 328H47.9961V332H201.992V328Z" fill="url(#paint3_linear_2930_132102)"/>
<path d="M201.996 68.2812L307.996 112.001C307.996 112.001 307.996 148.001 307.996 188.001C307.996 304.001 201.996 327.881 201.996 327.881C201.996 327.881 95.9961 304.001 95.9961 188.001C95.9961 148.001 95.9961 112.001 95.9961 112.001L201.996 68.2812Z" fill="#F0F5FF"/>
<path d="M201.996 331.981L201.116 331.781C200.028 331.533 91.9961 305.837 91.9961 188.001V109.325L201.996 63.9531L311.996 109.325V188.001C311.996 305.837 203.964 331.537 202.876 331.781L201.996 331.981ZM99.9961 114.677V188.001C99.9961 295.089 191.292 321.089 201.996 323.765C212.7 321.089 303.996 295.089 303.996 188.001V114.677L201.996 72.6091L99.9961 114.677Z" fill="#1D5AB5"/>
<path opacity="0.25" d="M303.996 360H299.996V356H303.996V360ZM295.996 360H291.996V356H295.996V360ZM287.996 360H283.996V356H287.996V360ZM279.996 360H275.996V356H279.996V360ZM271.996 360H267.996V356H271.996V360ZM263.996 360H259.996V356H263.996V360ZM255.996 360H251.996V356H255.996V360ZM247.996 360H243.996V356H247.996V360ZM239.996 360H235.996V356H239.996V360ZM231.996 360H227.996V356H231.996V360ZM223.996 360H219.996V356H223.996V360ZM215.996 360H211.996V356H215.996V360ZM207.996 360H203.996V356H207.996V360ZM199.996 360H195.996V356H199.996V360ZM191.996 360H187.996V356H191.996V360ZM183.996 360H179.996V356H183.996V360ZM175.996 360H171.996V356H175.996V360ZM167.996 360H163.996V356H167.996V360ZM159.996 360H155.996V356H159.996V360ZM151.996 360H147.996V356H151.996V360ZM143.996 360H139.996V356H143.996V360ZM135.996 360H131.996V356H135.996V360ZM127.996 360H123.996V356H127.996V360ZM119.996 360H115.996V356H119.996V360ZM111.996 360H107.996V356H111.996V360ZM103.996 360H99.9961V356H103.996V360Z" fill="#1D5AB5"/>
<path opacity="0.25" d="M251.996 44H247.996V40H251.996V44ZM243.996 44H239.996V40H243.996V44ZM235.996 44H231.996V40H235.996V44ZM227.996 44H223.996V40H227.996V44ZM219.996 44H215.996V40H219.996V44ZM211.996 44H207.996V40H211.996V44ZM203.996 44H199.996V40H203.996V44ZM195.996 44H191.996V40H195.996V44ZM187.996 44H183.996V40H187.996V44ZM179.996 44H175.996V40H179.996V44ZM171.996 44H167.996V40H171.996V44ZM163.996 44H159.996V40H163.996V44ZM155.996 44H151.996V40H155.996V44Z" fill="#1D5AB5"/>
<path opacity="0.25" d="M347.996 324H343.996V320H347.996V324ZM347.996 316H343.996V312H347.996V316ZM347.996 308H343.996V304H347.996V308ZM347.996 300H343.996V296H347.996V300ZM347.996 292H343.996V288H347.996V292ZM347.996 284H343.996V280H347.996V284ZM347.996 276H343.996V272H347.996V276ZM347.996 268H343.996V264H347.996V268ZM347.996 260H343.996V256H347.996V260ZM347.996 252H343.996V248H347.996V252ZM347.996 244H343.996V240H347.996V244ZM347.996 236H343.996V232H347.996V236ZM347.996 228H343.996V224H347.996V228ZM347.996 220H343.996V216H347.996V220ZM347.996 212H343.996V208H347.996V212ZM347.996 204H343.996V200H347.996V204ZM347.996 196H343.996V192H347.996V196ZM347.996 188H343.996V184H347.996V188ZM347.996 180H343.996V176H347.996V180ZM347.996 172H343.996V168H347.996V172ZM347.996 164H343.996V160H347.996V164ZM347.996 156H343.996V152H347.996V156ZM347.996 148H343.996V144H347.996V148ZM347.996 140H343.996V136H347.996V140ZM347.996 132H343.996V128H347.996V132ZM347.996 124H343.996V120H347.996V124ZM347.996 116H343.996V112H347.996V116ZM347.996 108H343.996V104H347.996V108ZM347.996 100H343.996V96H347.996V100ZM347.996 92H343.996V88H347.996V92ZM347.996 84H343.996V80H347.996V84ZM347.996 76H343.996V72H347.996V76Z" fill="#1D5AB5"/>
<path d="M95.9961 4H91.9961V112H95.9961V4Z" fill="url(#paint4_linear_2930_132102)"/>
<path d="M307.996 4H311.996V112H307.996V4Z" fill="url(#paint5_linear_2930_132102)"/>
<path d="M95.9961 188H91.9961V400H95.9961V188Z" fill="url(#paint6_linear_2930_132102)"/>
<path d="M307.996 400H311.996V188H307.996V400Z" fill="url(#paint7_linear_2930_132102)"/>
<path opacity="0.25" d="M203.996 144H199.996V140H203.996V144ZM203.996 136H199.996V132H203.996V136ZM203.996 128H199.996V124H203.996V128ZM203.996 120H199.996V116H203.996V120ZM203.996 112H199.996V108H203.996V112ZM203.996 104H199.996V100H203.996V104ZM203.996 96H199.996V92H203.996V96Z" fill="#1D5AB5"/>
<path opacity="0.25" d="M203.996 312H199.996V308H203.996V312ZM203.996 304H199.996V300H203.996V304ZM203.996 296H199.996V292H203.996V296ZM203.996 288H199.996V284H203.996V288ZM203.996 280H199.996V276H203.996V280ZM203.996 272H199.996V268H203.996V272ZM203.996 264H199.996V260H203.996V264ZM203.996 256H199.996V252H203.996V256ZM203.996 248H199.996V244H203.996V248Z" fill="#1D5AB5"/>
<path d="M202.032 315.498L201.48 315.338C185.872 310.826 107.996 283.494 107.996 188.002V120.034L109.236 119.526L201.996 81.2656L202.756 81.5816L295.996 120.034V188.002C295.996 284.01 218.18 310.918 202.58 315.342L202.032 315.498ZM111.996 122.714V188.002C111.996 279.558 185.724 306.502 202.04 311.334C218.344 306.594 291.996 280.05 291.996 188.002V122.714L201.996 85.5936L111.996 122.714Z" fill="#769ED6"/>
<path d="M188.012 240.542L185.164 237.733L143.84 196.413L164.844 175.41L187.992 198.553L239.112 147.438L260.116 168.441L188.012 240.542ZM155.152 196.413L187.992 229.245L248.804 168.438L239.112 158.745L187.992 209.865L164.844 186.721L155.152 196.413Z" fill="#1D5AB5"/>
<path opacity="0.85" d="M299.996 236H187.996V240H299.996V236Z" fill="url(#paint8_linear_2930_132102)"/>
<path opacity="0.85" d="M187.996 236H11.9961V240H187.996V236Z" fill="url(#paint9_linear_2930_132102)"/>
<path opacity="0.85" d="M147.996 8V196.4H143.996V8H147.996Z" fill="url(#paint10_linear_2930_132102)"/>
<path opacity="0.85" d="M259.996 8V168.4H255.996V8H259.996Z" fill="url(#paint11_linear_2930_132102)"/>
<path opacity="0.85" d="M259.996 288.006V168.406H255.996V288.006H259.996Z" fill="url(#paint12_linear_2930_132102)"/>
<path opacity="0.85" d="M147.996 304.006V196.406H143.996V304.006H147.996Z" fill="url(#paint13_linear_2930_132102)"/>
<path opacity="0.85" d="M312.012 148H239.184V152H312.012V148Z" fill="url(#paint14_linear_2930_132102)"/>
<path opacity="0.85" d="M239.168 148H11.9961V152H239.168V148Z" fill="url(#paint15_linear_2930_132102)"/>
<path opacity="0.3" d="M250.051 163.998L246.891 176.038L252.491 170.438L253.331 167.278L250.051 163.998ZM243.491 157.438L235.731 187.198L241.291 181.638L246.771 160.718L243.491 157.438ZM239.131 153.078L235.371 156.838L224.491 198.438L230.091 192.838L240.211 154.158L239.131 153.078ZM224.211 167.998L213.291 209.638L218.891 204.038L229.771 162.438L224.211 167.998ZM213.011 179.198L202.131 220.798L207.691 215.238L218.571 173.638L213.011 179.198ZM201.811 190.398L190.931 231.998L196.491 226.438L207.371 184.838L201.811 190.398ZM190.611 201.598L183.171 230.078L186.411 233.318L196.171 196.038L190.611 201.598ZM182.971 199.158L176.611 223.518L179.891 226.798L186.251 202.438L182.971 199.158ZM176.411 192.598L170.051 216.958L173.331 220.198L179.691 195.878L176.411 192.598ZM169.851 186.078L163.491 210.358L166.771 213.678L173.131 189.358L169.851 186.078ZM164.851 181.078L162.211 183.718L156.931 203.838L160.211 207.078L166.571 182.798L164.851 181.078ZM151.011 194.918L150.371 197.278L153.691 200.558L156.611 189.318L151.011 194.918Z" fill="#1D5AB5"/>
<path opacity="0.25" d="M139.996 192H135.996V188H139.996V192ZM131.996 192H127.996V188H131.996V192ZM123.996 192H119.996V188H123.996V192ZM115.996 192H111.996V188H115.996V192Z" fill="#1D5AB5"/>
<path opacity="0.25" d="M291.996 192H287.996V188H291.996V192ZM283.996 192H279.996V188H283.996V192ZM275.996 192H271.996V188H275.996V192ZM267.996 192H263.996V188H267.996V192Z" fill="#1D5AB5"/>
<defs>
<linearGradient id="paint0_linear_2930_132102" x1="362.36" y1="330" x2="153.244" y2="330" gradientUnits="userSpaceOnUse">
<stop stop-color="#1D5AB5" stop-opacity="0"/>
<stop offset="1" stop-color="#1D5AB5"/>
</linearGradient>
<linearGradient id="paint1_linear_2930_132102" x1="362.36" y1="66" x2="153.244" y2="66" gradientUnits="userSpaceOnUse">
<stop stop-color="#1D5AB5" stop-opacity="0"/>
<stop offset="1" stop-color="#1D5AB5"/>
</linearGradient>
<linearGradient id="paint2_linear_2930_132102" x1="41.6361" y1="66" x2="250.752" y2="66" gradientUnits="userSpaceOnUse">
<stop stop-color="#1D5AB5" stop-opacity="0"/>
<stop offset="1" stop-color="#1D5AB5"/>
</linearGradient>
<linearGradient id="paint3_linear_2930_132102" x1="49.5561" y1="330" x2="248.332" y2="330" gradientUnits="userSpaceOnUse">
<stop stop-color="#1D5AB5" stop-opacity="0"/>
<stop offset="1" stop-color="#1D5AB5"/>
</linearGradient>
<linearGradient id="paint4_linear_2930_132102" x1="93.9961" y1="4" x2="93.9961" y2="179.468" gradientUnits="userSpaceOnUse">
<stop stop-color="#1D5AB5" stop-opacity="0"/>
<stop offset="1" stop-color="#1D5AB5"/>
</linearGradient>
<linearGradient id="paint5_linear_2930_132102" x1="309.992" y1="4" x2="309.992" y2="179.468" gradientUnits="userSpaceOnUse">
<stop stop-color="#1D5AB5" stop-opacity="0"/>
<stop offset="1" stop-color="#1D5AB5"/>
</linearGradient>
<linearGradient id="paint6_linear_2930_132102" x1="93.9961" y1="400" x2="93.9961" y2="55.56" gradientUnits="userSpaceOnUse">
<stop stop-color="#1D5AB5" stop-opacity="0"/>
<stop offset="1" stop-color="#1D5AB5"/>
</linearGradient>
<linearGradient id="paint7_linear_2930_132102" x1="309.992" y1="400" x2="309.992" y2="55.56" gradientUnits="userSpaceOnUse">
<stop stop-color="#1D5AB5" stop-opacity="0"/>
<stop offset="1" stop-color="#1D5AB5"/>
</linearGradient>
<linearGradient id="paint8_linear_2930_132102" x1="298.86" y1="238" x2="106.524" y2="238" gradientUnits="userSpaceOnUse">
<stop stop-color="#1D5AB5" stop-opacity="0"/>
<stop offset="1" stop-color="#1D5AB5"/>
</linearGradient>
<linearGradient id="paint9_linear_2930_132102" x1="13.7801" y1="238" x2="287.64" y2="238" gradientUnits="userSpaceOnUse">
<stop stop-color="#1D5AB5" stop-opacity="0"/>
<stop offset="1" stop-color="#1D5AB5"/>
</linearGradient>
<linearGradient id="paint10_linear_2930_132102" x1="145.996" y1="9.908" x2="145.996" y2="306.464" gradientUnits="userSpaceOnUse">
<stop stop-color="#1D5AB5" stop-opacity="0"/>
<stop offset="1" stop-color="#1D5AB5"/>
</linearGradient>
<linearGradient id="paint11_linear_2930_132102" x1="257.996" y1="9.624" x2="257.996" y2="262.104" gradientUnits="userSpaceOnUse">
<stop stop-color="#1D5AB5" stop-opacity="0"/>
<stop offset="1" stop-color="#1D5AB5"/>
</linearGradient>
<linearGradient id="paint12_linear_2930_132102" x1="257.996" y1="286.794" x2="257.996" y2="98.5342" gradientUnits="userSpaceOnUse">
<stop stop-color="#1D5AB5" stop-opacity="0"/>
<stop offset="1" stop-color="#1D5AB5"/>
</linearGradient>
<linearGradient id="paint13_linear_2930_132102" x1="145.996" y1="276.602" x2="145.996" y2="118.782" gradientUnits="userSpaceOnUse">
<stop stop-color="#1D5AB5" stop-opacity="0"/>
<stop offset="1" stop-color="#1D5AB5"/>
</linearGradient>
<linearGradient id="paint14_linear_2930_132102" x1="311.272" y1="150" x2="182.708" y2="150" gradientUnits="userSpaceOnUse">
<stop stop-color="#1D5AB5" stop-opacity="0"/>
<stop offset="1" stop-color="#1D5AB5"/>
</linearGradient>
<linearGradient id="paint15_linear_2930_132102" x1="14.2961" y1="150" x2="531.14" y2="150" gradientUnits="userSpaceOnUse">
<stop stop-color="#1D5AB5" stop-opacity="0"/>
<stop offset="1" stop-color="#1D5AB5"/>
</linearGradient>
</defs>
</svg>
