<svg width="400" height="400" viewBox="0 0 400 400" fill="none" xmlns="http://www.w3.org/2000/svg">
<path opacity="0.25" d="M60 320H56V316H60V320ZM60 312H56V308H60V312ZM60 304H56V300H60V304ZM60 296H56V292H60V296ZM60 288H56V284H60V288ZM60 280H56V276H60V280ZM60 272H56V268H60V272ZM60 264H56V260H60V264ZM60 256H56V252H60V256ZM60 248H56V244H60V248ZM60 240H56V236H60V240ZM60 232H56V228H60V232ZM60 224H56V220H60V224ZM60 216H56V212H60V216ZM60 208H56V204H60V208ZM60 200H56V196H60V200ZM60 192H56V188H60V192ZM60 184H56V180H60V184ZM60 176H56V172H60V176ZM60 168H56V164H60V168ZM60 160H56V156H60V160ZM60 152H56V148H60V152ZM60 144H56V140H60V144ZM60 136H56V132H60V136ZM60 128H56V124H60V128Z" fill="#1D5AB5"/>
<path opacity="0.25" d="M344 280H340V276H344V280ZM344 272H340V268H344V272ZM344 264H340V260H344V264ZM344 256H340V252H344V256ZM344 248H340V244H344V248ZM344 240H340V236H344V240ZM344 232H340V228H344V232ZM344 224H340V220H344V224ZM344 216H340V212H344V216ZM344 208H340V204H344V208ZM344 200H340V196H344V200ZM344 192H340V188H344V192ZM344 184H340V180H344V184ZM344 176H340V172H344V176ZM344 168H340V164H344V168ZM344 160H340V156H344V160ZM344 152H340V148H344V152ZM344 144H340V140H344V144ZM344 136H340V132H344V136ZM344 128H340V124H344V128ZM344 120H340V116H344V120ZM344 112H340V108H344V112ZM344 104H340V100H344V104ZM344 96H340V92H344V96ZM344 88H340V84H344V88ZM344 80H340V76H344V80Z" fill="#1D5AB5"/>
<path opacity="0.25" d="M228 368H224V364H228V368ZM220 368H216V364H220V368ZM212 368H208V364H212V368ZM204 368H200V364H204V368ZM196 368H192V364H196V368ZM188 368H184V364H188V368ZM180 368H176V364H180V368ZM172 368H168V364H172V368ZM164 368H160V364H164V368ZM156 368H152V364H156V368ZM148 368H144V364H148V368ZM140 368H136V364H140V368ZM132 368H128V364H132V368ZM124 368H120V364H124V368ZM116 368H112V364H116V368ZM108 368H104V364H108V368Z" fill="#1D5AB5"/>
<path opacity="0.25" d="M144 112H140V108H144V112ZM144 104H140V100H144V104ZM144 96H140V92H144V96ZM144 88H140V84H144V88ZM144 80H140V76H144V80Z" fill="#1D5AB5"/>
<path opacity="0.85" d="M96.0547 396V320H100.055V396H96.0547Z" fill="url(#paint0_linear_3654_131830)"/>
<path opacity="0.85" d="M104 324H24V328H104V324Z" fill="url(#paint1_linear_3654_131830)"/>
<path opacity="0.85" d="M96.0547 48V124H100.055V48H96.0547Z" fill="url(#paint2_linear_3654_131830)"/>
<path opacity="0.85" d="M164 0V76H168V0H164Z" fill="url(#paint3_linear_3654_131830)"/>
<path opacity="0.85" d="M104 116H24V120H104V116Z" fill="url(#paint4_linear_3654_131830)"/>
<path opacity="0.85" d="M303.945 0V76H299.945V0H303.945Z" fill="url(#paint5_linear_3654_131830)"/>
<path opacity="0.85" d="M376 72H296V68H376V72Z" fill="url(#paint6_linear_3654_131830)"/>
<path opacity="0.85" d="M204 68H116V72H204V68Z" fill="url(#paint7_linear_3654_131830)"/>
<path opacity="0.85" d="M303.945 356V280H299.945V356H303.945Z" fill="url(#paint8_linear_3654_131830)"/>
<path opacity="0.85" d="M376 284H296V288H376V284Z" fill="url(#paint9_linear_3654_131830)"/>
<path opacity="0.85" d="M235.945 396V320H231.945V396H235.945Z" fill="url(#paint10_linear_3654_131830)"/>
<path opacity="0.85" d="M308 324H228V328H308V324Z" fill="url(#paint11_linear_3654_131830)"/>
<path d="M300 72H168V284H300V72Z" fill="#F0F5FF"/>
<path d="M304 288H164V68H304V288ZM172 280H296V76H172V280Z" fill="#1D5AB5"/>
<path opacity="0.85" d="M192.242 89.2422L132.43 45.9822L134.774 42.7422L194.586 85.9982L192.242 89.2422Z" fill="url(#paint12_linear_3654_131830)"/>
<path d="M168 72V128H232V118L168.4 72H168Z" fill="#F0F5FF"/>
<path d="M236 132H164V68H169.696L236 115.956V132ZM172 124H228V120.044L172 79.544V124Z" fill="#1D5AB5"/>
<path opacity="0.3" d="M171.64 74.3203L168 77.9603V83.6403L174.92 76.7203L171.64 74.3203ZM178.2 79.0803L168 89.2803V94.9603L181.48 81.4803L178.2 79.0803ZM184.76 83.8403L168 100.6V106.24L188.04 86.2003L184.76 83.8403ZM191.32 88.6003L168 111.92V117.56L194.6 90.9603L191.32 88.6003ZM197.92 93.3203L168 123.24V128H168.88L201.16 95.7203L197.92 93.3203ZM204.48 98.0803L174.56 128H180.2L207.76 100.44L204.48 98.0803ZM211 102.84L185.84 128H191.52L214.32 105.2L211 102.84ZM217.6 107.56L197.16 128H202.84L220.88 109.96L217.6 107.56ZM224.16 112.32L208.48 128H214.12L227.44 114.68L224.16 112.32ZM230.72 117.08L219.8 128H225.44L232 121.44V118L230.72 117.08ZM231.12 128H232V127.12L231.12 128Z" fill="#1D5AB5"/>
<path d="M232 120H100V324H232V120Z" fill="#F0F5FF"/>
<path d="M236 328H96V116H236V328ZM104 320H228V124H104V320Z" fill="#1D5AB5"/>
<path d="M212 232H120V240H212V232Z" fill="#1D5AB5"/>
<path d="M212 260H120V268H212V260Z" fill="#1D5AB5"/>
<path d="M188 288H120V296H188V288Z" fill="#1D5AB5"/>
<path opacity="0.85" d="M284 116H228V120H284V116Z" fill="url(#paint13_linear_3654_131830)"/>
<path opacity="0.85" d="M236 148H180V152H236V148Z" fill="url(#paint14_linear_3654_131830)"/>
<path opacity="0.85" d="M152 148H96V152H152V148Z" fill="url(#paint15_linear_3654_131830)"/>
<path opacity="0.85" d="M124 124V180H120V124H124Z" fill="url(#paint16_linear_3654_131830)"/>
<path opacity="0.85" d="M212 124V180H208V124H212Z" fill="url(#paint17_linear_3654_131830)"/>
<path opacity="0.85" d="M236 208H180V212H236V208Z" fill="url(#paint18_linear_3654_131830)"/>
<path opacity="0.85" d="M152 208H96V212H152V208Z" fill="url(#paint19_linear_3654_131830)"/>
<path opacity="0.85" d="M232 64V140H236V64H232Z" fill="url(#paint20_linear_3654_131830)"/>
<path opacity="0.85" d="M120 324V160H124V324H120Z" fill="url(#paint21_linear_3654_131830)"/>
<path opacity="0.85" d="M208 324V160H212V324H208Z" fill="url(#paint22_linear_3654_131830)"/>
<path opacity="0.3" d="M206.6 210H210V206.6L206.6 210ZM195.28 210H200.92L210 200.92V195.28L195.28 210ZM183.96 210H189.64L210 189.64V183.96L183.96 210ZM172.64 210H178.32L210 178.32V172.64L172.64 210ZM161.36 210H167L210 167V161.36L161.36 210ZM150.04 210H155.68L210 155.68V150.04L150.04 210ZM198.72 150L138.72 210H144.36L204.36 150H198.72ZM187.4 150L127.4 210H133.04L193.04 150H187.4ZM176.08 150L122 204.08V209.76L181.76 150H176.08ZM164.76 150L122 192.76V198.44L170.44 150H164.76ZM153.48 150L122 181.48V187.12L159.12 150H153.48ZM142.16 150L122 170.16V175.8L147.8 150H142.16ZM130.84 150L122 158.84V164.48L136.48 150H130.84ZM122 150V153.16L125.16 150H122Z" fill="#1D5AB5"/>
<path d="M212 212H120V148H212V212ZM124 208H208V152H124V208Z" fill="#769ED6"/>
<defs>
<linearGradient id="paint0_linear_3654_131830" x1="98.0547" y1="395.232" x2="98.0547" y2="297.128" gradientUnits="userSpaceOnUse">
<stop stop-color="#1D5AB5" stop-opacity="0"/>
<stop offset="1" stop-color="#1D5AB5"/>
</linearGradient>
<linearGradient id="paint1_linear_3654_131830" x1="24.812" y1="326" x2="128.072" y2="326" gradientUnits="userSpaceOnUse">
<stop stop-color="#1D5AB5" stop-opacity="0"/>
<stop offset="1" stop-color="#1D5AB5"/>
</linearGradient>
<linearGradient id="paint2_linear_3654_131830" x1="98.0547" y1="48.768" x2="98.0547" y2="146.872" gradientUnits="userSpaceOnUse">
<stop stop-color="#1D5AB5" stop-opacity="0"/>
<stop offset="1" stop-color="#1D5AB5"/>
</linearGradient>
<linearGradient id="paint3_linear_3654_131830" x1="166" y1="0.768" x2="166" y2="98.872" gradientUnits="userSpaceOnUse">
<stop stop-color="#1D5AB5" stop-opacity="0"/>
<stop offset="1" stop-color="#1D5AB5"/>
</linearGradient>
<linearGradient id="paint4_linear_3654_131830" x1="24.812" y1="118" x2="128.072" y2="118" gradientUnits="userSpaceOnUse">
<stop stop-color="#1D5AB5" stop-opacity="0"/>
<stop offset="1" stop-color="#1D5AB5"/>
</linearGradient>
<linearGradient id="paint5_linear_3654_131830" x1="301.945" y1="0.768" x2="301.945" y2="98.872" gradientUnits="userSpaceOnUse">
<stop stop-color="#1D5AB5" stop-opacity="0"/>
<stop offset="1" stop-color="#1D5AB5"/>
</linearGradient>
<linearGradient id="paint6_linear_3654_131830" x1="375.188" y1="70" x2="271.928" y2="70" gradientUnits="userSpaceOnUse">
<stop stop-color="#1D5AB5" stop-opacity="0"/>
<stop offset="1" stop-color="#1D5AB5"/>
</linearGradient>
<linearGradient id="paint7_linear_3654_131830" x1="116.892" y1="70" x2="230.48" y2="70" gradientUnits="userSpaceOnUse">
<stop stop-color="#1D5AB5" stop-opacity="0"/>
<stop offset="1" stop-color="#1D5AB5"/>
</linearGradient>
<linearGradient id="paint8_linear_3654_131830" x1="301.945" y1="355.232" x2="301.945" y2="257.128" gradientUnits="userSpaceOnUse">
<stop stop-color="#1D5AB5" stop-opacity="0"/>
<stop offset="1" stop-color="#1D5AB5"/>
</linearGradient>
<linearGradient id="paint9_linear_3654_131830" x1="375.188" y1="286" x2="271.928" y2="286" gradientUnits="userSpaceOnUse">
<stop stop-color="#1D5AB5" stop-opacity="0"/>
<stop offset="1" stop-color="#1D5AB5"/>
</linearGradient>
<linearGradient id="paint10_linear_3654_131830" x1="233.945" y1="395.232" x2="233.945" y2="297.128" gradientUnits="userSpaceOnUse">
<stop stop-color="#1D5AB5" stop-opacity="0"/>
<stop offset="1" stop-color="#1D5AB5"/>
</linearGradient>
<linearGradient id="paint11_linear_3654_131830" x1="307.188" y1="326" x2="203.928" y2="326" gradientUnits="userSpaceOnUse">
<stop stop-color="#1D5AB5" stop-opacity="0"/>
<stop offset="1" stop-color="#1D5AB5"/>
</linearGradient>
<linearGradient id="paint12_linear_3654_131830" x1="132.874" y1="45.3262" x2="220.458" y2="104.406" gradientUnits="userSpaceOnUse">
<stop stop-color="#1D5AB5" stop-opacity="0"/>
<stop offset="1" stop-color="#1D5AB5"/>
</linearGradient>
<linearGradient id="paint13_linear_3654_131830" x1="283.432" y1="118" x2="211.148" y2="118" gradientUnits="userSpaceOnUse">
<stop stop-color="#1D5AB5" stop-opacity="0"/>
<stop offset="1" stop-color="#1D5AB5"/>
</linearGradient>
<linearGradient id="paint14_linear_3654_131830" x1="235.432" y1="150" x2="163.148" y2="150" gradientUnits="userSpaceOnUse">
<stop stop-color="#1D5AB5" stop-opacity="0"/>
<stop offset="1" stop-color="#1D5AB5"/>
</linearGradient>
<linearGradient id="paint15_linear_3654_131830" x1="96.568" y1="150" x2="168.852" y2="150" gradientUnits="userSpaceOnUse">
<stop stop-color="#1D5AB5" stop-opacity="0"/>
<stop offset="1" stop-color="#1D5AB5"/>
</linearGradient>
<linearGradient id="paint16_linear_3654_131830" x1="122" y1="124.568" x2="122" y2="196.852" gradientUnits="userSpaceOnUse">
<stop stop-color="#1D5AB5" stop-opacity="0"/>
<stop offset="1" stop-color="#1D5AB5"/>
</linearGradient>
<linearGradient id="paint17_linear_3654_131830" x1="210" y1="124.568" x2="210" y2="196.852" gradientUnits="userSpaceOnUse">
<stop stop-color="#1D5AB5" stop-opacity="0"/>
<stop offset="1" stop-color="#1D5AB5"/>
</linearGradient>
<linearGradient id="paint18_linear_3654_131830" x1="235.432" y1="210" x2="163.148" y2="210" gradientUnits="userSpaceOnUse">
<stop stop-color="#1D5AB5" stop-opacity="0"/>
<stop offset="1" stop-color="#1D5AB5"/>
</linearGradient>
<linearGradient id="paint19_linear_3654_131830" x1="96.568" y1="210" x2="168.852" y2="210" gradientUnits="userSpaceOnUse">
<stop stop-color="#1D5AB5" stop-opacity="0"/>
<stop offset="1" stop-color="#1D5AB5"/>
</linearGradient>
<linearGradient id="paint20_linear_3654_131830" x1="234" y1="64.768" x2="234" y2="162.872" gradientUnits="userSpaceOnUse">
<stop stop-color="#1D5AB5" stop-opacity="0"/>
<stop offset="1" stop-color="#1D5AB5"/>
</linearGradient>
<linearGradient id="paint21_linear_3654_131830" x1="122" y1="322.34" x2="122" y2="110.648" gradientUnits="userSpaceOnUse">
<stop stop-color="#1D5AB5" stop-opacity="0"/>
<stop offset="1" stop-color="#1D5AB5"/>
</linearGradient>
<linearGradient id="paint22_linear_3654_131830" x1="210" y1="322.34" x2="210" y2="110.648" gradientUnits="userSpaceOnUse">
<stop stop-color="#1D5AB5" stop-opacity="0"/>
<stop offset="1" stop-color="#1D5AB5"/>
</linearGradient>
</defs>
</svg>
