<svg width="400" height="400" viewBox="0 0 400 400" fill="none" xmlns="http://www.w3.org/2000/svg">
<path opacity="0.25" d="M328 332H324V328H328V332ZM320 332H316V328H320V332ZM312 332H308V328H312V332ZM304 332H300V328H304V332ZM296 332H292V328H296V332ZM288 332H284V328H288V332ZM280 332H276V328H280V332ZM272 332H268V328H272V332ZM264 332H260V328H264V332ZM256 332H252V328H256V332Z" fill="#1D5AB5"/>
<path opacity="0.25" d="M244 352H240V348H244V352ZM236 352H232V348H236V352ZM228 352H224V348H228V352ZM220 352H216V348H220V352ZM212 352H208V348H212V352ZM204 352H200V348H204V352ZM196 352H192V348H196V352ZM188 352H184V348H188V352ZM180 352H176V348H180V352ZM172 352H168V348H172V352ZM164 352H160V348H164V352Z" fill="#1D5AB5"/>
<path opacity="0.25" d="M288 56H284V52H288V56ZM280 56H276V52H280V56ZM272 56H268V52H272V56ZM264 56H260V52H264V56ZM256 56H252V52H256V56ZM248 56H244V52H248V56ZM240 56H236V52H240V56ZM232 56H228V52H232V56ZM224 56H220V52H224V56ZM216 56H212V52H216V56ZM208 56H204V52H208V56ZM200 56H196V52H200V56ZM192 56H188V52H192V56ZM184 56H180V52H184V56ZM176 56H172V52H176V56ZM168 56H164V52H168V56ZM160 56H156V52H160V56ZM152 56H148V52H152V56ZM144 56H140V52H144V56ZM136 56H132V52H136V56ZM128 56H124V52H128V56ZM120 56H116V52H120V56Z" fill="#1D5AB5"/>
<path opacity="0.25" d="M360 296H356V292H360V296ZM360 288H356V284H360V288ZM360 280H356V276H360V280ZM360 272H356V268H360V272ZM360 264H356V260H360V264ZM360 256H356V252H360V256ZM360 248H356V244H360V248ZM360 240H356V236H360V240ZM360 232H356V228H360V232ZM360 224H356V220H360V224ZM360 216H356V212H360V216Z" fill="#1D5AB5"/>
<path opacity="0.25" d="M44 296H40V292H44V296ZM44 288H40V284H44V288ZM44 280H40V276H44V280ZM44 272H40V268H44V272ZM44 264H40V260H44V264ZM44 256H40V252H44V256ZM44 248H40V244H44V248ZM44 240H40V236H44V240ZM44 232H40V228H44V232ZM44 224H40V220H44V224ZM44 216H40V212H44V216ZM44 208H40V204H44V208ZM44 200H40V196H44V200ZM44 192H40V188H44V192ZM44 184H40V180H44V184ZM44 176H40V172H44V176ZM44 168H40V164H44V168ZM44 160H40V156H44V160ZM44 152H40V148H44V152ZM44 144H40V140H44V144ZM44 136H40V132H44V136ZM44 128H40V124H44V128ZM44 120H40V116H44V120ZM44 112H40V108H44V112ZM44 104H40V100H44V104ZM44 96H40V92H44V96ZM44 88H40V84H44V88Z" fill="#1D5AB5"/>
<path opacity="0.25" d="M200 296H196V292H200V296ZM200 288H196V284H200V288ZM200 280H196V276H200V280ZM200 272H196V268H200V272ZM200 264H196V260H200V264ZM200 256H196V252H200V256ZM200 248H196V244H200V248ZM200 240H196V236H200V240ZM200 232H196V228H200V232ZM200 224H196V220H200V224ZM200 216H196V212H200V216ZM200 208H196V204H200V208ZM200 200H196V196H200V200ZM200 192H196V188H200V192ZM200 184H196V180H200V184Z" fill="#1D5AB5"/>
<path opacity="0.85" d="M240 176V136H244V176H240Z" fill="url(#paint0_linear_3047_131667)"/>
<path opacity="0.85" d="M156 176V136H160V176H156Z" fill="url(#paint1_linear_3047_131667)"/>
<path opacity="0.85" d="M244 368V276H248V368H244Z" fill="url(#paint2_linear_3047_131667)"/>
<path opacity="0.85" d="M328 368V276H332V368H328Z" fill="url(#paint3_linear_3047_131667)"/>
<path opacity="0.85" d="M68 368V276H72V368H68Z" fill="url(#paint4_linear_3047_131667)"/>
<path opacity="0.85" d="M152 368V276H156V368H152Z" fill="url(#paint5_linear_3047_131667)"/>
<path opacity="0.85" d="M235.105 346.427L193.789 325.787L195.581 322.211L236.897 342.851L235.105 346.427Z" fill="url(#paint6_linear_3047_131667)"/>
<path opacity="0.85" d="M164.897 346.427L206.213 325.787L204.421 322.211L163.105 342.851L164.897 346.427Z" fill="url(#paint7_linear_3047_131667)"/>
<path d="M200.001 328.891L125.561 291.707L129.137 284.551L200.001 319.951L270.865 284.551L274.441 291.707L200.001 328.891Z" fill="#1D5AB5"/>
<path d="M288 208L248 228V280L288 300L328 280V228L288 208Z" fill="#F0F5FF"/>
<path d="M288 304.471L244 282.471V225.527L288 203.527L332 225.527V282.471L288 304.471ZM252 277.527L288 295.527L324 277.527V230.471L288 212.471L252 230.471V277.527Z" fill="#1D5AB5"/>
<path d="M112 208L152 228V280L112 300L72 280V228L112 208Z" fill="#F0F5FF"/>
<path d="M112 304.471L68 282.471V225.527L112 203.527L156 225.527V282.471L112 304.471ZM76 277.527L112 295.527L148 277.527V230.471L112 212.471L76 230.471V277.527Z" fill="#1D5AB5"/>
<path opacity="0.85" d="M328.168 165.827L283.188 145.863L284.812 142.207L329.792 162.171L328.168 165.827Z" fill="url(#paint8_linear_3047_131667)"/>
<path d="M292 207.998H284V150.598L238.816 130.542L242.06 123.23L292 145.398V207.998Z" fill="#1D5AB5"/>
<path d="M116 207.998H108V145.398L157.94 123.23L161.184 130.542L116 150.598V207.998Z" fill="#1D5AB5"/>
<path d="M200 80L160 100V152L200 172L240 152V100L200 80Z" fill="#F0F5FF"/>
<path d="M200 176.471L156 154.471V97.5273L200 75.5273L244 97.5273V154.471L200 176.471ZM164 149.527L200 167.527L236 149.527V102.471L200 84.4713L164 102.471V149.527Z" fill="#1D5AB5"/>
<path opacity="0.85" d="M327.988 176.004V275.956H331.992V176.004H327.988Z" fill="url(#paint9_linear_3047_131667)"/>
<path opacity="0.85" d="M288 36V168H292V36H288Z" fill="url(#paint10_linear_3047_131667)"/>
<path opacity="0.85" d="M71.831 165.827L116.811 145.863L115.187 142.207L70.207 162.171L71.831 165.827Z" fill="url(#paint11_linear_3047_131667)"/>
<path opacity="0.85" d="M112 36V168H108V36H112Z" fill="url(#paint12_linear_3047_131667)"/>
<path opacity="0.85" d="M243.988 176.004V275.956H247.992V176.004H243.988Z" fill="url(#paint13_linear_3047_131667)"/>
<path opacity="0.85" d="M152 174.066V274.022H156V174.066H152Z" fill="url(#paint14_linear_3047_131667)"/>
<path opacity="0.85" d="M67.9883 176.004V275.956H71.9923V176.004H67.9883Z" fill="url(#paint15_linear_3047_131667)"/>
<path opacity="0.85" d="M380 304H288V300H380V304Z" fill="url(#paint16_linear_3047_131667)"/>
<path opacity="0.85" d="M288 300.004H168V304.004H288V300.004Z" fill="url(#paint17_linear_3047_131667)"/>
<path opacity="0.85" d="M200 172H128V176H200V172Z" fill="url(#paint18_linear_3047_131667)"/>
<path opacity="0.85" d="M272 176H200V172H272V176Z" fill="url(#paint19_linear_3047_131667)"/>
<path opacity="0.85" d="M200 76H16V80H200V76Z" fill="url(#paint20_linear_3047_131667)"/>
<path opacity="0.85" d="M348 80.0078H200V76.0078H348V80.0078Z" fill="url(#paint21_linear_3047_131667)"/>
<path opacity="0.85" d="M380 208H288V204H380V208Z" fill="url(#paint22_linear_3047_131667)"/>
<path opacity="0.85" d="M288 204.004H216V208.004H288V204.004Z" fill="url(#paint23_linear_3047_131667)"/>
<path opacity="0.85" d="M112 300H20V304H112V300Z" fill="url(#paint24_linear_3047_131667)"/>
<path opacity="0.85" d="M152 304H112V300H152V304Z" fill="url(#paint25_linear_3047_131667)"/>
<path opacity="0.85" d="M112 204H48V208H112V204Z" fill="url(#paint26_linear_3047_131667)"/>
<path opacity="0.85" d="M184 208.004H112V204.004H184V208.004Z" fill="url(#paint27_linear_3047_131667)"/>
<path opacity="0.85" d="M239.984 59.9336V135.934H243.984V59.9336H239.984Z" fill="url(#paint28_linear_3047_131667)"/>
<path opacity="0.85" d="M155.984 59.9336V135.934H159.984V59.9336H155.984Z" fill="url(#paint29_linear_3047_131667)"/>
<path opacity="0.3" d="M277.52 279.118L282 281.358L314 265.358V260.878L277.52 279.118ZM268.6 274.678L273.08 276.918L314 256.438V251.958L268.6 274.678ZM262 269.038V271.358L264.12 272.398L314 247.478V243.038L262 269.038ZM311.44 235.358L262 260.078V264.558L314 238.558V236.638L311.44 235.358ZM302.52 230.918L262 251.158V255.598L306.96 233.118L302.52 230.918ZM293.56 226.398L262 242.198V246.678L298.04 228.638L293.56 226.398Z" fill="#1D5AB5"/>
<path d="M288 286.582L260 272.582V235.414L288 221.414L316 235.414V272.582L288 286.582ZM264 270.11L288 282.11L312 270.11V237.886L288 225.886L264 237.886V270.11Z" fill="#769ED6"/>
<path opacity="0.3" d="M101.52 279.118L106 281.358L138 265.358V260.878L101.52 279.118ZM92.6 274.678L97.08 276.918L138 256.438V251.958L92.6 274.678ZM86 269.038V271.358L88.12 272.398L138 247.478V243.038L86 269.038ZM135.44 235.358L86 260.078V264.558L138 238.558V236.638L135.44 235.358ZM126.52 230.918L86 251.158V255.598L130.96 233.118L126.52 230.918ZM117.56 226.398L86 242.198V246.678L122.04 228.638L117.56 226.398Z" fill="#1D5AB5"/>
<path d="M112 286.582L84 272.582V235.414L112 221.414L140 235.414V272.582L112 286.582ZM88 270.11L112 282.11L136 270.11V237.886L112 225.886L88 237.886V270.11Z" fill="#769ED6"/>
<path opacity="0.3" d="M189.52 151.118L194 153.358L226 137.358V132.878L189.52 151.118ZM180.6 146.678L185.08 148.918L226 128.438V123.958L180.6 146.678ZM174 141.038V143.358L176.12 144.398L226 119.478V115.038L174 141.038ZM223.44 107.358L174 132.078V136.558L226 110.558V108.638L223.44 107.358ZM214.52 102.918L174 123.158V127.598L218.96 105.118L214.52 102.918ZM205.56 98.3984L174 114.198V118.678L210.04 100.638L205.56 98.3984Z" fill="#1D5AB5"/>
<path d="M200 158.582L172 144.582V107.414L200 93.4141L228 107.414V144.582L200 158.582ZM176 142.11L200 154.11L224 142.11V109.886L200 97.8861L176 109.886V142.11Z" fill="#769ED6"/>
<defs>
<linearGradient id="paint0_linear_3047_131667" x1="242" y1="175.596" x2="242" y2="123.964" gradientUnits="userSpaceOnUse">
<stop stop-color="#1D5AB5" stop-opacity="0"/>
<stop offset="1" stop-color="#1D5AB5"/>
</linearGradient>
<linearGradient id="paint1_linear_3047_131667" x1="158" y1="175.596" x2="158" y2="123.964" gradientUnits="userSpaceOnUse">
<stop stop-color="#1D5AB5" stop-opacity="0"/>
<stop offset="1" stop-color="#1D5AB5"/>
</linearGradient>
<linearGradient id="paint2_linear_3047_131667" x1="246" y1="367.068" x2="246" y2="204.296" gradientUnits="userSpaceOnUse">
<stop stop-color="#1D5AB5" stop-opacity="0"/>
<stop offset="1" stop-color="#1D5AB5"/>
</linearGradient>
<linearGradient id="paint3_linear_3047_131667" x1="330" y1="367.068" x2="330" y2="204.296" gradientUnits="userSpaceOnUse">
<stop stop-color="#1D5AB5" stop-opacity="0"/>
<stop offset="1" stop-color="#1D5AB5"/>
</linearGradient>
<linearGradient id="paint4_linear_3047_131667" x1="70" y1="367.068" x2="70" y2="204.296" gradientUnits="userSpaceOnUse">
<stop stop-color="#1D5AB5" stop-opacity="0"/>
<stop offset="1" stop-color="#1D5AB5"/>
</linearGradient>
<linearGradient id="paint5_linear_3047_131667" x1="154" y1="367.068" x2="154" y2="204.296" gradientUnits="userSpaceOnUse">
<stop stop-color="#1D5AB5" stop-opacity="0"/>
<stop offset="1" stop-color="#1D5AB5"/>
</linearGradient>
<linearGradient id="paint6_linear_3047_131667" x1="235.933" y1="344.811" x2="174.025" y2="313.267" gradientUnits="userSpaceOnUse">
<stop stop-color="#1D5AB5" stop-opacity="0"/>
<stop offset="1" stop-color="#1D5AB5"/>
</linearGradient>
<linearGradient id="paint7_linear_3047_131667" x1="164.069" y1="344.811" x2="225.977" y2="313.267" gradientUnits="userSpaceOnUse">
<stop stop-color="#1D5AB5" stop-opacity="0"/>
<stop offset="1" stop-color="#1D5AB5"/>
</linearGradient>
<linearGradient id="paint8_linear_3047_131667" x1="328.819" y1="164.431" x2="264.811" y2="134.583" gradientUnits="userSpaceOnUse">
<stop stop-color="#1D5AB5" stop-opacity="0"/>
<stop offset="1" stop-color="#1D5AB5"/>
</linearGradient>
<linearGradient id="paint9_linear_3047_131667" x1="329.992" y1="178.151" x2="329.992" y2="307.166" gradientUnits="userSpaceOnUse">
<stop stop-color="#1D5AB5" stop-opacity="0"/>
<stop offset="1" stop-color="#1D5AB5"/>
</linearGradient>
<linearGradient id="paint10_linear_3047_131667" x1="290.004" y1="38.4808" x2="290.004" y2="208.858" gradientUnits="userSpaceOnUse">
<stop stop-color="#1D5AB5" stop-opacity="0"/>
<stop offset="1" stop-color="#1D5AB5"/>
</linearGradient>
<linearGradient id="paint11_linear_3047_131667" x1="71.179" y1="164.431" x2="135.187" y2="134.583" gradientUnits="userSpaceOnUse">
<stop stop-color="#1D5AB5" stop-opacity="0"/>
<stop offset="1" stop-color="#1D5AB5"/>
</linearGradient>
<linearGradient id="paint12_linear_3047_131667" x1="110" y1="38.4808" x2="110" y2="208.858" gradientUnits="userSpaceOnUse">
<stop stop-color="#1D5AB5" stop-opacity="0"/>
<stop offset="1" stop-color="#1D5AB5"/>
</linearGradient>
<linearGradient id="paint13_linear_3047_131667" x1="245.992" y1="178.151" x2="245.992" y2="307.166" gradientUnits="userSpaceOnUse">
<stop stop-color="#1D5AB5" stop-opacity="0"/>
<stop offset="1" stop-color="#1D5AB5"/>
</linearGradient>
<linearGradient id="paint14_linear_3047_131667" x1="154.004" y1="176.218" x2="154.004" y2="305.229" gradientUnits="userSpaceOnUse">
<stop stop-color="#1D5AB5" stop-opacity="0"/>
<stop offset="1" stop-color="#1D5AB5"/>
</linearGradient>
<linearGradient id="paint15_linear_3047_131667" x1="69.9923" y1="178.151" x2="69.9923" y2="307.166" gradientUnits="userSpaceOnUse">
<stop stop-color="#1D5AB5" stop-opacity="0"/>
<stop offset="1" stop-color="#1D5AB5"/>
</linearGradient>
<linearGradient id="paint16_linear_3047_131667" x1="379.068" y1="302" x2="241.048" y2="302" gradientUnits="userSpaceOnUse">
<stop stop-color="#1D5AB5" stop-opacity="0"/>
<stop offset="1" stop-color="#1D5AB5"/>
</linearGradient>
<linearGradient id="paint17_linear_3047_131667" x1="168.928" y1="302.153" x2="347.366" y2="302.153" gradientUnits="userSpaceOnUse">
<stop stop-color="#1D5AB5" stop-opacity="0"/>
<stop offset="1" stop-color="#1D5AB5"/>
</linearGradient>
<linearGradient id="paint18_linear_3047_131667" x1="128.439" y1="174.151" x2="260.232" y2="174.151" gradientUnits="userSpaceOnUse">
<stop stop-color="#1D5AB5" stop-opacity="0"/>
<stop offset="1" stop-color="#1D5AB5"/>
</linearGradient>
<linearGradient id="paint19_linear_3047_131667" x1="272.142" y1="174.151" x2="149.308" y2="174.151" gradientUnits="userSpaceOnUse">
<stop stop-color="#1D5AB5" stop-opacity="0"/>
<stop offset="1" stop-color="#1D5AB5"/>
</linearGradient>
<linearGradient id="paint20_linear_3047_131667" x1="17.567" y1="78.1498" x2="281.924" y2="78.1498" gradientUnits="userSpaceOnUse">
<stop stop-color="#1D5AB5" stop-opacity="0"/>
<stop offset="1" stop-color="#1D5AB5"/>
</linearGradient>
<linearGradient id="paint21_linear_3047_131667" x1="347.378" y1="78.1576" x2="130.463" y2="78.1576" gradientUnits="userSpaceOnUse">
<stop stop-color="#1D5AB5" stop-opacity="0"/>
<stop offset="1" stop-color="#1D5AB5"/>
</linearGradient>
<linearGradient id="paint22_linear_3047_131667" x1="379.068" y1="206" x2="239.744" y2="206" gradientUnits="userSpaceOnUse">
<stop stop-color="#1D5AB5" stop-opacity="0"/>
<stop offset="1" stop-color="#1D5AB5"/>
</linearGradient>
<linearGradient id="paint23_linear_3047_131667" x1="216.445" y1="206.152" x2="346.338" y2="206.152" gradientUnits="userSpaceOnUse">
<stop stop-color="#1D5AB5" stop-opacity="0"/>
<stop offset="1" stop-color="#1D5AB5"/>
</linearGradient>
<linearGradient id="paint24_linear_3047_131667" x1="20.932" y1="302" x2="167.908" y2="302" gradientUnits="userSpaceOnUse">
<stop stop-color="#1D5AB5" stop-opacity="0"/>
<stop offset="1" stop-color="#1D5AB5"/>
</linearGradient>
<linearGradient id="paint25_linear_3047_131667" x1="152.459" y1="302.149" x2="78.6057" y2="302.149" gradientUnits="userSpaceOnUse">
<stop stop-color="#1D5AB5" stop-opacity="0"/>
<stop offset="1" stop-color="#1D5AB5"/>
</linearGradient>
<linearGradient id="paint26_linear_3047_131667" x1="48.648" y1="206" x2="152.512" y2="206" gradientUnits="userSpaceOnUse">
<stop stop-color="#1D5AB5" stop-opacity="0"/>
<stop offset="1" stop-color="#1D5AB5"/>
</linearGradient>
<linearGradient id="paint27_linear_3047_131667" x1="184.137" y1="206.152" x2="71.2941" y2="206.152" gradientUnits="userSpaceOnUse">
<stop stop-color="#1D5AB5" stop-opacity="0"/>
<stop offset="1" stop-color="#1D5AB5"/>
</linearGradient>
<linearGradient id="paint28_linear_3047_131667" x1="241.984" y1="60.538" x2="241.984" y2="158.639" gradientUnits="userSpaceOnUse">
<stop stop-color="#1D5AB5" stop-opacity="0"/>
<stop offset="1" stop-color="#1D5AB5"/>
</linearGradient>
<linearGradient id="paint29_linear_3047_131667" x1="157.984" y1="60.538" x2="157.984" y2="158.639" gradientUnits="userSpaceOnUse">
<stop stop-color="#1D5AB5" stop-opacity="0"/>
<stop offset="1" stop-color="#1D5AB5"/>
</linearGradient>
</defs>
</svg>
