<svg width="400" height="400" viewBox="0 0 400 400" fill="none" xmlns="http://www.w3.org/2000/svg">
<path opacity="0.85" d="M392 72H204V76H392V72Z" fill="url(#paint0_linear_3654_131888)"/>
<path opacity="0.85" d="M200 72H12V76H200V72Z" fill="url(#paint1_linear_3654_131888)"/>
<path opacity="0.85" d="M328 388V200H324V388H328Z" fill="url(#paint2_linear_3654_131888)"/>
<path opacity="0.85" d="M328 8V196H324V8H328Z" fill="url(#paint3_linear_3654_131888)"/>
<path opacity="0.85" d="M200 320H12V324H200V320Z" fill="url(#paint4_linear_3654_131888)"/>
<path opacity="0.85" d="M392 324H204V320H392V324Z" fill="url(#paint5_linear_3654_131888)"/>
<path opacity="0.85" d="M76 8V196H80V8H76Z" fill="url(#paint6_linear_3654_131888)"/>
<path opacity="0.85" d="M76 388V200H80V388H76Z" fill="url(#paint7_linear_3654_131888)"/>
<path opacity="0.25" d="M320 368H316V364H320V368ZM312 368H308V364H312V368ZM304 368H300V364H304V368ZM296 368H292V364H296V368ZM288 368H284V364H288V368ZM280 368H276V364H280V368ZM272 368H268V364H272V368ZM264 368H260V364H264V368ZM256 368H252V364H256V368ZM248 368H244V364H248V368ZM240 368H236V364H240V368ZM232 368H228V364H232V368ZM224 368H220V364H224V368ZM216 368H212V364H216V368ZM208 368H204V364H208V368ZM200 368H196V364H200V368ZM192 368H188V364H192V368ZM184 368H180V364H184V368ZM176 368H172V364H176V368ZM168 368H164V364H168V368ZM160 368H156V364H160V368ZM152 368H148V364H152V368ZM144 368H140V364H144V368ZM136 368H132V364H136V368ZM128 368H124V364H128V368ZM120 368H116V364H120V368ZM112 368H108V364H112V368ZM104 368H100V364H104V368ZM96 368H92V364H96V368ZM88 368H84V364H88V368Z" fill="#1D5AB5"/>
<path opacity="0.25" d="M40 316H36V312H40V316ZM40 308H36V304H40V308ZM40 300H36V296H40V300ZM40 292H36V288H40V292ZM40 284H36V280H40V284ZM40 276H36V272H40V276ZM40 268H36V264H40V268ZM40 260H36V256H40V260ZM40 252H36V248H40V252ZM40 244H36V240H40V244ZM40 236H36V232H40V236ZM40 228H36V224H40V228ZM40 220H36V216H40V220ZM40 212H36V208H40V212ZM40 204H36V200H40V204ZM40 196H36V192H40V196ZM40 188H36V184H40V188ZM40 180H36V176H40V180ZM40 172H36V168H40V172ZM40 164H36V160H40V164ZM40 156H36V152H40V156ZM40 148H36V144H40V148ZM40 140H36V136H40V140ZM40 132H36V128H40V132ZM40 124H36V120H40V124ZM40 116H36V112H40V116ZM40 108H36V104H40V108ZM40 100H36V96H40V100ZM40 92H36V88H40V92ZM40 84H36V80H40V84Z" fill="#1D5AB5"/>
<path d="M202 320C269.379 320 324 265.379 324 198C324 130.621 269.379 76 202 76C134.621 76 80 130.621 80 198C80 265.379 134.621 320 202 320Z" fill="#F0F5FF"/>
<path opacity="0.85" d="M320 199.998V195.998H279.96C279.776 180.702 277.536 166.714 274.068 154.158C299.16 149.682 311.936 144.214 312.812 143.826L311.196 140.17C310.984 140.262 298.156 145.734 272.92 150.218C268.464 135.53 262.416 122.906 256.224 112.522C270.072 108.366 277.624 103.958 278.204 103.614L276.144 100.186C276.004 100.27 268.28 104.754 254.02 108.926C241.688 89.3384 229.552 78.6944 229.304 78.4784L226.704 81.5184C226.94 81.7224 238.284 91.6744 250.028 110.034C242.796 111.942 234.136 113.674 224.136 114.774C219.28 90.6704 213.952 77.4704 213.852 77.2344L210.156 78.7584C210.252 78.9904 215.4 91.7704 220.144 115.178C214.472 115.686 208.448 115.998 202 115.998C195.552 115.998 189.528 115.686 183.86 115.182C188.604 91.7744 193.752 78.9944 193.848 78.7624L190.152 77.2384C190.052 77.4744 184.728 90.6744 179.868 114.778C169.872 113.678 161.22 111.95 153.992 110.042C165.732 91.6864 177.064 81.7224 177.304 81.5184L174.7 78.4824C174.452 78.6944 162.32 89.3424 149.984 108.93C135.724 104.758 128 100.274 127.86 100.19L125.8 103.618C126.38 103.966 133.932 108.37 147.78 112.526C141.588 122.906 135.54 135.534 131.084 150.218C105.844 145.734 93.016 140.262 92.804 140.17L91.188 143.826C92.064 144.214 104.84 149.682 129.932 154.158C126.464 166.714 124.224 180.702 124.04 195.998H80V199.998H124.04C124.224 215.294 126.464 229.282 129.932 241.838C104.84 246.314 92.064 251.782 91.192 252.17L92.808 255.826C93.02 255.734 105.824 250.254 131.084 245.77C135.54 260.462 141.588 273.09 147.78 283.474C133.932 287.63 126.38 292.038 125.8 292.382L127.86 295.81C128 295.726 135.724 291.242 149.984 287.07C162.316 306.658 174.452 317.302 174.7 317.514L177.304 314.478C177.064 314.274 165.732 304.31 153.992 285.954C161.22 284.046 169.876 282.318 179.868 281.218C184.724 305.322 190.052 318.522 190.152 318.758L193.848 317.234C193.752 317.002 188.604 304.222 183.86 280.814C189.528 280.31 195.552 279.998 202 279.998C208.448 279.998 214.472 280.31 220.14 280.814C215.396 304.222 210.248 317.002 210.152 317.234L213.848 318.758C213.948 318.522 219.272 305.322 224.132 281.218C234.128 282.318 242.78 284.046 250.008 285.954C238.268 304.314 226.932 314.274 226.696 314.478L229.3 317.514C229.548 317.302 241.684 306.654 254.016 287.07C268.276 291.242 276 295.726 276.14 295.81L278.2 292.382C277.62 292.034 270.068 287.63 256.22 283.474C262.412 273.094 268.46 260.466 272.916 245.778C298.156 250.262 310.98 255.734 311.192 255.826L312.808 252.17C311.932 251.782 299.16 246.314 274.068 241.838C277.536 229.282 279.776 215.294 279.96 199.998H320ZM275.96 195.998H231.984C231.928 182.718 231.332 170.406 230.376 159.158C245.832 158.246 259.084 156.67 270.128 154.846C273.56 167.174 275.776 180.934 275.96 195.998ZM176.016 195.998C176.072 182.79 176.664 170.554 177.616 159.386C185.24 159.766 193.336 159.998 202 159.998C210.664 159.998 218.76 159.766 226.384 159.386C227.336 170.554 227.928 182.79 227.984 195.998H176.016ZM227.984 199.998C227.928 213.206 227.336 225.442 226.384 236.61C218.76 236.23 210.664 235.998 202 235.998C193.336 235.998 185.24 236.23 177.616 236.61C176.664 225.442 176.072 213.206 176.016 199.998H227.984ZM252.276 113.662C258.436 123.846 264.5 136.326 268.964 150.91C258.092 152.698 245.084 154.246 230.008 155.15C228.696 141.286 226.868 129.102 224.904 118.738C235.564 117.57 244.732 115.71 252.276 113.662ZM202 119.998C208.748 119.998 215.024 119.67 220.92 119.142C222.88 129.422 224.708 141.554 226.016 155.386C218.496 155.766 210.52 155.998 202 155.998C193.48 155.998 185.504 155.766 177.984 155.382C179.296 141.55 181.124 129.418 183.08 119.142C188.976 119.67 195.252 119.998 202 119.998ZM151.74 113.666C159.28 115.71 168.444 117.57 179.096 118.742C177.132 129.106 175.304 141.29 173.992 155.154C158.924 154.25 145.916 152.702 135.048 150.914C139.512 136.334 145.58 123.854 151.74 113.666ZM133.88 154.846C144.924 156.67 158.172 158.246 173.624 159.158C172.668 170.406 172.072 182.718 172.016 195.998H128.04C128.228 180.938 130.444 167.178 133.88 154.846ZM128.04 199.998H172.012C172.068 213.278 172.664 225.59 173.62 236.838C158.168 237.75 144.92 239.326 133.876 241.15C130.444 228.818 128.228 215.058 128.04 199.998ZM151.74 282.33C145.58 272.142 139.512 259.658 135.044 245.074C145.908 243.29 158.916 241.742 173.992 240.842C175.304 254.706 177.132 266.894 179.096 277.254C168.44 278.426 159.28 280.286 151.74 282.33ZM202 275.998C195.252 275.998 188.976 276.326 183.08 276.854C181.12 266.574 179.292 254.442 177.98 240.61C185.504 240.23 193.48 239.998 202 239.998C210.52 239.998 218.496 240.23 226.016 240.614C224.704 254.446 222.876 266.578 220.92 276.858C215.024 276.326 208.748 275.998 202 275.998ZM252.26 282.33C244.72 280.286 235.556 278.426 224.904 277.254C226.868 266.89 228.696 254.706 230.008 240.842C245.076 241.746 258.084 243.294 268.952 245.082C264.488 259.662 258.42 272.142 252.26 282.33ZM270.12 241.15C259.076 239.326 245.828 237.754 230.376 236.838C231.332 225.59 231.928 213.278 231.984 199.998H275.96C275.772 215.058 273.556 228.818 270.12 241.15Z" fill="url(#paint8_linear_3654_131888)"/>
<path d="M202 324C132.524 324 76 267.476 76 198C76 128.524 132.524 72 202 72C271.476 72 328 128.524 328 198C328 267.476 271.476 324 202 324ZM202 80C136.932 80 84 132.932 84 198C84 263.068 136.932 316 202 316C267.068 316 320 263.068 320 198C320 132.932 267.068 80 202 80Z" fill="#1D5AB5"/>
<path opacity="0.25" d="M204 360H200V356H204V360ZM204 352H200V348H204V352ZM204 344H200V340H204V344ZM204 336H200V332H204V336ZM204 328H200V324H204V328ZM204 320H200V316H204V320ZM204 312H200V308H204V312ZM204 304H200V300H204V304ZM204 296H200V292H204V296ZM204 288H200V284H204V288ZM204 272H200V268H204V272ZM204 264H200V260H204V264ZM204 256H200V252H204V256ZM204 248H200V244H204V248ZM204 232H200V228H204V232ZM204 224H200V220H204V224ZM204 216H200V212H204V216ZM204 208H200V204H204V208ZM204 192H200V188H204V192ZM204 184H200V180H204V184ZM204 176H200V172H204V176ZM204 168H200V164H204V168ZM204 152H200V148H204V152ZM204 144H200V140H204V144ZM204 136H200V132H204V136ZM204 128H200V124H204V128ZM204 112H200V108H204V112ZM204 104H200V100H204V104ZM204 96H200V92H204V96ZM204 88H200V84H204V88Z" fill="#1D5AB5"/>
<path opacity="0.25" d="M200 396H204V400H200V396ZM200 388H204V392H200V388ZM200 380H204V384H200V380ZM200 372H204V376H200V372Z" fill="url(#paint9_linear_3654_131888)"/>
<path opacity="0.25" d="M204 8H200V4H204V8ZM204 16H200V12H204V16ZM204 24H200V20H204V24ZM204 32H200V28H204V32ZM204 40H200V36H204V40ZM204 48H200V44H204V48ZM204 56H200V52H204V56ZM204 64H200V60H204V64ZM204 72H200V68H204V72Z" fill="url(#paint10_linear_3654_131888)"/>
<defs>
<linearGradient id="paint0_linear_3654_131888" x1="389.696" y1="74" x2="180.88" y2="74" gradientUnits="userSpaceOnUse">
<stop stop-color="#1D5AB5" stop-opacity="0"/>
<stop offset="1" stop-color="#1D5AB5"/>
</linearGradient>
<linearGradient id="paint1_linear_3654_131888" x1="14.304" y1="74" x2="223.12" y2="74" gradientUnits="userSpaceOnUse">
<stop stop-color="#1D5AB5" stop-opacity="0"/>
<stop offset="1" stop-color="#1D5AB5"/>
</linearGradient>
<linearGradient id="paint2_linear_3654_131888" x1="326" y1="385.696" x2="326" y2="176.88" gradientUnits="userSpaceOnUse">
<stop stop-color="#1D5AB5" stop-opacity="0"/>
<stop offset="1" stop-color="#1D5AB5"/>
</linearGradient>
<linearGradient id="paint3_linear_3654_131888" x1="326" y1="10.304" x2="326" y2="219.12" gradientUnits="userSpaceOnUse">
<stop stop-color="#1D5AB5" stop-opacity="0"/>
<stop offset="1" stop-color="#1D5AB5"/>
</linearGradient>
<linearGradient id="paint4_linear_3654_131888" x1="14.304" y1="322" x2="223.12" y2="322" gradientUnits="userSpaceOnUse">
<stop stop-color="#1D5AB5" stop-opacity="0"/>
<stop offset="1" stop-color="#1D5AB5"/>
</linearGradient>
<linearGradient id="paint5_linear_3654_131888" x1="389.696" y1="322" x2="180.88" y2="322" gradientUnits="userSpaceOnUse">
<stop stop-color="#1D5AB5" stop-opacity="0"/>
<stop offset="1" stop-color="#1D5AB5"/>
</linearGradient>
<linearGradient id="paint6_linear_3654_131888" x1="78" y1="10.304" x2="78" y2="219.12" gradientUnits="userSpaceOnUse">
<stop stop-color="#1D5AB5" stop-opacity="0"/>
<stop offset="1" stop-color="#1D5AB5"/>
</linearGradient>
<linearGradient id="paint7_linear_3654_131888" x1="78" y1="385.696" x2="78" y2="176.88" gradientUnits="userSpaceOnUse">
<stop stop-color="#1D5AB5" stop-opacity="0"/>
<stop offset="1" stop-color="#1D5AB5"/>
</linearGradient>
<linearGradient id="paint8_linear_3654_131888" x1="-97.284" y1="-101.286" x2="424.608" y2="420.606" gradientUnits="userSpaceOnUse">
<stop stop-color="#1D5AB5" stop-opacity="0"/>
<stop offset="1" stop-color="#1D5AB5"/>
</linearGradient>
<linearGradient id="paint9_linear_3654_131888" x1="202" y1="400" x2="202" y2="372" gradientUnits="userSpaceOnUse">
<stop stop-color="#1D5AB5" stop-opacity="0"/>
<stop offset="1" stop-color="#1D5AB5"/>
</linearGradient>
<linearGradient id="paint10_linear_3654_131888" x1="202" y1="4" x2="202" y2="72" gradientUnits="userSpaceOnUse">
<stop stop-color="#1D5AB5" stop-opacity="0"/>
<stop offset="1" stop-color="#1D5AB5"/>
</linearGradient>
</defs>
</svg>
