<svg width="400" height="400" viewBox="0 0 400 400" fill="none" xmlns="http://www.w3.org/2000/svg">
<g clip-path="url(#clip0_3798_132909)">
<path d="M292.004 149.604L292.008 312.004H108.008V84.0039H226.404L292.004 149.604Z" fill="#F0F5FF"/>
<path opacity="0.55" d="M156.008 212.004H104.008V216.004H156.008V212.004Z" fill="url(#paint0_linear_3798_132909)"/>
<path opacity="0.55" d="M156.008 244.004H104.008V248.004H156.008V244.004Z" fill="url(#paint1_linear_3798_132909)"/>
<path opacity="0.55" d="M156.008 276.004H104.008V280.004H156.008V276.004Z" fill="url(#paint2_linear_3798_132909)"/>
<path opacity="0.55" d="M224.008 212.004V156.004H220.008V212.004H224.008Z" fill="url(#paint3_linear_3798_132909)"/>
<path opacity="0.55" d="M296.008 212.004H236.008V216.004H296.008V212.004Z" fill="url(#paint4_linear_3798_132909)"/>
<path opacity="0.55" d="M296.008 244.004H236.008V248.004H296.008V244.004Z" fill="url(#paint5_linear_3798_132909)"/>
<path opacity="0.55" d="M256.008 276.004H196.008V280.004H256.008V276.004Z" fill="url(#paint6_linear_3798_132909)"/>
<path opacity="0.85" d="M336.85 194.435L291.602 149.191L294.434 146.363L339.678 191.607L336.85 194.435Z" fill="url(#paint7_linear_3798_132909)"/>
<path opacity="0.85" d="M181.57 39.1757L226.814 84.4237L229.642 81.5917L184.398 36.3477L181.57 39.1757Z" fill="url(#paint8_linear_3798_132909)"/>
<path d="M296.008 316.004H104.008V80.0039H228.06L296.004 147.948L296.008 316.004ZM112.008 308.004H288.008L288.004 151.26L224.748 88.0039H112.008V308.004Z" fill="#1D5AB5"/>
<path d="M248.008 208.004H152.008V216.004H248.008V208.004Z" fill="#1D5AB5"/>
<path d="M248.008 240.004H152.008V248.004H248.008V240.004Z" fill="#1D5AB5"/>
<path d="M204.008 272.004H152.008V280.004H204.008V272.004Z" fill="#1D5AB5"/>
<path opacity="0.25" d="M136.008 208.004H132.008V204.004H136.008V208.004ZM136.008 200.004H132.008V196.004H136.008V200.004ZM136.008 192.004H132.008V188.004H136.008V192.004ZM136.008 184.004H132.008V180.004H136.008V184.004ZM136.008 176.004H132.008V172.004H136.008V176.004ZM136.008 168.004H132.008V164.004H136.008V168.004ZM136.008 160.004H132.008V156.004H136.008V160.004ZM136.008 152.004H132.008V148.004H136.008V152.004ZM136.008 144.004H132.008V140.004H136.008V144.004ZM136.008 136.004H132.008V132.004H136.008V136.004ZM136.008 128.004H132.008V124.004H136.008V128.004ZM136.008 120.004H132.008V116.004H136.008V120.004ZM136.008 112.004H132.008V108.004H136.008V112.004ZM136.008 104.004H132.008V100.004H136.008V104.004ZM136.008 96.0039H132.008V92.0039H136.008V96.0039Z" fill="#1D5AB5"/>
<path opacity="0.25" d="M224.008 304.004H220.008V300.004H224.008V304.004ZM224.008 296.004H220.008V292.004H224.008V296.004ZM224.008 288.004H220.008V284.004H224.008V288.004Z" fill="#1D5AB5"/>
<path opacity="0.25" d="M288.008 180.004H284.008V176.004H288.008V180.004ZM280.008 180.004H276.008V176.004H280.008V180.004ZM272.008 180.004H268.008V176.004H272.008V180.004ZM264.008 180.004H260.008V176.004H264.008V180.004ZM256.008 180.004H252.008V176.004H256.008V180.004ZM248.008 180.004H244.008V176.004H248.008V180.004ZM240.008 180.004H236.008V176.004H240.008V180.004ZM232.008 180.004H228.008V176.004H232.008V180.004Z" fill="#1D5AB5"/>
<path opacity="0.25" d="M292.008 352.004H288.008V348.004H292.008V352.004ZM284.008 352.004H280.008V348.004H284.008V352.004ZM276.008 352.004H272.008V348.004H276.008V352.004ZM268.008 352.004H264.008V348.004H268.008V352.004ZM260.008 352.004H256.008V348.004H260.008V352.004ZM252.008 352.004H248.008V348.004H252.008V352.004ZM244.008 352.004H240.008V348.004H244.008V352.004ZM236.008 352.004H232.008V348.004H236.008V352.004ZM228.008 352.004H224.008V348.004H228.008V352.004ZM220.008 352.004H216.008V348.004H220.008V352.004ZM212.008 352.004H208.008V348.004H212.008V352.004ZM204.008 352.004H200.008V348.004H204.008V352.004ZM196.008 352.004H192.008V348.004H196.008V352.004ZM188.008 352.004H184.008V348.004H188.008V352.004ZM180.008 352.004H176.008V348.004H180.008V352.004ZM172.008 352.004H168.008V348.004H172.008V352.004ZM164.008 352.004H160.008V348.004H164.008V352.004ZM156.008 352.004H152.008V348.004H156.008V352.004ZM148.008 352.004H144.008V348.004H148.008V352.004ZM140.008 352.004H136.008V348.004H140.008V352.004ZM132.008 352.004H128.008V348.004H132.008V352.004ZM124.008 352.004H120.008V348.004H124.008V352.004ZM116.008 352.004H112.008V348.004H116.008V352.004Z" fill="#1D5AB5"/>
<path opacity="0.25" d="M72.0078 308.004H68.0078V304.004H72.0078V308.004ZM72.0078 300.004H68.0078V296.004H72.0078V300.004ZM72.0078 292.004H68.0078V288.004H72.0078V292.004ZM72.0078 284.004H68.0078V280.004H72.0078V284.004ZM72.0078 276.004H68.0078V272.004H72.0078V276.004ZM72.0078 268.004H68.0078V264.004H72.0078V268.004ZM72.0078 260.004H68.0078V256.004H72.0078V260.004ZM72.0078 252.004H68.0078V248.004H72.0078V252.004ZM72.0078 244.004H68.0078V240.004H72.0078V244.004ZM72.0078 236.004H68.0078V232.004H72.0078V236.004ZM72.0078 228.004H68.0078V224.004H72.0078V228.004ZM72.0078 220.004H68.0078V216.004H72.0078V220.004ZM72.0078 212.004H68.0078V208.004H72.0078V212.004ZM72.0078 204.004H68.0078V200.004H72.0078V204.004ZM72.0078 196.004H68.0078V192.004H72.0078V196.004ZM72.0078 188.004H68.0078V184.004H72.0078V188.004ZM72.0078 180.004H68.0078V176.004H72.0078V180.004ZM72.0078 172.004H68.0078V168.004H72.0078V172.004ZM72.0078 164.004H68.0078V160.004H72.0078V164.004ZM72.0078 156.004H68.0078V152.004H72.0078V156.004ZM72.0078 148.004H68.0078V144.004H72.0078V148.004ZM72.0078 140.004H68.0078V136.004H72.0078V140.004ZM72.0078 132.004H68.0078V128.004H72.0078V132.004ZM72.0078 124.004H68.0078V120.004H72.0078V124.004ZM72.0078 116.004H68.0078V112.004H72.0078V116.004ZM72.0078 108.004H68.0078V104.004H72.0078V108.004ZM72.0078 100.004H68.0078V96.0039H72.0078V100.004ZM72.0078 92.0039H68.0078V88.0039H72.0078V92.0039Z" fill="#1D5AB5"/>
<path opacity="0.55" d="M292.008 156.004H220.008V84.0039H224.008V152.004H292.008V156.004Z" fill="#1D5AB5"/>
<path opacity="0.85" d="M108.008 312.004H20.0078V316.004H108.008V312.004Z" fill="url(#paint9_linear_3798_132909)"/>
<path opacity="0.85" d="M104.008 400.004V312.004H108.008V400.004H104.008Z" fill="url(#paint10_linear_3798_132909)"/>
<path opacity="0.85" d="M380.008 312.004H292.008V316.004H380.008V312.004Z" fill="url(#paint11_linear_3798_132909)"/>
<path opacity="0.85" d="M292.008 80.0039H228.008V84.0039H292.008V80.0039Z" fill="url(#paint12_linear_3798_132909)"/>
<path opacity="0.85" d="M292.008 84.0039V152.004H296.008V84.0039H292.008Z" fill="url(#paint13_linear_3798_132909)"/>
<path opacity="0.85" d="M296.008 400.004V312.004H292.008V400.004H296.008Z" fill="url(#paint14_linear_3798_132909)"/>
<path opacity="0.85" d="M108.008 80.0039H20.0078V84.0039H108.008V80.0039Z" fill="url(#paint15_linear_3798_132909)"/>
<path opacity="0.85" d="M108.008 0.00390625V84.0039H104.008V0.00390625H108.008Z" fill="url(#paint16_linear_3798_132909)"/>
<path opacity="0.3" d="M283.248 146.486L277.728 152.006H283.368L286.088 149.326L283.248 146.486ZM224.008 92.6058V98.2858L229.528 92.7658L226.688 89.9258L224.008 92.6058ZM277.608 140.846L266.408 152.006H272.088L280.448 143.686L277.608 140.846ZM224.008 103.926V109.606L235.208 98.4458L232.368 95.6058L224.008 103.926ZM271.928 135.166L255.088 152.006H260.768L274.768 138.006L271.928 135.166ZM224.008 115.246V120.926L240.848 104.086L238.008 101.246L224.008 115.246ZM266.288 129.526L243.808 152.006H249.448L269.128 132.366L266.288 129.526ZM243.688 106.926L224.008 126.566V132.206L246.488 109.726L243.688 106.926ZM260.648 123.886L232.488 152.006H238.128L263.448 126.686L260.648 123.886ZM254.968 118.206L224.008 149.166V152.006H226.848L257.808 121.046L254.968 118.206ZM249.328 112.566L224.008 137.886V143.526L252.168 115.406L249.328 112.566Z" fill="#1D5AB5"/>
</g>
<defs>
<linearGradient id="paint0_linear_3798_132909" x1="101.18" y1="214.004" x2="156.756" y2="214.004" gradientUnits="userSpaceOnUse">
<stop stop-color="white" stop-opacity="0"/>
<stop offset="1" stop-color="#1D5AB5"/>
</linearGradient>
<linearGradient id="paint1_linear_3798_132909" x1="101.18" y1="246.004" x2="156.756" y2="246.004" gradientUnits="userSpaceOnUse">
<stop stop-color="white" stop-opacity="0"/>
<stop offset="1" stop-color="#1D5AB5"/>
</linearGradient>
<linearGradient id="paint2_linear_3798_132909" x1="101.18" y1="278.004" x2="156.756" y2="278.004" gradientUnits="userSpaceOnUse">
<stop stop-color="white" stop-opacity="0"/>
<stop offset="1" stop-color="#1D5AB5"/>
</linearGradient>
<linearGradient id="paint3_linear_3798_132909" x1="222.008" y1="215.048" x2="222.008" y2="146.472" gradientUnits="userSpaceOnUse">
<stop stop-color="white" stop-opacity="0"/>
<stop offset="1" stop-color="#1D5AB5"/>
</linearGradient>
<linearGradient id="paint4_linear_3798_132909" x1="299.268" y1="214.004" x2="235.144" y2="214.004" gradientUnits="userSpaceOnUse">
<stop stop-color="white" stop-opacity="0"/>
<stop offset="1" stop-color="#1D5AB5"/>
</linearGradient>
<linearGradient id="paint5_linear_3798_132909" x1="299.268" y1="246.004" x2="235.144" y2="246.004" gradientUnits="userSpaceOnUse">
<stop stop-color="white" stop-opacity="0"/>
<stop offset="1" stop-color="#1D5AB5"/>
</linearGradient>
<linearGradient id="paint6_linear_3798_132909" x1="259.268" y1="278.004" x2="195.144" y2="278.004" gradientUnits="userSpaceOnUse">
<stop stop-color="white" stop-opacity="0"/>
<stop offset="1" stop-color="#1D5AB5"/>
</linearGradient>
<linearGradient id="paint7_linear_3798_132909" x1="338.262" y1="193.023" x2="280.806" y2="135.563" gradientUnits="userSpaceOnUse">
<stop stop-color="#1D5AB5" stop-opacity="0"/>
<stop offset="1" stop-color="#1D5AB5"/>
</linearGradient>
<linearGradient id="paint8_linear_3798_132909" x1="182.982" y1="37.7637" x2="240.442" y2="95.2196" gradientUnits="userSpaceOnUse">
<stop stop-color="#1D5AB5" stop-opacity="0"/>
<stop offset="1" stop-color="#1D5AB5"/>
</linearGradient>
<linearGradient id="paint9_linear_3798_132909" x1="20.8998" y1="314.004" x2="134.488" y2="314.004" gradientUnits="userSpaceOnUse">
<stop stop-color="#1D5AB5" stop-opacity="0"/>
<stop offset="1" stop-color="#1D5AB5"/>
</linearGradient>
<linearGradient id="paint10_linear_3798_132909" x1="106.008" y1="399.112" x2="106.008" y2="285.524" gradientUnits="userSpaceOnUse">
<stop stop-color="#1D5AB5" stop-opacity="0"/>
<stop offset="1" stop-color="#1D5AB5"/>
</linearGradient>
<linearGradient id="paint11_linear_3798_132909" x1="379.116" y1="314.004" x2="265.528" y2="314.004" gradientUnits="userSpaceOnUse">
<stop stop-color="#1D5AB5" stop-opacity="0"/>
<stop offset="1" stop-color="#1D5AB5"/>
</linearGradient>
<linearGradient id="paint12_linear_3798_132909" x1="291.36" y1="82.0039" x2="208.748" y2="82.0039" gradientUnits="userSpaceOnUse">
<stop stop-color="#1D5AB5" stop-opacity="0"/>
<stop offset="1" stop-color="#1D5AB5"/>
</linearGradient>
<linearGradient id="paint13_linear_3798_132909" x1="294.008" y1="84.6919" x2="294.008" y2="172.468" gradientUnits="userSpaceOnUse">
<stop stop-color="#1D5AB5" stop-opacity="0"/>
<stop offset="1" stop-color="#1D5AB5"/>
</linearGradient>
<linearGradient id="paint14_linear_3798_132909" x1="294.008" y1="399.112" x2="294.008" y2="285.524" gradientUnits="userSpaceOnUse">
<stop stop-color="#1D5AB5" stop-opacity="0"/>
<stop offset="1" stop-color="#1D5AB5"/>
</linearGradient>
<linearGradient id="paint15_linear_3798_132909" x1="20.8998" y1="82.0039" x2="134.488" y2="82.0039" gradientUnits="userSpaceOnUse">
<stop stop-color="#1D5AB5" stop-opacity="0"/>
<stop offset="1" stop-color="#1D5AB5"/>
</linearGradient>
<linearGradient id="paint16_linear_3798_132909" x1="106.008" y1="0.855906" x2="106.008" y2="109.28" gradientUnits="userSpaceOnUse">
<stop stop-color="#1D5AB5" stop-opacity="0"/>
<stop offset="1" stop-color="#1D5AB5"/>
</linearGradient>
<clipPath id="clip0_3798_132909">
<rect width="400" height="400" fill="white"/>
</clipPath>
</defs>
</svg>
