<svg width="209" height="41" viewBox="0 0 209 41" fill="none" xmlns="http://www.w3.org/2000/svg">
<path d="M208.903 0H207.441V10.5149H208.903V0ZM204.656 10.5497H205.979C205.944 10.3756 205.909 10.2015 205.909 9.95779C205.909 9.71407 205.874 9.47035 205.874 9.26145V6.3716C205.874 6.02343 205.805 5.67525 205.7 5.3619C205.561 5.04854 205.387 4.76999 205.143 4.52627C204.899 4.28255 204.586 4.10847 204.168 3.9692C203.785 3.82993 203.298 3.76029 202.776 3.76029C202.184 3.76029 201.592 3.86474 201.069 4.03883C200.547 4.21291 200.095 4.45664 199.712 4.77L200.512 5.60561C200.756 5.39671 201.069 5.1878 201.452 5.04853C201.835 4.90926 202.218 4.83963 202.636 4.83963C203.193 4.83963 203.646 4.94409 203.959 5.18781C204.307 5.43153 204.447 5.7797 204.447 6.26714V6.44123C203.82 6.44123 203.193 6.47605 202.567 6.51087C201.94 6.54569 201.383 6.65014 200.895 6.82422C200.408 6.96349 199.99 7.20721 199.712 7.48575C199.398 7.76429 199.259 8.18211 199.259 8.66955C199.259 9.05255 199.329 9.3659 199.503 9.64444C199.677 9.88816 199.886 10.0971 200.164 10.2711C200.443 10.4452 200.721 10.5497 201.035 10.6193C201.348 10.689 201.661 10.7238 201.94 10.7238C202.497 10.7238 202.984 10.6193 203.402 10.4452C203.82 10.2363 204.168 9.99261 204.447 9.60962H204.482C204.516 9.88816 204.551 10.2363 204.656 10.5497ZM204.447 7.72948C204.447 8.28656 204.273 8.73919 203.89 9.12218C203.507 9.50517 202.984 9.67926 202.288 9.67926C202.114 9.67926 201.905 9.67926 201.731 9.64444C201.557 9.60962 201.383 9.53999 201.244 9.47035C201.104 9.40072 200.965 9.29627 200.895 9.157C200.791 9.01773 200.756 8.87846 200.756 8.66955C200.756 8.39102 200.861 8.1821 201.069 8.00801C201.278 7.83393 201.557 7.72948 201.87 7.62503C202.184 7.5554 202.532 7.48576 202.95 7.45094C203.333 7.41613 203.716 7.41612 204.099 7.41612H204.447V7.72948ZM196.787 10.5497H198.249V6.44123C198.249 6.05824 198.18 5.71006 198.075 5.39671C197.971 5.08335 197.797 4.80481 197.553 4.56109C197.309 4.31737 197.031 4.14329 196.682 3.9692C196.334 3.82993 195.916 3.76029 195.429 3.76029C195.15 3.76029 194.907 3.7951 194.628 3.86474C194.384 3.93437 194.141 4.00402 193.932 4.14329C193.723 4.24774 193.549 4.387 193.375 4.56109C193.201 4.70036 193.096 4.87444 192.992 5.04853H192.957C192.957 4.90926 192.957 4.73517 192.957 4.52627C192.957 4.31736 192.922 4.14329 192.922 3.9692H191.529C191.564 4.1781 191.564 4.42182 191.564 4.70036C191.564 4.9789 191.564 5.22262 191.564 5.39671V10.5845H193.027V7.06795C193.027 6.40642 193.201 5.88416 193.584 5.50116C193.967 5.11817 194.419 4.90926 195.011 4.90926C195.359 4.90926 195.638 4.9789 195.847 5.08335C196.056 5.1878 196.23 5.32708 196.369 5.53598C196.508 5.71007 196.578 5.91897 196.613 6.16269C196.648 6.40642 196.682 6.65014 196.682 6.92868V10.5497H196.787ZM187.317 34.9915C187.317 34.8175 187.351 34.713 187.421 34.6086C187.491 34.5041 187.595 34.3996 187.734 34.33C187.874 34.2604 188.013 34.2256 188.187 34.1907C188.361 34.1559 188.535 34.1559 188.674 34.1559C189.057 34.1559 189.406 34.2256 189.684 34.3997C189.997 34.5389 190.206 34.7478 190.38 34.9915L191.39 34.2256C191.112 33.8774 190.729 33.5988 190.241 33.4248C189.754 33.2507 189.232 33.1462 188.709 33.1462C188.361 33.1462 188.013 33.181 187.665 33.2507C187.317 33.3203 187.038 33.4596 186.759 33.5988C186.481 33.7729 186.272 33.9818 186.133 34.2256C185.959 34.4693 185.889 34.7826 185.889 35.1308C185.889 35.4442 185.959 35.6879 186.098 35.8968C186.237 36.1057 186.411 36.2798 186.62 36.4191C186.829 36.5583 187.073 36.6628 187.317 36.7324C187.56 36.802 187.839 36.8717 188.083 36.9413C188.709 37.0806 189.197 37.2199 189.545 37.3591C189.893 37.4984 190.032 37.7421 190.032 38.0555C190.032 38.2296 189.997 38.4037 189.893 38.5081C189.823 38.6126 189.684 38.717 189.545 38.7867C189.406 38.8563 189.232 38.9259 189.057 38.9607C188.883 38.9956 188.709 38.9955 188.5 38.9955C188.083 38.9955 187.7 38.8911 187.351 38.717C187.003 38.5429 186.725 38.334 186.516 38.0555L185.471 38.8563C185.819 39.2393 186.272 39.5526 186.829 39.7615C187.351 39.9704 187.908 40.0401 188.5 40.0401C188.883 40.0401 189.231 40.0053 189.614 39.9356C189.963 39.866 190.276 39.7267 190.555 39.5526C190.833 39.3785 191.042 39.1696 191.216 38.8911C191.39 38.6126 191.46 38.2992 191.46 37.9162C191.46 37.6377 191.39 37.394 191.286 37.1502C191.146 36.9413 190.972 36.7672 190.763 36.5931C190.555 36.4539 190.276 36.3146 189.963 36.2102C189.649 36.1057 189.336 36.0361 188.988 35.9316C188.431 35.8272 188.013 35.6879 187.7 35.5486C187.456 35.479 187.317 35.2701 187.317 34.9915ZM190.38 8.63474C190.589 8.21693 190.694 7.72948 190.694 7.24204C190.694 6.71978 190.589 6.26715 190.38 5.84934C190.172 5.43153 189.893 5.04854 189.545 4.77C189.197 4.45664 188.744 4.21291 188.257 4.03883C187.769 3.86474 187.247 3.79511 186.655 3.79511C186.098 3.79511 185.576 3.86474 185.053 4.03883C184.566 4.21291 184.148 4.45664 183.765 4.77C183.417 5.08335 183.138 5.43153 182.93 5.84934C182.721 6.26715 182.616 6.75459 182.616 7.24204C182.616 7.7643 182.721 8.21693 182.93 8.63474C183.138 9.05254 183.417 9.43553 183.765 9.74889C184.113 10.0622 184.531 10.306 185.053 10.4801C185.541 10.6541 186.063 10.7238 186.655 10.7238C187.212 10.7238 187.734 10.6541 188.257 10.4801C188.744 10.306 189.162 10.0622 189.545 9.74889C189.893 9.43553 190.206 9.05254 190.38 8.63474ZM189.162 7.24204C189.162 7.55539 189.092 7.86875 188.988 8.14729C188.883 8.42583 188.709 8.70437 188.5 8.91327C188.291 9.12218 188.048 9.29626 187.734 9.43553C187.421 9.5748 187.073 9.64444 186.655 9.64444C186.272 9.64444 185.889 9.5748 185.576 9.43553C185.262 9.29626 185.019 9.12218 184.81 8.91327C184.601 8.70437 184.427 8.42583 184.322 8.14729C184.218 7.86875 184.148 7.55539 184.148 7.24204C184.148 6.92868 184.218 6.61532 184.322 6.33678C184.427 6.05824 184.601 5.81451 184.81 5.57079C185.019 5.36189 185.297 5.1878 185.576 5.04853C185.889 4.90926 186.237 4.83963 186.655 4.83963C187.038 4.83963 187.421 4.90926 187.734 5.04853C188.048 5.1878 188.291 5.36189 188.5 5.57079C188.709 5.7797 188.883 6.05824 188.988 6.33678C189.092 6.61532 189.162 6.92868 189.162 7.24204ZM183.626 18.5925H182.164V19.6719H183.626V25.2078H185.088V19.6719H186.829V18.5925H185.088V17.1998C185.088 16.9909 185.088 16.782 185.123 16.6079C185.158 16.4338 185.228 16.2598 185.297 16.0857C185.367 15.9116 185.541 15.8071 185.715 15.7375C185.889 15.633 186.133 15.5982 186.411 15.5982C186.551 15.5982 186.69 15.5982 186.794 15.633C186.899 15.6679 187.038 15.6679 187.142 15.7027L187.317 14.5885C187.038 14.5189 186.759 14.4841 186.376 14.4841C185.889 14.4841 185.436 14.5537 185.088 14.693C184.74 14.8322 184.462 15.0063 184.218 15.2501C184.009 15.4938 183.835 15.7723 183.73 16.1205C183.626 16.4338 183.591 16.8168 183.591 17.1998V18.5925H183.626ZM181.606 23.2929C181.815 22.8751 181.92 22.3876 181.92 21.9002C181.92 21.3779 181.815 20.9253 181.606 20.5075C181.398 20.0897 181.119 19.7067 180.771 19.4281C180.423 19.1148 179.97 18.8711 179.483 18.697C178.995 18.5229 178.473 18.4533 177.881 18.4533C177.324 18.4533 176.802 18.5229 176.279 18.697C175.792 18.8711 175.374 19.1148 174.991 19.4281C174.643 19.7415 174.364 20.0897 174.156 20.5075C173.947 20.9253 173.842 21.4127 173.842 21.9002C173.842 22.4224 173.947 22.8751 174.156 23.2929C174.364 23.7107 174.643 24.0937 174.991 24.407C175.339 24.7204 175.757 24.9641 176.279 25.1382C176.767 25.3123 177.289 25.3819 177.881 25.3819C178.438 25.3819 178.96 25.3123 179.483 25.1382C179.97 24.9641 180.388 24.7204 180.771 24.407C181.119 24.0937 181.398 23.7107 181.606 23.2929ZM180.353 21.9002C180.353 22.2135 180.283 22.5269 180.179 22.8054C180.075 23.084 179.9 23.3625 179.692 23.5714C179.483 23.7803 179.204 23.9544 178.926 24.0937C178.612 24.233 178.264 24.3026 177.846 24.3026C177.463 24.3026 177.08 24.233 176.767 24.0937C176.454 23.9544 176.21 23.7803 176.001 23.5714C175.792 23.3625 175.618 23.084 175.513 22.8054C175.409 22.5269 175.339 22.2135 175.339 21.9002C175.339 21.5868 175.409 21.2735 175.513 20.9949C175.618 20.7164 175.792 20.4727 176.001 20.2289C176.21 20.02 176.454 19.846 176.767 19.7067C177.08 19.5674 177.428 19.4978 177.846 19.4978C178.229 19.4978 178.612 19.5674 178.926 19.7067C179.239 19.846 179.483 20.02 179.692 20.2289C179.9 20.4378 180.075 20.6816 180.179 20.9949C180.318 21.2735 180.353 21.5868 180.353 21.9002ZM181.641 3.93438H180.179V10.5497H181.641V3.93438ZM181.606 2.15869C181.815 2.01942 181.885 1.81051 181.885 1.56679C181.885 1.32306 181.781 1.11416 181.606 0.974895C181.398 0.800808 181.189 0.731169 180.91 0.731169C180.632 0.731169 180.423 0.800808 180.214 0.974895C180.04 1.14898 179.935 1.32306 179.935 1.56679C179.935 1.81051 180.04 1.9846 180.214 2.15869C180.388 2.33277 180.632 2.40241 180.91 2.40241C181.189 2.40241 181.398 2.29796 181.606 2.15869ZM176.976 5.01372H178.96V3.93438H176.976V2.05424H175.513V3.93438H174.086V5.01372H175.513V8.59992C175.513 9.29626 175.688 9.81852 176.071 10.1319C176.454 10.4801 176.976 10.6541 177.672 10.6541C177.916 10.6541 178.125 10.6541 178.334 10.6193C178.543 10.5845 178.751 10.5497 178.926 10.4801L178.891 9.40071C178.751 9.43553 178.612 9.50517 178.473 9.50517C178.299 9.53999 178.16 9.53999 178.02 9.53999C177.637 9.53999 177.394 9.47035 177.219 9.29626C177.045 9.12218 176.976 8.84364 176.976 8.42583V5.01372ZM172.38 10.5497H173.703C173.668 10.3756 173.633 10.2015 173.633 9.95779C173.633 9.71407 173.598 9.47035 173.598 9.26145V6.3716C173.598 6.02343 173.529 5.67525 173.424 5.3619C173.285 5.04854 173.111 4.76999 172.867 4.52627C172.624 4.28255 172.275 4.10847 171.892 3.9692C171.509 3.82993 171.022 3.76029 170.5 3.76029C169.908 3.76029 169.316 3.86474 168.794 4.03883C168.271 4.21291 167.819 4.45664 167.436 4.77L168.237 5.60561C168.48 5.39671 168.794 5.1878 169.177 5.04853C169.56 4.90926 169.943 4.83963 170.36 4.83963C170.918 4.83963 171.37 4.94409 171.684 5.18781C172.032 5.43153 172.171 5.7797 172.171 6.26714V6.44123C171.544 6.44123 170.918 6.47605 170.291 6.51087C169.664 6.54569 169.107 6.65014 168.62 6.82422C168.132 6.96349 167.714 7.20721 167.436 7.48575C167.122 7.76429 166.983 8.18211 166.983 8.66955C166.983 9.05255 167.053 9.3659 167.227 9.64444C167.401 9.88816 167.61 10.0971 167.888 10.2711C168.167 10.4452 168.445 10.5497 168.759 10.6193C169.072 10.689 169.386 10.7238 169.664 10.7238C170.221 10.7238 170.709 10.6193 171.126 10.4452C171.544 10.2363 171.892 9.99261 172.171 9.60962H172.206C172.275 9.88816 172.31 10.2363 172.38 10.5497ZM172.206 7.72948C172.206 8.28656 172.032 8.73919 171.649 9.12218C171.266 9.50517 170.743 9.67926 170.047 9.67926C169.873 9.67926 169.664 9.67926 169.49 9.64444C169.316 9.60962 169.142 9.53999 169.003 9.47035C168.863 9.40072 168.724 9.29627 168.654 9.157C168.55 9.01773 168.515 8.87846 168.515 8.66955C168.515 8.39102 168.62 8.1821 168.828 8.00801C169.037 7.83393 169.316 7.72948 169.629 7.62503C169.943 7.5554 170.291 7.48576 170.709 7.45094C171.092 7.41613 171.475 7.41612 171.858 7.41612H172.206V7.72948ZM164.546 10.5497H166.008V6.44123C166.008 6.05824 165.939 5.71006 165.834 5.39671C165.73 5.08335 165.556 4.80481 165.312 4.56109C165.068 4.31737 164.79 4.14329 164.441 3.9692C164.093 3.82993 163.675 3.76029 163.188 3.76029C162.91 3.76029 162.666 3.7951 162.387 3.86474C162.144 3.93437 161.9 4.00402 161.691 4.14329C161.482 4.24774 161.308 4.387 161.134 4.56109C160.96 4.70036 160.855 4.87444 160.751 5.04853H160.716C160.716 4.90926 160.716 4.73517 160.716 4.52627C160.716 4.31736 160.681 4.14329 160.681 3.9692H159.288C159.323 4.1781 159.323 4.42182 159.323 4.70036C159.323 4.9789 159.323 5.22262 159.323 5.39671V10.5845H160.786V7.06795C160.786 6.40642 160.96 5.88416 161.343 5.50116C161.726 5.11817 162.178 4.90926 162.77 4.90926C163.118 4.90926 163.397 4.9789 163.606 5.08335C163.815 5.1878 163.989 5.32708 164.128 5.53598C164.267 5.71007 164.337 5.91897 164.372 6.16269C164.407 6.40642 164.441 6.65014 164.441 6.92868V10.5497H164.546ZM158.94 18.5925V22.1091C158.94 22.7706 158.766 23.2929 158.383 23.6759C158 24.0589 157.548 24.2678 156.956 24.2678C156.608 24.2678 156.329 24.1981 156.12 24.0937C155.911 23.9892 155.737 23.85 155.598 23.6411C155.459 23.467 155.389 23.2581 155.354 22.9795C155.319 22.7358 155.284 22.4921 155.284 22.2135V18.5577H153.822V22.6662C153.822 23.0492 153.892 23.3973 153.996 23.7107C154.101 24.024 154.275 24.3374 154.484 24.5811C154.693 24.8248 155.006 25.0338 155.354 25.173C155.702 25.3123 156.12 25.3819 156.608 25.3819C157.165 25.3819 157.652 25.2427 158.105 24.9989C158.557 24.7552 158.871 24.4419 159.045 24.0937H159.08C159.08 24.233 159.08 24.407 159.08 24.6159C159.08 24.8248 159.114 24.9989 159.114 25.173H160.507C160.472 24.9641 160.472 24.7204 160.472 24.4419C160.472 24.1633 160.472 23.9196 160.472 23.7455V18.5577H158.94V18.5925ZM158.314 5.01372L158.383 3.79511C158.209 3.76029 158.035 3.72547 157.791 3.72547C157.304 3.72547 156.851 3.82992 156.433 4.07365C156.016 4.31737 155.737 4.63073 155.528 5.01372H155.493C155.493 4.87445 155.493 4.70037 155.493 4.49146C155.493 4.28256 155.459 4.07365 155.459 3.89956H154.066C154.101 4.10846 154.101 4.35219 154.101 4.63073C154.101 4.90927 154.101 5.15299 154.101 5.32708V10.5149H155.563V7.03313C155.563 6.75459 155.598 6.47606 155.702 6.23233C155.772 5.98861 155.911 5.74488 156.085 5.57079C156.259 5.36189 156.468 5.22262 156.747 5.11817C157.025 5.01372 157.304 4.94408 157.687 4.94408C157.861 4.94408 158.105 4.9789 158.314 5.01372ZM152.952 7.62503C152.952 7.5554 152.952 7.48576 152.952 7.41612V7.20722C152.952 6.68496 152.882 6.19751 152.708 5.7797C152.534 5.36189 152.29 5.01371 151.977 4.70036C151.663 4.387 151.28 4.17809 150.828 4.00401C150.375 3.82992 149.888 3.76029 149.331 3.76029C148.774 3.76029 148.286 3.82992 147.799 4.00401C147.311 4.17809 146.928 4.42182 146.58 4.73518C146.232 5.04853 145.953 5.39671 145.779 5.84934C145.57 6.26715 145.501 6.75459 145.501 7.27686C145.501 7.79912 145.605 8.28655 145.814 8.70436C146.023 9.12217 146.302 9.50517 146.615 9.78371C146.963 10.0971 147.381 10.306 147.868 10.4801C148.356 10.6541 148.878 10.7238 149.435 10.7238C150.097 10.7238 150.689 10.6193 151.246 10.3756C151.803 10.1667 152.255 9.81853 152.638 9.33108L151.594 8.59992C151.385 8.87846 151.106 9.12218 150.723 9.29626C150.34 9.50517 149.923 9.5748 149.435 9.5748C149.122 9.5748 148.808 9.53998 148.53 9.43553C148.251 9.33108 147.973 9.19182 147.764 9.01773C147.555 8.84364 147.381 8.63473 147.242 8.39101C147.102 8.14729 147.033 7.90357 147.033 7.62503H152.952ZM151.455 6.65014H147.033C147.068 6.40641 147.137 6.16269 147.276 5.91897C147.416 5.67524 147.59 5.50116 147.764 5.32708C147.973 5.15299 148.217 5.01372 148.495 4.94408C148.774 4.83963 149.052 4.80482 149.366 4.80482C149.714 4.80482 150.027 4.83963 150.271 4.94408C150.514 5.04854 150.758 5.18781 150.932 5.32708C151.106 5.50116 151.246 5.67524 151.315 5.91897C151.385 6.16269 151.455 6.40641 151.455 6.65014ZM145.849 19.3933C145.501 19.7067 145.222 20.0549 145.013 20.4727C144.804 20.8905 144.7 21.3779 144.7 21.8654C144.7 22.3876 144.804 22.8403 145.013 23.2581C145.222 23.6759 145.501 24.0589 145.849 24.3722C146.197 24.6856 146.615 24.9293 147.137 25.1034C147.625 25.2775 148.147 25.3471 148.739 25.3471C149.296 25.3471 149.818 25.2775 150.34 25.1034C150.828 24.9293 151.246 24.6856 151.629 24.3722C151.977 24.0589 152.255 23.6759 152.464 23.2581C152.673 22.8403 152.778 22.3528 152.778 21.8654C152.778 21.3431 152.673 20.8905 152.464 20.4727C152.255 20.0549 151.977 19.6719 151.629 19.3933C151.28 19.08 150.828 18.8362 150.34 18.6622C149.853 18.4881 149.331 18.4184 148.739 18.4184C148.182 18.4184 147.659 18.4881 147.137 18.6622C146.615 18.8362 146.197 19.08 145.849 19.3933ZM146.197 21.9002C146.197 21.5868 146.267 21.2735 146.371 20.9949C146.476 20.7164 146.65 20.4727 146.859 20.2289C147.068 20.02 147.346 19.846 147.625 19.7067C147.938 19.5674 148.286 19.4978 148.704 19.4978C149.087 19.4978 149.47 19.5674 149.783 19.7067C150.097 19.846 150.34 20.02 150.549 20.2289C150.758 20.4378 150.932 20.6816 151.037 20.9949C151.141 21.2735 151.211 21.5868 151.211 21.9002C151.211 22.2135 151.141 22.5269 151.037 22.8054C150.932 23.084 150.758 23.3625 150.549 23.5714C150.34 23.7803 150.097 23.9544 149.783 24.0937C149.47 24.233 149.122 24.3026 148.704 24.3026C148.321 24.3026 147.938 24.233 147.625 24.0937C147.311 23.9544 147.068 23.7803 146.859 23.5714C146.65 23.3625 146.476 23.084 146.371 22.8054C146.267 22.5269 146.197 22.2135 146.197 21.9002ZM142.889 5.01372H144.874V3.93438H142.889V2.05424H141.427V3.93438H140V5.01372H141.427V8.59992C141.427 9.29626 141.601 9.81852 141.984 10.1319C142.367 10.4801 142.889 10.6541 143.586 10.6541C143.83 10.6541 144.038 10.6541 144.247 10.6193C144.456 10.5845 144.665 10.5497 144.839 10.4801L144.804 9.40071C144.665 9.43553 144.526 9.50517 144.387 9.50517C144.213 9.53999 144.073 9.53999 143.934 9.53999C143.551 9.53999 143.307 9.47035 143.133 9.29626C142.959 9.12218 142.889 8.84364 142.889 8.42583V5.01372ZM137.876 10.5497H139.338V6.44123C139.338 6.05824 139.268 5.71006 139.164 5.39671C139.06 5.08335 138.885 4.80481 138.642 4.56109C138.398 4.31737 138.119 4.14329 137.771 3.9692C137.423 3.82993 137.005 3.76029 136.518 3.76029C136.239 3.76029 135.996 3.7951 135.717 3.86474C135.473 3.93437 135.23 4.00402 135.021 4.14329C134.812 4.24774 134.638 4.387 134.464 4.56109C134.29 4.70036 134.185 4.87444 134.081 5.04853H134.046C134.046 4.90926 134.046 4.73517 134.046 4.52627C134.046 4.31736 134.011 4.14329 134.011 3.9692H132.618C132.653 4.1781 132.653 4.42182 132.653 4.70036C132.653 4.9789 132.653 5.22262 132.653 5.39671V10.5845H134.115V7.06795C134.115 6.40642 134.29 5.88416 134.673 5.50116C135.056 5.11817 135.508 4.90926 136.1 4.90926C136.448 4.90926 136.727 4.9789 136.936 5.08335C137.145 5.1878 137.319 5.32708 137.458 5.53598C137.597 5.71007 137.667 5.91897 137.702 6.16269C137.736 6.40642 137.771 6.65014 137.771 6.92868V10.5497H137.876ZM134.881 15.1108C134.046 15.1108 133.245 15.25 132.514 15.4938C131.783 15.7375 131.156 16.0857 130.634 16.5383C130.111 16.9909 129.694 17.548 129.38 18.1747C129.067 18.8014 128.928 19.4978 128.928 20.2986C128.928 21.0646 129.067 21.7609 129.38 22.3876C129.659 23.0143 130.077 23.5714 130.599 24.024C131.121 24.4767 131.748 24.8248 132.479 25.1034C133.21 25.3471 134.011 25.4864 134.881 25.4864C135.682 25.4864 136.448 25.4167 137.145 25.2775C137.841 25.1382 138.468 24.9293 139.06 24.6508V19.8808H135.056V21.0646H137.528V23.8151C137.214 23.9892 136.831 24.0937 136.379 24.1633C135.926 24.233 135.473 24.3026 134.916 24.3026C134.255 24.3026 133.663 24.1981 133.141 23.9892C132.618 23.7803 132.166 23.5018 131.783 23.1536C131.4 22.8054 131.121 22.3876 130.947 21.9002C130.738 21.4127 130.634 20.8905 130.634 20.3682C130.634 19.8459 130.738 19.3237 130.947 18.8362C131.156 18.3488 131.435 17.931 131.783 17.5828C132.166 17.2346 132.583 16.9213 133.106 16.7124C133.628 16.5035 134.22 16.399 134.881 16.399C135.508 16.399 136.1 16.5035 136.622 16.6776C137.145 16.8865 137.562 17.1302 137.911 17.4435L138.99 16.4338C138.537 16.0508 137.945 15.7375 137.249 15.4938C136.553 15.2152 135.787 15.1108 134.881 15.1108ZM129.52 10.5497H131.086V0.696349H129.52V10.5497ZM111.484 39.7267H116.219V0.382994H111.484V39.7267ZM110.161 39.7267L103.232 32.3106C106.053 29.2815 107.167 25.2427 107.236 20.1593H102.258C102.188 24.5811 101.561 26.6702 99.9944 28.8985L89.2706 17.4087C90.3847 16.7472 92.2649 15.633 92.2649 15.633C95.0851 13.927 97.2438 11.6987 97.2438 8.49547C97.2438 3.69066 93.0657 0.0348196 87.4601 0.0348196C81.7152 0.0348196 77.5371 3.62102 77.5371 8.42583C77.5371 11.8031 79.8351 14.3796 82.1678 16.8168C77.5023 19.5674 72.8019 22.6314 72.8019 28.4807C72.8019 35.3745 78.3031 40.0401 86.903 40.0401C93.762 40.0401 97.8357 37.1154 99.7506 35.5486L103.615 39.6919H110.161V39.7267ZM88.5046 13.1262C88.5046 13.1262 87.1815 13.8922 86.3807 14.4144C83.6302 11.4201 82.6901 10.0622 82.6901 8.39101C82.6901 5.91897 84.5702 4.07365 87.4253 4.07365C90.2455 4.07365 92.2997 6.02343 92.2997 8.49547C92.2997 10.5845 90.5588 11.8379 88.5046 13.1262ZM96.7563 32.3802C93.1353 35.2004 89.9669 35.9316 86.8334 35.9316C81.5411 35.9316 77.9201 32.9025 77.9201 28.411C77.9201 24.1633 81.6107 21.935 85.0925 19.8459L96.7563 32.3802ZM74.4732 12.012C74.4732 4.87444 68.8676 0.348175 60.7551 0.348175H44.2168V39.6919H49.4046V23.7107H60.7551C68.8676 23.7455 74.4732 19.1496 74.4732 12.012ZM69.2854 12.012C69.2854 16.9909 65.5947 19.5326 60.3025 19.5326H49.3698V4.56109H60.3025C65.5947 4.56109 69.2854 7.03313 69.2854 12.012ZM132.932 30.0126H129.52V39.866H131.086V35.5486H132.862C133.454 35.5486 133.976 35.479 134.464 35.3745C134.951 35.2701 135.404 35.096 135.752 34.8871C136.1 34.6782 136.413 34.3648 136.588 34.0167C136.796 33.6685 136.901 33.2507 136.901 32.7632C136.901 32.2758 136.796 31.858 136.622 31.5098C136.448 31.1616 136.17 30.8831 135.822 30.6742C135.473 30.4653 135.056 30.2912 134.568 30.1867C134.046 30.0823 133.524 30.0126 132.932 30.0126ZM132.758 31.1964C133.141 31.1964 133.454 31.2313 133.767 31.2661C134.081 31.3009 134.359 31.4053 134.568 31.5446C134.777 31.6839 134.986 31.8232 135.09 32.0321C135.23 32.241 135.299 32.4847 135.299 32.7632C135.299 33.0766 135.23 33.3203 135.125 33.5292C134.986 33.7381 134.812 33.9122 134.603 34.0167C134.359 34.1559 134.081 34.2256 133.767 34.2952C133.454 34.3648 133.106 34.3997 132.723 34.3997H131.086V31.1964H132.758ZM141.88 25.2078V21.7261C141.88 21.4476 141.915 21.169 142.019 20.9253C142.089 20.6816 142.228 20.4378 142.402 20.2638C142.576 20.0549 142.785 19.9156 143.064 19.8111C143.342 19.7067 143.621 19.6371 144.004 19.6371C144.247 19.6371 144.456 19.6719 144.665 19.7067L144.735 18.4881C144.596 18.4533 144.387 18.4184 144.143 18.4184C143.655 18.4184 143.168 18.5229 142.785 18.7666C142.367 19.0103 142.089 19.3237 141.88 19.7067H141.845C141.845 19.5674 141.845 19.3933 141.845 19.1844C141.845 18.9755 141.81 18.7666 141.81 18.5925H140.417C140.452 18.8014 140.452 19.0451 140.452 19.3237C140.452 19.6022 140.452 19.8459 140.452 20.02V25.2078H141.88ZM137.249 36.245C137.11 36.5235 137.04 36.8717 137.04 37.2547C137.04 37.7073 137.145 38.1251 137.319 38.4733C137.528 38.8215 137.771 39.1 138.119 39.3437C138.433 39.5874 138.851 39.7615 139.268 39.866C139.721 39.9704 140.174 40.0401 140.661 40.0401C141.427 40.0401 142.089 39.9008 142.611 39.6571C143.133 39.4134 143.621 39.0304 144.038 38.5777L145.431 39.866H147.485L144.944 37.5332L147.068 34.6086H145.327L143.934 36.6976L141.706 34.6782C142.019 34.5389 142.332 34.3997 142.611 34.2256C142.889 34.0515 143.168 33.8774 143.377 33.6685C143.586 33.4596 143.76 33.2159 143.899 32.9721C144.038 32.7284 144.108 32.4151 144.108 32.1017C144.108 31.7187 144.038 31.3705 143.864 31.092C143.69 30.8135 143.481 30.5697 143.238 30.3608C142.959 30.1519 142.681 30.0127 142.332 29.9082C141.984 29.8037 141.636 29.7689 141.218 29.7689C140.835 29.7689 140.452 29.8037 140.104 29.9082C139.756 30.0127 139.443 30.1519 139.164 30.3608C138.885 30.5697 138.677 30.8135 138.502 31.092C138.328 31.4053 138.259 31.7535 138.259 32.1365C138.259 32.5891 138.398 32.9721 138.642 33.3551C138.885 33.7381 139.199 34.0515 139.547 34.3997C139.234 34.5389 138.92 34.6782 138.607 34.8523C138.294 35.0264 138.015 35.2353 137.806 35.479C137.562 35.6879 137.388 35.9664 137.249 36.245ZM141.532 33.564C141.323 33.6685 141.079 33.7729 140.87 33.8774C140.731 33.7729 140.626 33.6685 140.487 33.5292C140.348 33.3899 140.243 33.2507 140.139 33.1114C140.034 32.9721 139.965 32.798 139.895 32.6588C139.826 32.4847 139.791 32.3454 139.791 32.1713C139.791 31.7883 139.93 31.475 140.209 31.2313C140.487 30.9875 140.835 30.8831 141.288 30.8831C141.706 30.8831 142.054 30.9875 142.298 31.2313C142.576 31.475 142.681 31.7535 142.681 32.1365C142.681 32.3454 142.611 32.5543 142.541 32.7284C142.437 32.9025 142.298 33.0766 142.123 33.2159C141.915 33.3203 141.74 33.4596 141.532 33.564ZM138.607 37.2547C138.607 36.7672 138.781 36.3494 139.094 36.0361C139.408 35.7227 139.86 35.479 140.383 35.2701L143.029 37.7073C142.715 38.1251 142.402 38.4385 142.019 38.6474C141.636 38.8563 141.218 38.9607 140.661 38.9607C140.383 38.9607 140.139 38.9259 139.895 38.8563C139.651 38.7866 139.408 38.6474 139.234 38.5081C139.025 38.3688 138.885 38.1947 138.781 37.951C138.642 37.7421 138.607 37.4984 138.607 37.2547ZM149.923 30.0126H148.356V39.866H149.923V30.0126ZM155.18 32.8329C154.867 33.4596 154.727 34.1559 154.727 34.9567C154.727 35.7227 154.867 36.4191 155.18 37.0458C155.459 37.6725 155.876 38.2296 156.399 38.6822C156.921 39.1348 157.548 39.483 158.244 39.7615C158.975 40.0053 159.741 40.1445 160.577 40.1445C161.552 40.1445 162.422 39.9704 163.118 39.6571C163.815 39.3437 164.407 38.8911 164.824 38.3688L163.571 37.6029C163.223 38.0207 162.805 38.3688 162.283 38.5777C161.761 38.7867 161.203 38.9259 160.577 38.9259C159.95 38.9259 159.358 38.8215 158.836 38.6126C158.314 38.4037 157.861 38.1251 157.513 37.7769C157.165 37.4288 156.886 37.011 156.677 36.5235C156.468 36.0361 156.399 35.5138 156.399 34.9567C156.399 34.4345 156.503 33.9122 156.712 33.4248C156.921 32.9373 157.199 32.5195 157.548 32.1713C157.931 31.8232 158.348 31.5098 158.871 31.3009C159.393 31.092 159.985 30.9875 160.612 30.9875C161.203 30.9875 161.726 31.092 162.213 31.3009C162.701 31.5098 163.084 31.7883 163.362 32.1365L164.581 31.3009C164.372 31.0572 164.128 30.8134 163.815 30.6394C163.536 30.4653 163.188 30.2912 162.84 30.1519C162.492 30.0126 162.109 29.9082 161.726 29.8734C161.343 29.8037 160.96 29.7689 160.577 29.7689C159.741 29.7689 158.94 29.9082 158.209 30.1519C157.478 30.3956 156.851 30.7438 156.329 31.1964C155.876 31.6491 155.459 32.1713 155.18 32.8329ZM167.227 29.3511H165.73V39.866H167.192V29.3511H167.227ZM165.869 25.3819C166.461 25.3819 166.948 25.2775 167.436 25.1034C167.888 24.9293 168.271 24.6856 168.62 24.3722C168.933 24.0589 169.211 23.6759 169.386 23.2581C169.56 22.8403 169.664 22.3876 169.664 21.9002C169.664 21.4127 169.56 20.9601 169.386 20.5423C169.211 20.1245 168.968 19.7415 168.62 19.4281C168.306 19.1148 167.888 18.8711 167.436 18.697C166.983 18.5229 166.461 18.4184 165.939 18.4184C165.312 18.4184 164.79 18.5229 164.302 18.7666C163.85 19.0103 163.501 19.2889 163.258 19.6371H163.223V18.5925H161.761V28.5503H163.223V24.233H163.258C163.536 24.6159 163.884 24.8945 164.372 25.1034C164.824 25.2775 165.347 25.3819 165.869 25.3819ZM166.705 24.0937C166.391 24.233 166.043 24.3026 165.625 24.3026C165.242 24.3026 164.894 24.233 164.581 24.0937C164.267 23.9544 163.989 23.7803 163.78 23.5714C163.571 23.3625 163.397 23.084 163.258 22.8054C163.118 22.5269 163.084 22.2135 163.084 21.9002C163.084 21.5868 163.153 21.2735 163.258 20.9949C163.362 20.7164 163.536 20.4378 163.78 20.2289C163.989 20.02 164.267 19.846 164.581 19.7067C164.894 19.5674 165.242 19.4978 165.625 19.4978C166.043 19.4978 166.391 19.5674 166.705 19.7067C167.018 19.846 167.262 20.02 167.471 20.2289C167.679 20.4378 167.854 20.7164 167.958 20.9949C168.062 21.2735 168.132 21.5868 168.132 21.9002C168.132 22.2135 168.062 22.4921 167.958 22.8054C167.854 23.084 167.714 23.3625 167.471 23.5714C167.262 23.7803 167.018 23.9544 166.705 24.0937ZM170.256 33.2855H168.794V37.394C168.794 37.7769 168.863 38.1251 168.968 38.4385C169.072 38.7518 169.246 39.0652 169.455 39.3089C169.664 39.5526 169.977 39.7615 170.326 39.9008C170.674 40.0401 171.092 40.1097 171.579 40.1097C172.136 40.1097 172.624 39.9704 173.076 39.7267C173.529 39.483 173.842 39.1696 174.016 38.8215H174.051C174.051 38.9607 174.051 39.1348 174.051 39.3437C174.051 39.5526 174.086 39.7267 174.086 39.9008H175.479C175.444 39.6919 175.444 39.4482 175.444 39.1696C175.444 38.8911 175.444 38.6474 175.444 38.4733V33.2855H173.981V36.8021C173.981 37.4636 173.807 37.9858 173.424 38.3688C173.041 38.7518 172.589 38.9607 171.962 38.9607C171.614 38.9607 171.335 38.8911 171.126 38.7867C170.918 38.6822 170.743 38.5429 170.604 38.334C170.465 38.1599 170.395 37.9162 170.36 37.6725C170.326 37.4288 170.291 37.185 170.291 36.9065V33.2855H170.256ZM178.543 29.3511H177.08V39.866H178.508V38.8215H178.543C178.821 39.2045 179.239 39.5178 179.692 39.7267C180.179 39.9356 180.666 40.0401 181.223 40.0401C181.815 40.0401 182.303 39.9356 182.79 39.7615C183.243 39.5874 183.626 39.3437 183.974 39.0304C184.287 38.717 184.566 38.334 184.74 37.9162C184.914 37.4984 185.019 37.0458 185.019 36.5583C185.019 36.0709 184.914 35.6183 184.74 35.2004C184.566 34.7826 184.322 34.3997 183.974 34.0863C183.661 33.7729 183.243 33.5292 182.79 33.3551C182.338 33.181 181.815 33.0766 181.293 33.0766C180.666 33.0766 180.144 33.181 179.692 33.4248C179.239 33.6685 178.891 33.9122 178.647 34.2604H178.612V29.3511H178.543ZM178.473 36.5931C178.473 36.2798 178.543 35.9664 178.647 35.6879C178.751 35.4094 178.926 35.1308 179.169 34.9219C179.378 34.713 179.657 34.5389 179.97 34.3997C180.283 34.2604 180.632 34.1907 181.015 34.1907C181.432 34.1907 181.781 34.2604 182.094 34.3997C182.407 34.5389 182.651 34.713 182.86 34.9219C183.069 35.1308 183.243 35.4094 183.347 35.6879C183.452 35.9664 183.521 36.2798 183.521 36.5931C183.521 36.9065 183.487 37.185 183.347 37.4984C183.243 37.7769 183.069 38.0555 182.86 38.2644C182.651 38.4733 182.407 38.6474 182.094 38.7867C181.781 38.9259 181.432 38.9955 181.015 38.9955C180.632 38.9955 180.283 38.9259 179.97 38.7867C179.657 38.6474 179.378 38.4733 179.169 38.2644C178.96 38.0555 178.786 37.8118 178.647 37.4984C178.508 37.185 178.473 36.9065 178.473 36.5931Z" fill="white"/>
<path d="M39.9356 25.2778V18.8714H24.024V23.0147H34.7478V25.7304C34.7478 28.7247 34.0515 30.7093 32.3106 32.5895C30.326 34.6785 27.3665 35.8623 24.2678 35.8623C21.4475 35.8623 18.7666 34.9223 16.9213 33.2162C14.2403 30.779 13.927 28.2373 13.927 20.0552C13.927 11.8731 14.2403 9.40105 16.9213 6.96383C18.8014 5.25777 21.4824 4.24807 24.2678 4.24807C29.56 4.24807 33.3899 7.13792 34.6434 12.1516H39.9008C38.5429 4.90961 32.798 0.0351562 24.3026 0.0351562C19.8808 0.0351562 15.9464 1.46268 12.9521 4.1088C8.774 7.79945 8.774 11.699 8.774 20.0204C8.774 28.3766 8.774 32.2413 12.9521 35.932C15.9464 38.5781 19.9504 40.0056 24.3026 40.0056C28.8637 40.0056 33.0418 38.4736 36.1753 35.4793C38.8911 32.868 39.9356 29.8041 39.9356 25.2778ZM4.73517 0.348511H0V39.6922H4.73517V0.348511Z" fill="white"/>
</svg>
