<svg width="100" height="100" viewBox="0 0 100 100" fill="none" xmlns="http://www.w3.org/2000/svg">
<path d="M30.0312 1.51562L29.043 2.05469L25.0742 4.22266L24.0352 4.78906V5.97656L24 70.7852V71.9375L24.9961 72.5156L68.9648 97.9727L69.9648 98.5508L70.9648 97.9727L74.9648 95.6641L75.9648 95.0898V93.9336L76 47.6914V47.1523L75.7305 46.6875L59.7305 19.0625L59.4648 18.6055L59.0039 18.3359L31.0039 2.07812L30.0312 1.51562ZM29.9922 4.38672L57 20.0664L54 21.7969L27.0469 5.99609L29.9922 4.38672ZM26.5352 6.85156L53.5 22.6641V40.7617C53.4999 40.8496 53.523 40.9359 53.5668 41.012C53.6107 41.0882 53.6739 41.1514 53.75 41.1953L69.5 50.2891L69.4648 95.375L26.5 70.4961L26.5352 6.85156ZM57.8164 20.75L73.3164 47.5078L70.1836 49.3164L54.6836 22.5586L57.8164 20.75ZM54.5 24.2383L68.6289 48.6289L54.5 40.4727V24.2383ZM40.9688 37.7227C40.893 37.7282 40.8195 37.7509 40.7539 37.7891L39.3242 38.5977C39.2529 38.6376 39.1924 38.6945 39.1481 38.7633C39.1039 38.8321 39.0771 38.9107 39.0703 38.9922L38.875 41.3906C38.869 41.4678 38.881 41.5454 38.9102 41.6172L42.832 51.332C42.8379 51.3467 42.8444 51.361 42.8516 51.375L42.8594 51.3906L42.1016 57.1836L41.0508 61.9062L37.3594 62.1406C37.2461 62.1478 37.1387 62.1932 37.0547 62.2695L34.6641 64.4453C34.6028 64.5013 34.5564 64.5717 34.5291 64.6502C34.5018 64.7286 34.4945 64.8126 34.5078 64.8945L35.0352 68.168C35.0473 68.2433 35.0764 68.3148 35.1205 68.3771C35.1645 68.4394 35.2221 68.4908 35.2891 68.5273L37.7578 69.8945C37.8281 69.9333 37.9066 69.9547 37.9869 69.9567C38.0671 69.9587 38.1466 69.9414 38.2188 69.9062L40.2188 68.9258C40.2843 68.8938 40.342 68.8478 40.3879 68.7911C40.4338 68.7344 40.4667 68.6684 40.4844 68.5977L41.4844 64.5547C41.4857 64.5508 41.487 64.5469 41.4883 64.543L41.8633 62.8594L45.5156 62.6289L49.9258 63.6562L53.5781 69.3555C53.6154 69.4145 53.6646 69.4651 53.7227 69.5039L56.4375 71.293C56.5023 71.3361 56.5764 71.3636 56.6537 71.3731C56.731 71.3825 56.8095 71.3739 56.8828 71.3477L58.8711 70.625C58.9758 70.5864 59.0646 70.5139 59.1233 70.4191C59.1821 70.3242 59.2074 70.2125 59.1953 70.1016L58.8867 67.1758C58.8727 67.0537 58.8144 66.9411 58.7227 66.8594L55.5508 64.0078C55.4889 63.951 55.4136 63.9107 55.332 63.8906L50.5469 62.7734L47.0625 57.3438L43.8906 51.2109L44.4961 46.6016C44.4989 46.5795 44.5002 46.5574 44.5 46.5352V43.0703C44.5006 43.0214 44.494 42.9727 44.4805 42.9258L43.4609 39.5547C43.4303 39.4517 43.3673 39.3613 43.2812 39.2969L41.2969 37.8242C41.2168 37.7632 41.1201 37.7278 41.0195 37.7227C41.0026 37.7218 40.9857 37.7218 40.9688 37.7227ZM40.9609 38.8203L42.5508 40L43.5 43.1445V46.5039L43.1211 49.3828L39.8828 41.3516L40.0469 39.3359L40.9609 38.8203ZM73.5 48.5547L73.4648 93.6445L70.4648 95.375L70.5 50.2891L73.5 48.5547ZM43.6641 52.9453L46.1875 57.8242C46.1947 57.8376 46.2025 57.8506 46.2109 57.8633L49.1523 62.4492L45.668 61.6367C45.6206 61.6258 45.5719 61.6219 45.5234 61.625L42.0898 61.8438L43.082 57.3789C43.0853 57.3647 43.0879 57.3504 43.0898 57.3359L43.6641 52.9453ZM40.8242 62.9219L40.5117 64.3203L39.5703 68.1328L38.0156 68.8945L35.9844 67.7695L35.5352 65.0039L37.5977 63.125L40.8242 62.9219ZM51.3203 63.9844L54.9805 64.8359L57.9141 67.4727L58.1602 69.8203L56.7773 70.3203L54.3633 68.7266L51.3203 63.9844Z" fill="white"/>
</svg>
