<svg width="200" height="200" viewBox="0 0 200 200" fill="none" xmlns="http://www.w3.org/2000/svg">
<path d="M156 67.6822V169.282L140 178.522L84 183.122L44 123.082V21.4822L60 12.2422L100 44.5622L156 67.6822Z" fill="#FFF957"/>
<path d="M140 76.9235L156 67.6875V169.283L140 178.52V76.9235Z" fill="#B3AE3D"/>
<path d="M84 53.8125V183.141L140 178.521V76.9245L84 53.8125Z" fill="#F2ED53"/>
<path d="M84 53.8141L100 44.5781L156 67.6901L140 76.9261L84 53.8141Z" fill="#D9D44A"/>
<path d="M100 44.5742L84 53.8102L44 21.4782L60 12.2422L100 44.5742Z" fill="#E6E04F"/>
<path d="M83.9992 146.188V131.408L83.9872 131.404L71.9712 112.927L71.9992 94.4755L83.9992 96.3035V81.5235L79.9992 78.1435V85.5315L67.7632 83.6675L62.1992 75.1875L58.1992 79.9555L63.9992 88.7995V105.099L58.1992 104.139L62.1992 115.671L67.7632 116.595L79.9992 135.415V142.807L83.9992 146.188Z" fill="#B3AE3D"/>
<path d="M109.8 109.747L105.8 100.359L100.236 102.415L88 90.1514V82.7634L84 81.5234V96.3034L84.012 96.2994L96.028 108.339L96 126.807L84 131.407V146.187L88 147.423V140.035L100.236 135.343L105.8 140.843L109.8 133.927L104 128.195V111.891L109.8 109.747Z" fill="#B3AE3D"/>
</svg>
