<svg width="200" height="200" viewBox="0 0 200 200" fill="none" xmlns="http://www.w3.org/2000/svg">
<path d="M180 100.003L148 155.443L100 183.123L52 155.443L20 100.003L52 44.5828L100 16.8828L148 44.5628L180 100.003Z" fill="#5CCAE6"/>
<path d="M20 100L52 155.436L100 183.14V146.2L20 100Z" fill="#61D6F2"/>
<path d="M52 44.5781L20 99.9981L100 146.198V72.2861L52 44.5781Z" fill="#66E1FF"/>
<path d="M180 100L148 155.436L100 183.14V146.2L180 100Z" fill="#479DB3"/>
<path d="M148 44.5547L180 100.003L100 146.203V72.2907L148 44.5547Z" fill="#52B4CC"/>
<path d="M100 72.2861L84 99.9981V123.094L48 83.8341L44 58.4301L52 44.5781L100 72.2861Z" fill="#61FF7B"/>
<path d="M52 44.5816L72 42.2656L92 49.1936L100 72.2896L52 44.5816Z" fill="#5CF275"/>
<path d="M100 146.198V123.094L88 125.402L84 136.95L100 146.198Z" fill="#61FF7B"/>
<path d="M100 146.201L84 136.953L92 155.425V173.901L100 169.285V146.201Z" fill="#5CF275"/>
<path d="M100 169.285L116 150.809L120 134.641L100 146.201V169.285Z" fill="#49BF5C"/>
<path d="M164 72.2891L148 76.9051L140 100.001L160 111.549L180 100.001L164 72.2891Z" fill="#4ECC62"/>
<path d="M160 111.548L164 127.712L180 100" fill="#49BF5C"/>
<path d="M100 123.094L120 134.638L100 146.198V123.094Z" fill="#4ECC62"/>
</svg>
