<svg width="50" height="50" viewBox="0 0 50 50" fill="none" xmlns="http://www.w3.org/2000/svg">
<path d="M43 14.5994V33.0794L23 44.6294V44.6194L7 35.3894V16.9094L27 5.35938L43 14.5994Z" fill="#E68F3A"/>
<path d="M23 26.1513V44.6263L7 35.3913V16.9062L23 26.1513Z" fill="#FF9F40"/>
<path d="M17 22.6928V27.3198L13 25.0098V20.3828L17 22.6928Z" fill="#CCCCCC"/>
<path d="M17 22.6929L37 11.1459L33 8.83594L13 20.3829L17 22.6929Z" fill="#A8A8A8"/>
<path d="M43 33.0826L23 44.6296V26.1486L43 14.6016V33.0826Z" fill="#B3702D"/>
<path d="M12 24.4219V26.7309L18 30.1949V27.8859L12 24.4219Z" fill="#D98836"/>
<path d="M12 24.4219V26.7309L14 25.5759L12 24.4219Z" fill="#B3702D"/>
</svg>
