<svg width="100" height="100" viewBox="0 0 100 100" fill="none" xmlns="http://www.w3.org/2000/svg">
<path d="M42 17.6719L41 18.2461L3 40.1875L2 40.7656V41.9219V48.8398V49.9922L3 50.5703L57 81.7539L58 82.3281L59 81.7539L97 59.8125L98 59.2344V58.0781V51.1602V50.0078L97 49.4297L43 18.2461L42 17.6719ZM41.5 20.8477V41.4141L5.85938 41.4219L41.5 20.8477ZM42.5 20.8477L94.1328 50.6602L42.5 50.6523V20.8477ZM41.5 42.4141V51.1523C41.5 51.2849 41.5527 51.4121 41.6465 51.5059C41.7402 51.5996 41.8674 51.6523 42 51.6523L57.5 51.6562V72.2266L5.86719 42.4219L41.5 42.4141ZM4.5 42.7852L57.5 73.3828V79.1523L4.5 48.5508V42.7852ZM58.5 51.6562L94.1328 51.6602L58.5 72.2266V51.6562ZM95.5 52.0273V57.793L58.5 79.1523V73.3828L95.5 52.0273Z" fill="white"/>
</svg>
