<svg width="200" height="200" viewBox="0 0 200 200" fill="none" xmlns="http://www.w3.org/2000/svg">
<path d="M160 93.0819V65.3619L136 51.5219L120 60.7619L88 42.2819V23.8019L64 9.92188L40 23.8019V51.5219L56 60.7619V97.6819L40 106.922V134.642L64 148.482L80 139.242L112 157.722V176.202L136 190.082L160 176.202V148.482L144 139.242V102.322L160 93.0819ZM128 139.242L120 143.882L88 125.402V106.922L72 97.6819V60.7619L80 56.1219L112 74.6019V93.0819L128 102.322V139.242Z" fill="#6189FF"/>
<path d="M40 23.7857L64 9.92969L88 23.7857L64 37.6457L40 23.7857Z" fill="#577BE6"/>
<path d="M88 23.7891V51.5051L64 65.3611V37.6491L88 23.7891Z" fill="#4460B3"/>
<path d="M112 65.3638L136 51.5078L160 65.3638L136 79.2198L112 65.3638Z" fill="#577BE6"/>
<path d="M160 65.3594V93.0714L136 106.927V79.2154L160 65.3594Z" fill="#4460B3"/>
<path d="M40 106.926L64 93.0703L88 106.926L64 120.782L40 106.926Z" fill="#577BE6"/>
<path d="M88 106.93V134.642L64 148.498V120.786L88 106.93Z" fill="#4460B3"/>
<path d="M112 148.497L136 134.641L160 148.497L136 162.353L112 148.497Z" fill="#577BE6"/>
<path d="M160 148.492V176.208L136 190.064V162.348L160 148.492Z" fill="#4460B3"/>
<path d="M64 111.55V65.3622L56 60.7422V106.93L64 111.55Z" fill="#66E1FF"/>
<path d="M64 111.55V65.3622L72 60.7422V106.93L64 111.55Z" fill="#479DB3"/>
<path d="M136 153.113V106.925L128 102.305V148.493L136 153.113Z" fill="#66E1FF"/>
<path d="M136 153.113V106.925L144 102.305V148.493L136 153.113Z" fill="#479DB3"/>
<path d="M72 125.406L112 148.498V157.738L72 134.642V125.406Z" fill="#66E1FF"/>
<path d="M72 125.401L112 148.493L120 143.877L80 120.781L72 125.401Z" fill="#5CCAE6"/>
<path d="M72 42.2656L112 65.3616V74.5976L72 51.5056V42.2656Z" fill="#66E1FF"/>
<path d="M72 42.2644L112 65.3604L120 60.7404L80 37.6484L72 42.2644Z" fill="#5CCAE6"/>
</svg>
