<svg width="200" height="200" viewBox="0 0 200 200" fill="none" xmlns="http://www.w3.org/2000/svg">
<path d="M76 118.478L60 90.7656L52 95.3816L76 136.954L116 113.858L108 100.002L76 118.478Z" stroke="white" stroke-miterlimit="10" stroke-linejoin="round"/>
<path d="M156 67.6646L116 26.0966L76 21.4766L48 37.6406L32 74.5926L48 129.357L88 171.589L128 176.209L156 160.041L172 123.089L156 67.6646Z" stroke="white" stroke-miterlimit="10" stroke-linejoin="round"/>
<path d="M108 100.003L116 95.3828L124 109.239L116 113.859" stroke="white" stroke-miterlimit="10" stroke-linejoin="round"/>
<path d="M48 37.6406L88 42.2606L128 83.8326L144 139.257L128 176.209" stroke="white" stroke-miterlimit="10" stroke-linejoin="round"/>
<path d="M88 42.2656L116 26.1016" stroke="white" stroke-miterlimit="10" stroke-linejoin="round"/>
<path d="M128 83.8399L156 67.6719" stroke="white" stroke-miterlimit="10" stroke-linejoin="round"/>
<path d="M144 139.262L172 123.094" stroke="white" stroke-miterlimit="10" stroke-linejoin="round"/>
<path d="M60 90.7606L68 86.1406L84 113.853" stroke="white" stroke-miterlimit="10" stroke-linejoin="round"/>
<path d="M76.0017 21.4834L116.002 26.1034L156.002 67.6714L172.002 123.095L156.002 160.047L128.002 176.211L88.0017 171.591L48.0017 129.363L32.0017 74.5994L48.0017 37.6474L76.0017 21.4834ZM75.1457 17.3594L74.0017 18.0194L46.0017 34.1834L44.8577 34.8434L44.3337 36.0554L28.3337 73.0074L27.7617 74.3314L28.1617 75.7234L44.1617 130.487L44.4337 131.415L45.0977 132.115L85.0977 174.347L86.0977 175.403L87.5417 175.571L127.542 180.191L128.854 180.343L129.998 179.683L157.998 163.519L159.142 162.859L159.666 161.647L175.666 124.695L176.238 123.375L175.838 121.995L159.838 66.5714L159.562 65.6194L158.874 64.9074L118.874 23.3394L117.878 22.3034L116.45 22.1394L76.4497 17.5194L75.1457 17.3594Z" fill="white"/>
</svg>
