<svg width="100" height="100" viewBox="0 0 100 100" fill="none" xmlns="http://www.w3.org/2000/svg">
<path d="M29.9961 3.8125L28.9961 4.39453L24.9961 6.71484L24 7.29297V8.44531V16.5117L23.0039 15.9336L22 15.3516L20.9961 15.9336L16.9961 18.2539L16 18.832V19.9844V63.8633V65.0195L17 65.5977L69 95.6172L70 96.1953L71 95.6172L79 90.9961L82.9961 88.6992L84 88.1211V86.9648V43.082V41.9297L83 41.3516L51.5703 23.2031L47.8359 14.5664L47.5703 13.9609L47 13.6328L31 4.39062L29.9961 3.8125ZM30 6.70312L45.0039 15.3672L42 17.0938L26.9961 8.44141L30 6.70312ZM26.5 9.3125L41.6055 18.0234L45.543 27.1094C45.5851 27.2076 45.6577 27.2898 45.75 27.3438L77.5 45.6758V83.7812L74.5 82.0469V47.6953C74.5001 47.6074 74.477 47.5211 74.4332 47.445C74.3893 47.3689 74.3261 47.3057 74.25 47.2617L26.5 19.6953V9.3125ZM45.7656 16.082L49.3672 24.3945L46.2383 26.1953L42.6367 17.8828L45.7656 16.082ZM22 18.2422L25.75 20.418C25.7639 20.4265 25.7783 20.4343 25.793 20.4414L73 47.6953L70 49.4258L19 19.9844L22 18.2422ZM18.5 20.8516L69.5 50.293V93.0156L18.5 63.5742V20.8516ZM50.0078 25.1836L81 43.082L78 44.8086L47.0039 26.9102L50.0078 25.1836ZM33.9609 35.6484C33.8352 35.6583 33.7179 35.7153 33.6324 35.808C33.5469 35.9007 33.4996 36.0223 33.5 36.1484V66.168C33.4999 66.2558 33.523 66.3422 33.5668 66.4183C33.6107 66.4944 33.6739 66.5576 33.75 66.6016L53.75 78.1484C53.8261 78.1923 53.9123 78.2154 54.0001 78.2154C54.0879 78.2154 54.1742 78.1922 54.2502 78.1482C54.3262 78.1043 54.3894 78.0411 54.4332 77.965C54.477 77.8889 54.5001 77.8027 54.5 77.7148V56.9336C54.5002 56.8459 54.4773 56.7597 54.4336 56.6836L46.4336 42.8242C46.3891 42.7494 46.3258 42.6874 46.25 42.6445L34.25 35.7148C34.1626 35.664 34.0618 35.6408 33.9609 35.6484ZM34.5 37.0156L45.5 43.3633V52.3125C45.4999 52.4004 45.523 52.4867 45.5668 52.5628C45.6107 52.6389 45.6739 52.7022 45.75 52.7461L53.5 57.2188V76.8477L34.5 65.8828V37.0156ZM81.5 43.9492V86.6758L77.75 88.832L70.5 93.0156V50.293L73.5 48.5586V86.9531C73.4999 87.0409 73.5229 87.1272 73.5668 87.2033C73.6106 87.2794 73.6737 87.3426 73.7498 87.3865C73.8258 87.4305 73.9121 87.4536 73.9999 87.4537C74.0877 87.4537 74.1739 87.4306 74.25 87.3867L78.25 85.0781C78.3261 85.0342 78.3893 84.971 78.4332 84.8949C78.477 84.8187 78.5001 84.7324 78.5 84.6445V45.6758L81.5 43.9492ZM46.5 44.9453L52.6328 55.5664L46.5 52.0234V44.9453ZM74.5 83.2031L77 84.6445L74.5 86.0859V83.2031Z" fill="white"/>
</svg>
