<svg width="200" height="200" viewBox="0 0 200 200" fill="none" xmlns="http://www.w3.org/2000/svg">
<path d="M52.068 11.957L52 141.569L88 162.353L96 176.213L116 187.757L124 183.141L139.932 192.485L147.932 187.865L148 95.381L116 40.137L60 7.625L52.068 11.957Z" stroke="white" stroke-miterlimit="10" stroke-linejoin="round"/>
<path d="M52.0664 11.9531L107.998 44.7491L139.998 99.9971L139.93 192.481" stroke="white" stroke-miterlimit="10" stroke-linejoin="round"/>
<path d="M148 95.3768L140 99.9968L108 81.5208V44.7488L116 40.1328" stroke="white" stroke-miterlimit="10" stroke-linejoin="round"/>
<path d="M60 7.62325L116 40.1353L148 95.3833L147.932 187.867L139.932 192.487L124 183.139L116 187.759L96 176.211L88 162.355L52 141.571L52.068 11.9552L60 7.62325ZM60.06 3.03125L58.084 4.11125L50.152 8.44325L48.068 9.57925V11.9513L48 141.567V143.879L50 145.035L85.072 165.283L92.536 178.211L93.072 179.139L94 179.675L114 191.223L116 192.379L118 191.223L123.984 187.767L137.908 195.935L139.916 197.111L141.932 195.947L149.932 191.327L151.932 190.175V187.867L152 95.3833V94.3073L151.46 93.3753L119.46 38.1272L118.928 37.2072L118.008 36.6712L62.008 4.15925L60.06 3.03125Z" fill="white"/>
<path d="M88 162.351V139.259L104 130.023L124 141.567L132 155.423V178.519L124.004 183.127L124 160.043L116 146.187L96 134.639" stroke="white" stroke-miterlimit="10" stroke-linejoin="round"/>
<path d="M116 146.19L124 141.57" stroke="white" stroke-miterlimit="10" stroke-linejoin="round"/>
<path d="M124 160.042L132 155.422" stroke="white" stroke-miterlimit="10" stroke-linejoin="round"/>
<path d="M101.996 161.194L97.9961 154.266L93.9961 156.578L101.996 170.434L117.996 161.194L113.996 154.266L101.996 161.194Z" stroke="white" stroke-miterlimit="10" stroke-linejoin="round"/>
</svg>
