<svg width="200" height="200" viewBox="0 0 200 200" fill="none" xmlns="http://www.w3.org/2000/svg">
<path d="M104 65.3594L16 116.163V134.639L96 180.859V180.827L184 130.051V111.547L104 65.3594Z" fill="#5CCAE6"/>
<path d="M168 65.3563L160 97.6763L100 132.316L64 134.636L40 116.156L52 86.1562L73.332 73.8283L76 63.0443L100 49.1963V44.5723L120 33.0363V23.7843L128 19.1562L136 23.7843V33.0363L152 42.2762V46.8763L160 51.5003V60.7163L168 65.3563Z" fill="#A8A8A8"/>
<path d="M96 162.352V180.86L16 134.64V116.164L36 136.952L56 139.26L76 160.044L96 162.352Z" fill="#66E1FF"/>
<path d="M96 162.351V180.827L184 130.051V111.547L160 134.671L140 136.979L120 157.763L96 162.351Z" fill="#479DB3"/>
<path d="M92 109.235L168 65.3594L160 97.6914L100 132.331L92 109.235Z" fill="#4460B3"/>
<path d="M64 134.638L40 116.162L92 109.234L100 132.33L64 134.638Z" fill="#4D6DCC"/>
<path d="M72 79.2149L104 97.6909L108 81.5229L76 63.0469L72 79.2149Z" fill="#66E1FF"/>
<path d="M160 65.3638L104 97.6958L108 81.5278L160 51.5078V65.3638Z" fill="#737373"/>
<path d="M152 51.5056L124 67.6696V58.4336L152 42.2656V51.5056Z" fill="#737373"/>
<path d="M100 53.8141L124 67.6701V58.4341L100 44.5781V53.8141Z" fill="#CCCCCC"/>
<path d="M136 42.2651L128 46.8851V28.4091L136 23.7891V42.2651Z" fill="#737373"/>
<path d="M120 42.2651L128 46.8851V28.4091L120 23.7891V42.2651Z" fill="#CCCCCC"/>
<path d="M156 67.6657V58.4297L148 63.0457V72.2857L156 67.6657Z" fill="#479DB3"/>
<path d="M140 76.9079V67.6719L132 72.2919V81.5279L140 76.9079Z" fill="#479DB3"/>
<path d="M124 86.1462V76.9062L116 81.5263V90.7663L124 86.1462Z" fill="#479DB3"/>
</svg>
