<svg width="200" height="200" viewBox="0 0 200 200" fill="none" xmlns="http://www.w3.org/2000/svg">
<path d="M60.0078 3.02344L58.0078 4.17188L50.0078 8.77344L48 9.92188V12.2422V141.562V143.867L50 145.023L138 195.867L140.008 197.023L142.008 195.867L150.008 191.227L152 190.062V187.758V58.4375V56.1328L150 54.9766L62 4.17969L60.0078 3.02344ZM60 8.79688L146 58.4375L140.008 61.8906L54 12.2422L60 8.79688ZM53 13.9766L139.008 63.625L139 190.664L53 140.984V13.9766ZM63.9219 32.0312C63.6704 32.051 63.4357 32.165 63.2648 32.3504C63.0938 32.5359 62.9993 32.779 63 33.0312V42.2656C62.9998 42.4414 63.0459 42.614 63.1337 42.7663C63.2215 42.9185 63.3478 43.0449 63.5 43.1328L127.5 80.0781C127.652 80.1656 127.823 80.2118 127.998 80.212C128.173 80.2123 128.345 80.1667 128.497 80.0797C128.649 79.9927 128.775 79.8675 128.863 79.7164C128.952 79.5653 128.999 79.3937 129 79.2188V69.9766C129 69.8008 128.954 69.6282 128.866 69.4759C128.779 69.3237 128.652 69.1973 128.5 69.1094L64.5 32.1641C64.3252 32.0623 64.1236 32.016 63.9219 32.0312ZM65 34.7578L127 70.5547V77.4844L65 41.6875V34.7578ZM63.9219 59.7422C63.6704 59.7619 63.4357 59.8759 63.2648 60.0614C63.0938 60.2468 62.9993 60.49 63 60.7422V69.9766C62.9998 70.1523 63.0459 70.325 63.1337 70.4772C63.2215 70.6295 63.3478 70.7559 63.5 70.8438L103.5 93.9375C103.652 94.0253 103.825 94.0715 104 94.0714C104.176 94.0713 104.348 94.025 104.5 93.9371C104.652 93.8492 104.779 93.7228 104.866 93.5707C104.954 93.4185 105 93.2459 105 93.0703V83.8359C105 83.6602 104.954 83.4875 104.866 83.3353C104.779 83.1831 104.652 83.0566 104.5 82.9688L64.5 59.875C64.3252 59.7733 64.1236 59.727 63.9219 59.7422ZM147 60.1719V187.188L141 190.664L141.008 63.625L147 60.1719ZM65 62.4766L103 84.4141V91.3359L65 69.3984V62.4766ZM63.9219 78.2188C63.6704 78.2385 63.4357 78.3525 63.2648 78.5379C63.0938 78.7234 62.9993 78.9665 63 79.2188V88.4531C62.9998 88.6289 63.0459 88.8015 63.1337 88.9538C63.2215 89.106 63.3478 89.2324 63.5 89.3203L103.5 112.414C103.652 112.502 103.825 112.548 104 112.548C104.176 112.548 104.348 112.502 104.5 112.414C104.652 112.326 104.779 112.199 104.866 112.047C104.954 111.895 105 111.722 105 111.547V102.305C104.999 102.13 104.952 101.959 104.864 101.808C104.777 101.658 104.651 101.533 104.5 101.445L64.5 78.3516C64.3252 78.2498 64.1236 78.2035 63.9219 78.2188ZM65 80.9531L103 102.883V109.812L65 87.875V80.9531ZM115.922 89.7656C115.67 89.7854 115.436 89.8994 115.265 90.0848C115.094 90.2702 114.999 90.5134 115 90.7656V100C115 100.176 115.046 100.348 115.134 100.501C115.221 100.653 115.348 100.779 115.5 100.867L127.5 107.797C127.652 107.885 127.825 107.931 128 107.931C128.176 107.931 128.348 107.884 128.5 107.797C128.653 107.709 128.779 107.582 128.866 107.43C128.954 107.278 129 107.105 129 106.93V97.6953C129 97.5196 128.954 97.3469 128.866 97.1947C128.779 97.0424 128.652 96.916 128.5 96.8281L116.5 89.8984C116.325 89.7967 116.124 89.7504 115.922 89.7656ZM117 92.5L127 98.2656V105.195L117 99.4219V92.5ZM63.9219 96.6953C63.6704 96.715 63.4357 96.829 63.2648 97.0145C63.0938 97.1999 62.9993 97.4431 63 97.6953V106.93C62.9998 107.105 63.0459 107.278 63.1337 107.43C63.2215 107.583 63.3478 107.709 63.5 107.797L103.5 130.891C103.652 130.978 103.825 131.025 104 131.025C104.176 131.024 104.348 130.978 104.5 130.89C104.652 130.802 104.779 130.676 104.866 130.524C104.954 130.372 105 130.199 105 130.023V120.781C105 120.606 104.954 120.433 104.866 120.281C104.779 120.128 104.652 120.002 104.5 119.914L64.5 96.8281C64.3252 96.7264 64.1236 96.6801 63.9219 96.6953ZM65 99.4219L103 121.359V128.289L65 106.352V99.4219ZM115.922 108.234C115.67 108.254 115.436 108.368 115.265 108.554C115.094 108.739 114.999 108.982 115 109.234V118.477C115 118.652 115.046 118.825 115.134 118.977C115.221 119.129 115.348 119.256 115.5 119.344L127.5 126.273C127.652 126.361 127.825 126.407 128 126.407C128.176 126.407 128.348 126.361 128.5 126.273C128.653 126.185 128.779 126.059 128.866 125.907C128.954 125.754 129 125.582 129 125.406V116.164C129 115.988 128.954 115.816 128.866 115.663C128.779 115.511 128.652 115.385 128.5 115.297L116.5 108.367C116.355 108.284 116.191 108.238 116.023 108.234C115.99 108.233 115.956 108.233 115.922 108.234ZM117 110.969L127 116.742V123.672L117 117.898V110.969ZM115.922 126.711C115.67 126.731 115.436 126.845 115.265 127.03C115.094 127.216 114.999 127.459 115 127.711V136.953C115 137.129 115.046 137.302 115.134 137.454C115.221 137.606 115.348 137.732 115.5 137.82L127.5 144.742C127.652 144.83 127.823 144.876 127.998 144.876C128.173 144.876 128.345 144.831 128.497 144.744C128.649 144.657 128.775 144.532 128.863 144.38C128.952 144.229 128.999 144.058 129 143.883V134.641C129 134.465 128.954 134.292 128.866 134.14C128.779 133.988 128.652 133.861 128.5 133.773L116.5 126.844C116.355 126.76 116.191 126.715 116.023 126.711C115.99 126.709 115.956 126.709 115.922 126.711ZM117 129.445L127 135.219V142.148L117 136.375V129.445ZM103.922 147.5C103.672 147.52 103.438 147.633 103.267 147.816C103.097 148 103.001 148.241 103 148.492V157.734C103 157.91 103.046 158.083 103.134 158.235C103.221 158.387 103.348 158.514 103.5 158.602L127.5 172.461C127.652 172.549 127.825 172.595 128 172.595C128.176 172.595 128.348 172.548 128.5 172.461C128.653 172.373 128.779 172.246 128.866 172.094C128.954 171.942 129 171.769 129 171.594V162.352C129 162.176 128.954 162.003 128.866 161.851C128.779 161.699 128.652 161.572 128.5 161.484L104.5 147.633C104.325 147.531 104.124 147.485 103.922 147.5ZM105 150.227L127 162.93V169.859L105 157.156V150.227Z" fill="white"/>
</svg>
