<svg width="100" height="100" viewBox="0 0 100 100" fill="none" xmlns="http://www.w3.org/2000/svg">
<path d="M64 7.26562L62.9961 7.84766L58.9961 10.1602L58 10.7383V11.8906V15.3633L49 20.5508L48 21.1289V22.2852V23.4414L37 29.7891L36.2617 30.2148L36.0586 31.043L34.9297 35.6094L25 41.3438L24.3984 41.6914L24.1406 42.332L22.0039 47.6836L7 56.3477L6 56.9258V58.0781V67.3164V68.4688L7 69.0469L47 92.1406L48 92.7188L49 92.1445L93 66.7578L94 66.1797V65.0234V55.7695V54.6172L93 54.0391L82.3008 47.8633L85.9414 33.1562L86.3008 31.6992L85.0039 30.9453L82 29.2031V25.75V24.5938L81 24.0156L78 22.2812V21.1367V19.9805L77 19.4023L70 15.3633V11.8906V10.7383L69.0039 10.1602L65.0039 7.84766L64 7.26562ZM64 10.1523L67 11.8906L64 13.6211L61 11.8906L64 10.1523ZM60.5 12.7578L63.5 14.4883V22.5703L60.5 20.8398V16.5391C60.5002 16.5313 60.5002 16.5234 60.5 16.5156V12.7578ZM67.5 12.7578V16.5156V20.8398L64.5 22.5703V14.4883L67.5 12.7578ZM59.5 17.3828V21.1289C59.4999 21.2168 59.523 21.3031 59.5668 21.3792C59.6107 21.4554 59.6739 21.5186 59.75 21.5625L63.75 23.8711C63.826 23.915 63.9122 23.9381 64 23.9381C64.0878 23.9381 64.174 23.915 64.25 23.8711L68.25 21.5625C68.3261 21.5186 68.3893 21.4554 68.4332 21.3792C68.477 21.3031 68.5001 21.2168 68.5 21.1289V17.3828L75 21.1367L62 28.6367L51 22.2852L59.5 17.3828ZM75.5 22.0039V23.4375V25.4609L62.5 32.9648V29.5L75.5 22.0039ZM50.5 23.1523L61.5 29.5V32.9648L50.5 26.6133V24.6172C50.5001 24.6107 50.5001 24.6042 50.5 24.5977V23.1523ZM76.5 24.3008L79.0039 25.7461L54 40.1797L39 31.5195L49.5 25.4609V26.9023C49.4999 26.9902 49.523 27.0765 49.5668 27.1527C49.6107 27.2288 49.6739 27.292 49.75 27.3359L61.75 34.2617C61.826 34.3056 61.9122 34.3287 62 34.3287C62.0878 34.3287 62.174 34.3056 62.25 34.2617L76.25 26.1797C76.3255 26.1361 76.3883 26.0735 76.4322 25.9981C76.476 25.9227 76.4994 25.8372 76.5 25.75V24.3008ZM79.5 26.6133V30.3555V32.3867L78.5 32.9648V29.2109C78.5 29.1439 78.4866 29.0776 78.4605 29.0159C78.4344 28.9542 78.3962 28.8984 78.3481 28.8518C78.3 28.8051 78.243 28.7686 78.1805 28.7444C78.118 28.7202 78.0513 28.7089 77.9844 28.7109C77.902 28.7134 77.8215 28.7362 77.75 28.7773L73.75 31.0859C73.6739 31.1299 73.6107 31.1931 73.5668 31.2692C73.523 31.3453 73.4999 31.4317 73.5 31.5195V35.8516L70.5 37.582V33.832C70.5 33.765 70.4866 33.6987 70.4605 33.637C70.4344 33.5753 70.3962 33.5195 70.3481 33.4729C70.3 33.4262 70.243 33.3897 70.1805 33.3655C70.118 33.3413 70.0513 33.3299 69.9844 33.332C69.902 33.3345 69.8215 33.3573 69.75 33.3984L65.75 35.707C65.6739 35.751 65.6107 35.8142 65.5668 35.8903C65.523 35.9664 65.4999 36.0528 65.5 36.1406V40.4688L62.5 42.2031V38.4492C62.5 38.3822 62.4866 38.3159 62.4605 38.2542C62.4344 38.1925 62.3962 38.1367 62.3481 38.09C62.3 38.0434 62.243 38.0069 62.1805 37.9827C62.118 37.9585 62.0513 37.9471 61.9844 37.9492C61.902 37.9517 61.8215 37.9745 61.75 38.0156L57.75 40.3242C57.6739 40.3682 57.6107 40.4314 57.5668 40.5075C57.523 40.5836 57.4999 40.6699 57.5 40.7578V45.0898L52.7656 47.8242L54.4336 41.0859L79.5 26.6133ZM77.5 30.0781V33.543L74.5 35.2734V31.8086L77.5 30.0781ZM80.5 31.2227L83 32.6758L45.8359 54.1328L20.7852 57.4688L24.0508 49.293L24.0547 49.2891C24.0589 49.2788 24.0628 49.2684 24.0664 49.2578L26.3984 43.4219L35.8984 37.9336L35.5156 39.4844C35.4901 39.5892 35.4991 39.6994 35.5413 39.7987C35.5835 39.898 35.6567 39.9809 35.75 40.0352L51.75 49.2734C51.826 49.3173 51.9122 49.3404 52 49.3404C52.0878 49.3404 52.174 49.3173 52.25 49.2734L80.25 33.1094C80.3261 33.0654 80.3893 33.0022 80.4332 32.9261C80.477 32.85 80.5001 32.7636 80.5 32.6758V31.2227ZM38.3242 32.2852L53.4258 41.0039L51.6758 48.0781L36.5742 39.3594L37.1523 37.0312L38.3242 32.2852ZM83.2344 33.6953L79.5703 48.4922L79.7266 48.418L50.2734 65.4258L46.6094 54.8398L83.2344 33.6953ZM69.5 34.6953V38.1602L66.5 39.8945V36.4297L69.5 34.6953ZM61.5 39.3164V42.7812L58.5 44.5117V41.0469L61.5 39.3164ZM79.9961 49.4141L91.1758 55.8711L79.7734 66.8555L69.9414 67.9883C69.8265 68.0027 69.7202 68.0566 69.6406 68.1406L59.75 78.418L47.9805 80.668L38.2344 79.543L28.3594 69.2812C28.2798 69.1972 28.1735 69.1433 28.0586 69.1289L18.2344 67.9961L8.80469 58.1914L22.6016 50.2266L19.5352 57.8906C19.4948 57.9918 19.4886 58.1035 19.5175 58.2085C19.5464 58.3136 19.6088 58.4063 19.6953 58.4727L31.6953 67.7109C31.7908 67.7857 31.9102 67.8231 32.0312 67.8164L50.0312 66.6602C50.1083 66.6552 50.1832 66.6325 50.25 66.5938L79.9961 49.4141ZM45.6602 55.1641L49.3125 65.707L32.1562 66.8047L21.2578 58.4141L45.6602 55.1641ZM91.5 56.9453V64.7344L48.5 89.543V81.5859L60.0938 79.3711C60.1951 79.3515 60.2879 79.301 60.3594 79.2266L70.2344 68.9609L80.0586 67.8281C80.1673 67.8154 80.2689 67.7674 80.3477 67.6914L91.5 56.9453ZM8.5 59.3203L17.6406 68.8203C17.7208 68.9029 17.827 68.9554 17.9414 68.9688L27.7656 70.1016L37.6406 80.3633C37.7202 80.4473 37.8265 80.5012 37.9414 80.5156L47.5 81.6172V89.543L8.5 67.0273V59.3203Z" fill="white"/>
</svg>
