<svg width="200" height="200" viewBox="0 0 200 200" fill="none" xmlns="http://www.w3.org/2000/svg">
<path d="M176 74.5869V139.271L100 183.139V183.099L24 139.263V74.5789L100 30.7109L176 74.5869Z" fill="#E68F3A"/>
<path d="M56 42.2634L100 16.8594L144 42.2634L160 74.5954L100 109.215L40 74.5954L56 42.2634Z" fill="#5CCAE6"/>
<path d="M100 118.451V183.115L24 139.259V74.5547L100 118.451Z" fill="#FF9F40"/>
<path d="M176 139.278L100 183.138V118.45L176 74.5938V139.278Z" fill="#B3702D"/>
<path d="M48 102.273V111.509L72 125.369V116.129L48 102.273Z" fill="#D98836"/>
<path d="M48 102.273V111.509L56 106.893L48 102.273Z" fill="#B3702D"/>
<path d="M40 74.5976L56 42.2656L100 67.6376V109.218L40 74.5976Z" fill="#66E1FF"/>
<path d="M160 74.5976L144 42.2656L100 67.6376V109.218L160 74.5976Z" fill="#479DB3"/>
<path d="M80 56.1216V69.9776L68 81.5256V90.7656L40 74.5976L56 42.2656L80 56.1216Z" fill="#61FF7B"/>
<path d="M132 35.3359L120 46.8839V56.1199L144 42.2639L132 35.3359Z" fill="#57E66F"/>
<path d="M120 56.1216L128 69.9776L120 83.8376V97.6936L160 74.5976L144 42.2656L120 56.1216Z" fill="#44B356"/>
<path d="M80 56.1204L76 44.5764L64 37.6484L56 42.2644L80 56.1204Z" fill="#57E66F"/>
</svg>
