<svg width="39" height="39" viewBox="0 0 39 39" fill="none" xmlns="http://www.w3.org/2000/svg">
<g clip-path="url(#clip0_4536_108829)">
<path d="M22.903 30.5009C24.3946 28.7357 25.2171 26.4908 25.2163 24.1768L25.2163 8.89211L13.968 8.89211L13.968 24.1768C13.968 26.4901 14.7898 28.7357 16.2813 30.5009L19.5922 34.4195L22.903 30.5009ZM17.9996 29.05C16.8509 27.6897 16.2177 25.9602 16.2169 24.1775L16.2169 11.1426L22.9659 11.1426L22.9659 24.1775C22.9659 25.9595 22.3334 27.6897 21.1832 29.05L19.5906 30.9337L17.9996 29.05Z" fill="white"/>
<path d="M15.0958 10.0218L24.096 10.0218L24.096 24.1816C24.096 26.2308 23.3697 28.214 22.0476 29.7795L19.5959 32.6815L17.1442 29.7795C15.8221 28.214 15.0958 26.2308 15.0958 24.1816L15.0958 10.0218Z" fill="white"/>
</g>
<defs>
<clipPath id="clip0_4536_108829">
<rect width="27" height="27" fill="white" transform="translate(38.6836 19.0938) rotate(135)"/>
</clipPath>
</defs>
</svg>
