<svg width="200" height="200" viewBox="0 0 200 200" fill="none" xmlns="http://www.w3.org/2000/svg">
<path d="M84 35.3438L82 36.4922L6 80.375L4 81.5312V83.8438V97.6797V99.9844L6 101.141L114 163.508L116 164.656L118 163.508L194 119.625L196 118.469V116.156V102.32V100.016L194 98.8594L86 36.4922L84 35.3438ZM83 41.6953V82.8281L11.7188 82.8438L83 41.6953ZM85 41.6953L188.266 101.32L85 101.305V41.6953ZM83 84.8281V102.305C83 102.57 83.1054 102.824 83.2929 103.012C83.4805 103.199 83.7348 103.305 84 103.305L115 103.312V144.453L11.7344 84.8438L83 84.8281ZM9 85.5703L115 146.766V158.305L9 97.1016V85.5703ZM117 103.312L188.266 103.32L117 144.453V103.312ZM191 104.055V115.586L117 158.305V146.766L191 104.055Z" fill="white"/>
</svg>
