<svg width="132" height="41" viewBox="0 0 132 41" fill="none" xmlns="http://www.w3.org/2000/svg">
<path d="M0.027275 33.9545C0.12201 35.0564 0.625007 36.6676 2.47234 38.0985C5.23995 40.2415 11.4902 42.3056 25.5516 39.9621C25.6643 39.9418 36.0581 37.9543 55.0367 33.1094C80.0151 26.7345 99.2508 28.6522 101.29 29.1615C101.477 29.1885 114.835 30.7952 120.341 38.1661L120.992 37.6816C115.275 30.0245 101.998 28.4268 101.434 28.3637C99.0388 27.7621 80.0399 25.8917 54.8359 32.323C35.8844 37.1611 25.511 39.1418 25.4095 39.1621C11.6458 41.4516 5.60987 39.4979 2.97082 37.454C1.6919 36.4625 0.954323 35.2277 0.837033 33.8801C0.403959 28.9091 6.0452 24.3008 6.10384 24.2558L5.59408 23.6226C5.34822 23.8209 -0.444144 28.544 0.027275 33.95V33.9545Z" fill="#034EA2"/>
<path d="M46.1247 7.05762H50.8118L46.154 23.8839L41.3789 23.8523L46.1247 7.05762Z" fill="#4D4D4D"/>
<path d="M56.7266 7.31909L48.6426 14.6066L51.7192 24.0011H57.489L53.7109 14.6945L62.1468 7.35064L56.7266 7.31909Z" fill="#4D4D4D"/>
<path d="M63.759 7.43628L62.4102 10.9494H76.3836L77.5542 7.43628H63.759Z" fill="#4D4D4D"/>
<path d="M67.0087 11.8845H71.6078L68.4748 24.0011H63.4922L67.0087 11.8845Z" fill="#4D4D4D"/>
<path d="M82.7702 7.43628L81.6289 11.1251L92.467 11.1837C92.467 11.1837 92.8189 11.1837 92.6994 11.506L89.1851 23.9719H93.8429L97.9459 9.42605C97.9459 9.42605 98.4128 7.69993 96.8023 7.49487L82.7702 7.43628Z" fill="#4D4D4D"/>
<path d="M81.5085 11.8845L78.1387 24.0304H82.6499L86.0039 11.9724L81.5085 11.8845Z" fill="#4D4D4D"/>
<path d="M101.749 7.64355H114.93L113.906 11.1837L100.725 11.2423L101.749 7.64355Z" fill="#4D4D4D"/>
<path d="M100.727 11.9724H105.148L104.386 14.1087H112.12L110.92 17.5902H103.567L102.689 20.7224H111.328L110.358 24.2558L97.2422 24.2062L100.727 11.9724Z" fill="#4D4D4D"/>
<path d="M117.814 7.67065L131.922 7.69995L130.926 11.3595H116.727L117.814 7.67065Z" fill="#4D4D4D"/>
<path d="M121.405 12.1189H126.122L122.781 24.2648H117.918L121.405 12.1189Z" fill="#4D4D4D"/>
<path d="M34.6404 11.1882C34.6832 11.0507 38.0395 0.657949 38.2222 0.0900879C37.7937 0.410073 23.8068 10.8389 23.3398 11.1882H34.6404Z" fill="#EF4123"/>
<path d="M30.8461 22.9397C30.9657 22.5701 34.3355 12.1323 34.4167 11.8777H23.0215C23.238 12.1842 30.6228 22.622 30.8484 22.9397H30.8461Z" fill="#EF4123"/>
<path d="M6.54883 23.7036H18.3862C18.4268 23.5616 21.4741 13.0044 21.6342 12.4568C21.1696 12.8038 6.79018 23.5211 6.54883 23.7036Z" fill="#034EA2"/>
<path d="M30.5362 23.7038C30.3197 23.3951 22.6552 12.5629 22.4206 12.2339C22.3101 12.6215 19.1816 23.4536 19.1094 23.7038H30.5362Z" fill="#034EA2"/>
<path d="M21.2488 11.8777H10.1197C10.0768 12.0151 6.9686 22.0924 6.79492 22.6535C7.27085 22.2997 20.7796 12.227 21.2465 11.8777H21.2488Z" fill="#034EA2"/>
<path d="M13.7783 0.0202637C13.661 0.396584 10.4107 10.9336 10.334 11.1882H21.6796C21.4608 10.8795 14.0061 0.342502 13.7783 0.0202637Z" fill="#034EA2"/>
<path d="M14.6133 0C14.8298 0.306465 21.9214 10.3274 22.1537 10.6564C22.2643 10.2688 25.1582 0.247876 25.2304 0H14.6133Z" fill="#034EA2"/>
<path d="M37.1822 0H25.9539C25.9133 0.141965 23.0306 10.1201 22.875 10.6677C23.3351 10.3252 36.7176 0.347026 37.1822 0Z" fill="#034EA2"/>
</svg>
