<svg width="20" height="20" viewBox="0 0 20 20" fill="none" xmlns="http://www.w3.org/2000/svg">
<path fill-rule="evenodd" clip-rule="evenodd" d="M10.8309 13.3312C10.6105 13.5515 10.3116 13.6753 10 13.6753C9.68835 13.6753 9.38946 13.5515 9.16906 13.3312L5.84411 10.0062C5.67972 9.84181 5.5678 9.6323 5.52251 9.40424C5.47722 9.17618 5.50059 8.9398 5.58968 8.72503C5.67876 8.51025 5.82954 8.32672 6.02296 8.19767C6.21637 8.06861 6.44371 7.99982 6.67623 8H13.3238C13.5563 7.99982 13.7836 8.06861 13.977 8.19767C14.1705 8.32672 14.3212 8.51025 14.4103 8.72503C14.4994 8.9398 14.5228 9.17618 14.4775 9.40424C14.4322 9.6323 14.3203 9.84181 14.1559 10.0062L10.8309 13.3312Z" fill="currentColor"/>
</svg>
