<svg width="20" height="20" viewBox="0 0 20 20" fill="none" xmlns="http://www.w3.org/2000/svg">
<path fill-rule="evenodd" clip-rule="evenodd" d="M6.66417 10.8309C6.44383 10.6105 6.32005 10.3116 6.32005 10C6.32005 9.68835 6.44383 9.38946 6.66417 9.16906L9.98911 5.84411C10.1536 5.67972 10.3631 5.5678 10.5911 5.52251C10.8192 5.47722 11.0556 5.50059 11.2703 5.58968C11.4851 5.67876 11.6686 5.82954 11.7977 6.02296C11.9268 6.21637 11.9955 6.44371 11.9954 6.67623L11.9954 13.3238C11.9955 13.5563 11.9268 13.7836 11.7977 13.977C11.6686 14.1705 11.4851 14.3212 11.2703 14.4103C11.0556 14.4994 10.8192 14.5228 10.5911 14.4775C10.3631 14.4322 10.1536 14.3203 9.98911 14.1559L6.66417 10.8309Z" fill="currentColor"/>
</svg>
