<svg width="20" height="20" viewBox="0 0 20 20" fill="none" xmlns="http://www.w3.org/2000/svg">
<path fill-rule="evenodd" clip-rule="evenodd" d="M13.3312 10.8309C13.5515 10.6105 13.6753 10.3116 13.6753 10C13.6753 9.68835 13.5515 9.38946 13.3312 9.16906L10.0062 5.84411C9.84181 5.67972 9.6323 5.5678 9.40424 5.52251C9.17618 5.47722 8.9398 5.50059 8.72503 5.58968C8.51025 5.67876 8.32672 5.82954 8.19767 6.02296C8.06861 6.21637 7.99982 6.44371 8 6.67623L8 13.3238C7.99982 13.5563 8.06861 13.7836 8.19767 13.977C8.32672 14.1705 8.51025 14.3212 8.72503 14.4103C8.9398 14.4994 9.17618 14.5228 9.40424 14.4775C9.6323 14.4322 9.84181 14.3203 10.0062 14.1559L13.3312 10.8309Z" fill="currentColor"/>
</svg>
