<svg width="20" height="20" viewBox="0 0 20 20" fill="none" xmlns="http://www.w3.org/2000/svg">
<path fill-rule="evenodd" clip-rule="evenodd" d="M10.8309 6.66411C10.6105 6.44377 10.3116 6.31999 10 6.31999C9.68835 6.31999 9.38946 6.44377 9.16906 6.66411L5.84411 9.98905C5.67972 10.1535 5.5678 10.363 5.52251 10.5911C5.47722 10.8191 5.50059 11.0555 5.58968 11.2703C5.67876 11.485 5.82954 11.6686 6.02296 11.7976C6.21637 11.9267 6.44371 11.9955 6.67623 11.9953H13.3238C13.5563 11.9955 13.7836 11.9267 13.977 11.7976C14.1705 11.6686 14.3212 11.485 14.4103 11.2703C14.4994 11.0555 14.5228 10.8191 14.4775 10.5911C14.4322 10.363 14.3203 10.1535 14.1559 9.98905L10.8309 6.66411Z" fill="currentColor"/>
</svg>
