<svg width="20" height="20" viewBox="0 0 20 20" fill="none" xmlns="http://www.w3.org/2000/svg">
<path fill-rule="evenodd" clip-rule="evenodd" d="M4.38262 14.6375C3.71853 13.9733 3.34545 13.0726 3.34545 12.1334C3.34545 11.1941 3.71853 10.2934 4.38262 9.62919L9.83261 4.17919C9.98898 4.02293 10.0769 3.81096 10.0769 3.5899C10.077 3.36884 9.98929 3.15681 9.83303 3.00044C9.67677 2.84407 9.4648 2.75618 9.24374 2.7561C9.02268 2.75603 8.81065 2.84377 8.65428 3.00002L3.20428 8.45002C2.2274 9.42668 1.67851 10.7514 1.67835 12.1328C1.67819 13.5141 2.22679 14.839 3.20345 15.8159C4.18011 16.7927 5.50483 17.3416 6.88619 17.3418C8.26755 17.3419 9.5924 16.7933 10.5693 15.8167L17.1976 9.18752C17.901 8.48404 18.2961 7.52995 18.296 6.53514C18.2959 5.54034 17.9007 4.58632 17.1972 3.88294C16.4937 3.17956 15.5396 2.78445 14.5448 2.78453C13.55 2.78461 12.596 3.17987 11.8926 3.88336L5.26511 10.5109C4.84546 10.9431 4.61273 11.523 4.61721 12.1255C4.62169 12.7279 4.86302 13.3043 5.28905 13.7302C5.71509 14.1562 6.2916 14.3974 6.89401 14.4017C7.49642 14.406 8.07634 14.1731 8.50845 13.7534L14.5468 7.71419C14.7031 7.55793 14.791 7.34596 14.7911 7.1249C14.7912 6.90384 14.7035 6.69181 14.5472 6.53544C14.3909 6.37907 14.179 6.29118 13.9579 6.2911C13.7368 6.29103 13.5248 6.37877 13.3684 6.53502L7.32928 12.5742C7.21192 12.6917 7.05271 12.7577 6.88666 12.7578C6.72061 12.7579 6.56133 12.692 6.44386 12.5746C6.3264 12.4572 6.26036 12.298 6.26028 12.132C6.2602 11.9659 6.32609 11.8067 6.44345 11.6892L13.0709 5.06169C13.2644 4.8681 13.4941 4.71451 13.747 4.6097C13.9998 4.50489 14.2708 4.4509 14.5445 4.45083C14.8182 4.45075 15.0893 4.50458 15.3422 4.60925C15.5951 4.71392 15.8249 4.86737 16.0184 5.06086C16.4094 5.45161 16.6292 5.98167 16.6293 6.53443C16.6295 7.0872 16.41 7.61738 16.0193 8.00836L9.39095 14.6367C8.72677 15.3008 7.826 15.6738 6.88678 15.6738C5.94756 15.6738 5.04679 15.3008 4.38262 14.6367V14.6375Z" fill="currentColor"/>
</svg>
