<svg width="20" height="20" viewBox="0 0 20 20" fill="none" xmlns="http://www.w3.org/2000/svg">
<path fill-rule="evenodd" clip-rule="evenodd" d="M16.5642 6.24399C16.7204 6.40026 16.8082 6.61219 16.8082 6.83316C16.8082 7.05413 16.7204 7.26605 16.5642 7.42232L9.19588 14.7915C9.11075 14.8767 9.00968 14.9442 8.89844 14.9903C8.7872 15.0364 8.66796 15.0601 8.54755 15.0601C8.42713 15.0601 8.3079 15.0364 8.19665 14.9903C8.08541 14.9442 7.98434 14.8767 7.89921 14.7915L4.24421 11.1365C4.16679 11.0591 4.10537 10.9671 4.06347 10.866C4.02157 10.7648 4 10.6564 4 10.5469C4 10.4374 4.02157 10.329 4.06347 10.2278C4.10537 10.1267 4.16679 10.0347 4.24421 9.95732C4.32164 9.8799 4.41356 9.81848 4.51472 9.77658C4.61588 9.73468 4.7243 9.71311 4.8338 9.71311C4.94329 9.71311 5.05172 9.73468 5.15288 9.77658C5.25404 9.81848 5.34596 9.8799 5.42338 9.95732L8.54838 13.0823L15.385 6.24399C15.5413 6.08776 15.7532 6 15.9742 6C16.1952 6 16.4079 6.08776 16.5642 6.24399Z" fill="currentColor"/>
</svg>
