<svg width="16" height="16" viewBox="0 0 16 16" fill="none" xmlns="http://www.w3.org/2000/svg">
<path fill-rule="evenodd" clip-rule="evenodd" d="M9.39786 0.511071C8.59053 -0.170358 7.40949 -0.170357 6.60215 0.511071L5.8669 1.13166C5.52376 1.42128 5.09913 1.59718 4.65169 1.63502L3.69296 1.7161C2.64025 1.80513 1.80513 2.64025 1.7161 3.69296L1.63502 4.65169C1.59718 5.09913 1.42128 5.52376 1.13166 5.86691L0.511071 6.60215C-0.170358 7.40949 -0.170357 8.59053 0.511071 9.39786L1.13166 10.1331C1.42128 10.4762 1.59718 10.9009 1.63502 11.3483L1.7161 12.3071C1.80513 13.3598 2.64025 14.1949 3.69296 14.2839L4.65169 14.365C5.09913 14.4029 5.52376 14.5788 5.86691 14.8684L6.60215 15.489C7.40949 16.1703 8.59053 16.1703 9.39786 15.489L10.1331 14.8684C10.4762 14.5788 10.9009 14.4029 11.3483 14.365L12.3071 14.2839C13.3598 14.1949 14.1949 13.3598 14.2839 12.3071L14.365 11.3483C14.4029 10.9009 14.5788 10.4762 14.8684 10.1331L15.489 9.39786C16.1703 8.59053 16.1703 7.40949 15.489 6.60215L14.8684 5.8669C14.5788 5.52376 14.4029 5.09913 14.365 4.65169L14.2839 3.69296C14.1949 2.64025 13.3598 1.80513 12.3071 1.7161L11.3483 1.63502C10.9009 1.59718 10.4762 1.42128 10.1331 1.13166L9.39786 0.511071ZM11.9408 6.52245C12.3217 6.1416 12.3217 5.52411 11.9408 5.14326C11.5601 4.7624 10.9425 4.7624 10.5616 5.14326L6.91687 8.78805L5.43928 7.31046C5.05843 6.9296 4.44094 6.9296 4.06008 7.31046C3.67922 7.69131 3.67922 8.3088 4.06008 8.68965L6.22728 10.8568C6.60814 11.2377 7.22562 11.2377 7.60648 10.8568L11.9408 6.52245Z" fill="currentColor"/>
</svg>
