<svg width="20" height="20" viewBox="0 0 20 20" fill="none" xmlns="http://www.w3.org/2000/svg">
<g clip-path="url(#clip0_1435_61)">
<path fill-rule="evenodd" clip-rule="evenodd" d="M11.1469 9.39048C11.3031 9.54675 11.3909 9.75867 11.3909 9.97964C11.3909 10.2006 11.3031 10.4125 11.1469 10.5688L6.43271 15.283C6.35584 15.3626 6.26389 15.4261 6.16222 15.4697C6.06055 15.5134 5.9512 15.5364 5.84055 15.5374C5.7299 15.5383 5.62017 15.5172 5.51775 15.4753C5.41534 15.4334 5.3223 15.3715 5.24405 15.2933C5.16581 15.2151 5.10393 15.122 5.06203 15.0196C5.02013 14.9172 4.99904 14.8075 5.00001 14.6968C5.00097 14.5862 5.02396 14.4768 5.06763 14.3751C5.1113 14.2735 5.17479 14.1815 5.25438 14.1046L9.37938 9.97964L5.25438 5.85464C5.10258 5.69747 5.01859 5.48697 5.02049 5.26847C5.02239 5.04998 5.11003 4.84097 5.26453 4.68646C5.41904 4.53195 5.62805 4.44431 5.84655 4.44241C6.06504 4.44052 6.27555 4.52451 6.43271 4.67631L11.1469 9.39048Z" fill="currentColor"/>
<path d="M13.0579 14.9798L13.0579 4.97977" stroke="currentColor" stroke-width="1.5" stroke-linecap="round"/>
</g>
<defs>
<clipPath id="clip0_1435_61">
<rect width="20" height="20" fill="white"/>
</clipPath>
</defs>
</svg>
