<svg width="20" height="20" viewBox="0 0 20 20" fill="none" xmlns="http://www.w3.org/2000/svg">
<path fill-rule="evenodd" clip-rule="evenodd" d="M10.5994 7.04853C10.4431 6.8923 10.2312 6.80454 10.0103 6.80454C9.78929 6.80454 9.57736 6.8923 9.42109 7.04853L4.70692 11.7627C4.62733 11.8396 4.56384 11.9315 4.52017 12.0332C4.4765 12.1349 4.45351 12.2442 4.45255 12.3549C4.45158 12.4655 4.47267 12.5752 4.51457 12.6777C4.55647 12.7801 4.61835 12.8731 4.69659 12.9514C4.77484 13.0296 4.86788 13.0915 4.97029 13.1334C5.07271 13.1753 5.18244 13.1964 5.29309 13.1954C5.40374 13.1944 5.51309 13.1715 5.61476 13.1278C5.71643 13.0841 5.80838 13.0206 5.88526 12.941L10.0103 8.81603L14.1353 12.941C14.2924 13.0928 14.5029 13.1768 14.7214 13.1749C14.9399 13.173 15.1489 13.0854 15.3034 12.9309C15.4579 12.7764 15.5456 12.5674 15.5475 12.3489C15.5494 12.1304 15.4654 11.9199 15.3136 11.7627L10.5994 7.04853Z" fill="currentColor"/>
</svg>
