<svg width="20" height="20" viewBox="0 0 20 20" fill="none" xmlns="http://www.w3.org/2000/svg">
<g clip-path="url(#clip0_1435_56)">
<path fill-rule="evenodd" clip-rule="evenodd" d="M13.0894 9.41098C13.2456 9.56726 13.3334 9.77918 13.3334 10.0002C13.3334 10.2211 13.2456 10.433 13.0894 10.5893L8.37525 15.3035C8.29837 15.3831 8.20642 15.4466 8.10475 15.4902C8.00308 15.5339 7.89373 15.5569 7.78308 15.5579C7.67243 15.5588 7.5627 15.5377 7.46028 15.4958C7.35787 15.4539 7.26483 15.3921 7.18658 15.3138C7.10834 15.2356 7.04646 15.1425 7.00456 15.0401C6.96266 14.9377 6.94157 14.828 6.94254 14.7173C6.9435 14.6067 6.96649 14.4973 7.01016 14.3956C7.05383 14.294 7.11732 14.202 7.19691 14.1252L11.3219 10.0002L7.19691 5.87515C7.04511 5.71798 6.96112 5.50748 6.96302 5.28898C6.96492 5.07049 7.05256 4.86147 7.20706 4.70697C7.36157 4.55246 7.57058 4.46482 7.78908 4.46292C8.00757 4.46102 8.21808 4.54502 8.37525 4.69682L13.0894 9.41098Z" fill="currentColor"/>
</g>
<defs>
<clipPath id="clip0_1435_56">
<rect width="20" height="20" fill="white"/>
</clipPath>
</defs>
</svg>
