<svg width="20" height="20" viewBox="0 0 20 20" fill="none" xmlns="http://www.w3.org/2000/svg">
<g clip-path="url(#clip0_1435_40)">
<path fill-rule="evenodd" clip-rule="evenodd" d="M6.91086 10.5892C6.75463 10.4329 6.66687 10.221 6.66687 10C6.66687 9.77903 6.75463 9.56711 6.91086 9.41083L11.625 4.69667C11.7019 4.61708 11.7939 4.55359 11.8955 4.50992C11.9972 4.46624 12.1065 4.44325 12.2172 4.44229C12.3278 4.44133 12.4376 4.46242 12.54 4.50432C12.6424 4.54622 12.7354 4.60809 12.8137 4.68634C12.8919 4.76458 12.9538 4.85763 12.9957 4.96004C13.0376 5.06245 13.0587 5.17219 13.0577 5.28284C13.0568 5.39348 13.0338 5.50283 12.9901 5.6045C12.9464 5.70617 12.883 5.79813 12.8034 5.875L8.67836 10L12.8034 14.125C12.9552 14.2822 13.0392 14.4927 13.0373 14.7112C13.0354 14.9297 12.9477 15.1387 12.7932 15.2932C12.6387 15.4477 12.4297 15.5353 12.2112 15.5372C11.9927 15.5391 11.7822 15.4551 11.625 15.3033L6.91086 10.5892Z" fill="currentColor"/>
</g>
<defs>
<clipPath id="clip0_1435_40">
<rect width="20" height="20" fill="white"/>
</clipPath>
</defs>
</svg>
