<svg width="20" height="20" viewBox="0 0 20 20" fill="none" xmlns="http://www.w3.org/2000/svg">
<g clip-path="url(#clip0_1435_12)">
<path fill-rule="evenodd" clip-rule="evenodd" d="M7.91098 10.5893C7.75476 10.433 7.66699 10.2211 7.66699 10.0001C7.66699 9.77915 7.75476 9.56723 7.91098 9.41096L12.6251 4.69679C12.702 4.6172 12.794 4.55371 12.8956 4.51004C12.9973 4.46636 13.1067 4.44338 13.2173 4.44241C13.328 4.44145 13.4377 4.46254 13.5401 4.50444C13.6425 4.54634 13.7356 4.60822 13.8138 4.68646C13.8921 4.7647 13.9539 4.85775 13.9958 4.96016C14.0377 5.06257 14.0588 5.17231 14.0579 5.28296C14.0569 5.39361 14.0339 5.50296 13.9902 5.60463C13.9466 5.7063 13.8831 5.79825 13.8035 5.87512L9.67848 10.0001L13.8035 14.1251C13.9553 14.2823 14.0393 14.4928 14.0374 14.7113C14.0355 14.9298 13.9478 15.1388 13.7933 15.2933C13.6388 15.4478 13.4298 15.5355 13.2113 15.5374C12.9928 15.5393 12.7823 15.4553 12.6251 15.3035L7.91098 10.5893Z" fill="currentColor"/>
<path d="M6 5V15" stroke="currentColor" stroke-width="1.5" stroke-linecap="round"/>
</g>
<defs>
<clipPath id="clip0_1435_12">
<rect width="20" height="20" fill="white"/>
</clipPath>
</defs>
</svg>
