<svg width="20" height="20" viewBox="0 0 20 20" fill="none" xmlns="http://www.w3.org/2000/svg">
<path fill-rule="evenodd" clip-rule="evenodd" d="M10.5994 12.9515C10.4431 13.1077 10.2312 13.1955 10.0103 13.1955C9.78929 13.1955 9.57736 13.1077 9.42109 12.9515L4.70692 8.23731C4.62733 8.16043 4.56384 8.06848 4.52017 7.96681C4.4765 7.86514 4.45351 7.75579 4.45255 7.64514C4.45158 7.53449 4.47267 7.42476 4.51457 7.32234C4.55647 7.21993 4.61835 7.12689 4.69659 7.04864C4.77484 6.9704 4.86788 6.90852 4.97029 6.86662C5.07271 6.82472 5.18244 6.80364 5.29309 6.8046C5.40374 6.80556 5.51309 6.82855 5.61476 6.87222C5.71643 6.9159 5.80838 6.97938 5.88526 7.05897L10.0103 11.184L14.1353 7.05897C14.2924 6.90717 14.5029 6.82318 14.7214 6.82508C14.9399 6.82698 15.1489 6.91462 15.3034 7.06912C15.4579 7.22363 15.5456 7.43264 15.5475 7.65114C15.5494 7.86964 15.4654 8.08014 15.3136 8.23731L10.5994 12.9515Z" fill="currentColor"/>
</svg>
