<svg width="20" height="20" viewBox="0 0 20 20" fill="none" xmlns="http://www.w3.org/2000/svg">
<path d="M14.9497 5.05027C15.3403 5.4408 15.3403 6.07396 14.9497 6.46449L11.4142 10L14.9497 13.5356C15.3403 13.9261 15.3403 14.5592 14.9497 14.9498C14.5592 15.3403 13.9261 15.3403 13.5355 14.9498L10 11.4142L6.46447 14.9498C6.07394 15.3403 5.44078 15.3403 5.05025 14.9498C4.65973 14.5592 4.65973 13.9261 5.05025 13.5356L8.58579 10L5.05025 6.46449C4.65973 6.07396 4.65973 5.4408 5.05025 5.05027C5.44078 4.65975 6.07394 4.65975 6.46447 5.05027L10 8.58581L13.5355 5.05027C13.9261 4.65975 14.5592 4.65975 14.9497 5.05027Z" fill="currentColor"/>
</svg>
