<svg width="20" height="20" viewBox="0 0 20 20" fill="none" xmlns="http://www.w3.org/2000/svg">
<path d="M10.333 1.66699C14.9355 1.66699 18.666 5.39751 18.666 10C18.666 14.6025 14.9355 18.333 10.333 18.333C5.73055 18.333 2 14.6025 2 10C2.00001 5.39754 5.73055 1.66704 10.333 1.66699ZM8.13965 7.33008C7.94013 7.32331 7.74553 7.39348 7.5957 7.52539C7.44584 7.65744 7.35141 7.84213 7.33301 8.04102C7.31468 8.23982 7.37305 8.43846 7.49609 8.5957L7.5625 8.66992L9.22168 10.3291L7.5625 11.9912C7.42061 12.1318 7.33784 12.3209 7.33105 12.5205C7.32429 12.72 7.39352 12.9146 7.52539 13.0645C7.65744 13.2143 7.84213 13.3087 8.04102 13.3271C8.23984 13.3455 8.43843 13.2871 8.5957 13.1641L8.66895 13.0986L10.3301 11.4375L11.9902 13.0986C12.1307 13.2404 12.3201 13.3232 12.5195 13.3301C12.7192 13.3369 12.9146 13.2668 13.0645 13.1348C13.214 13.0028 13.3077 12.8188 13.3262 12.6201C13.3446 12.4213 13.2861 12.2227 13.1631 12.0654L13.0977 11.9912L11.4365 10.3301L13.0977 8.66992C13.2396 8.52936 13.3233 8.33927 13.3301 8.13965C13.3367 7.94019 13.2667 7.74545 13.1348 7.5957C13.0027 7.44587 12.818 7.35238 12.6191 7.33398C12.4203 7.31563 12.2217 7.37401 12.0645 7.49707L11.9902 7.56152L10.3301 9.22363L8.66895 7.56152C8.52844 7.41986 8.33907 7.33687 8.13965 7.33008Z" fill="currentColor"/>
</svg>
