<svg width="20" height="20" viewBox="0 0 20 20" fill="none" xmlns="http://www.w3.org/2000/svg">
<path d="M7.5 3.75C7.83152 3.75 8.14946 3.8817 8.38388 4.11612C8.6183 4.35054 8.75 4.66848 8.75 5C8.75 5.33152 8.6183 5.64946 8.38388 5.88388C8.14946 6.1183 7.83152 6.25 7.5 6.25C7.16848 6.25 6.85054 6.1183 6.61612 5.88388C6.3817 5.64946 6.25 5.33152 6.25 5C6.25 4.66848 6.3817 4.35054 6.61612 4.11612C6.85054 3.8817 7.16848 3.75 7.5 3.75ZM8.75 10C8.75 9.66848 8.6183 9.35054 8.38388 9.11612C8.14946 8.8817 7.83152 8.75 7.5 8.75C7.16848 8.75 6.85054 8.8817 6.61612 9.11612C6.3817 9.35054 6.25 9.66848 6.25 10C6.25 10.3315 6.3817 10.6495 6.61612 10.8839C6.85054 11.1183 7.16848 11.25 7.5 11.25C7.83152 11.25 8.14946 11.1183 8.38388 10.8839C8.6183 10.6495 8.75 10.3315 8.75 10ZM8.75 15C8.75 14.6685 8.6183 14.3505 8.38388 14.1161C8.14946 13.8817 7.83152 13.75 7.5 13.75C7.16848 13.75 6.85054 13.8817 6.61612 14.1161C6.3817 14.3505 6.25 14.6685 6.25 15C6.25 15.3315 6.3817 15.6495 6.61612 15.8839C6.85054 16.1183 7.16848 16.25 7.5 16.25C7.83152 16.25 8.14946 16.1183 8.38388 15.8839C8.6183 15.6495 8.75 15.3315 8.75 15ZM13.75 10C13.75 9.66848 13.6183 9.35054 13.3839 9.11612C13.1495 8.8817 12.8315 8.75 12.5 8.75C12.1685 8.75 11.8505 8.8817 11.6161 9.11612C11.3817 9.35054 11.25 9.66848 11.25 10C11.25 10.3315 11.3817 10.6495 11.6161 10.8839C11.8505 11.1183 12.1685 11.25 12.5 11.25C12.8315 11.25 13.1495 11.1183 13.3839 10.8839C13.6183 10.6495 13.75 10.3315 13.75 10ZM12.5 13.75C12.8315 13.75 13.1495 13.8817 13.3839 14.1161C13.6183 14.3505 13.75 14.6685 13.75 15C13.75 15.3315 13.6183 15.6495 13.3839 15.8839C13.1495 16.1183 12.8315 16.25 12.5 16.25C12.1685 16.25 11.8505 16.1183 11.6161 15.8839C11.3817 15.6495 11.25 15.3315 11.25 15C11.25 14.6685 11.3817 14.3505 11.6161 14.1161C11.8505 13.8817 12.1685 13.75 12.5 13.75ZM13.75 5C13.75 4.66848 13.6183 4.35054 13.3839 4.11612C13.1495 3.8817 12.8315 3.75 12.5 3.75C12.1685 3.75 11.8505 3.8817 11.6161 4.11612C11.3817 4.35054 11.25 4.66848 11.25 5C11.25 5.33152 11.3817 5.64946 11.6161 5.88388C11.8505 6.1183 12.1685 6.25 12.5 6.25C12.8315 6.25 13.1495 6.1183 13.3839 5.88388C13.6183 5.64946 13.75 5.33152 13.75 5Z" fill="currentColor"/>
</svg>
