<svg width="20" height="20" viewBox="0 0 20 20" fill="none" xmlns="http://www.w3.org/2000/svg">
<path d="M16.6667 11.6905C16.8877 11.6905 17.0996 11.7783 17.2559 11.9346C17.4122 12.0908 17.5 12.3028 17.5 12.5238V15.8571C17.5 16.2992 17.3244 16.7231 17.0118 17.0357C16.6993 17.3482 16.2754 17.5238 15.8333 17.5238H4.16667C3.72464 17.5238 3.30072 17.3482 2.98816 17.0357C2.67559 16.7231 2.5 16.2992 2.5 15.8571V12.5238C2.5 12.3028 2.5878 12.0908 2.74408 11.9346C2.90036 11.7783 3.11232 11.6905 3.33333 11.6905C3.55435 11.6905 3.76631 11.7783 3.92259 11.9346C4.07887 12.0908 4.16667 12.3028 4.16667 12.5238V15.8571H15.8333V12.5238C15.8333 12.3028 15.9211 12.0908 16.0774 11.9346C16.2337 11.7783 16.4457 11.6905 16.6667 11.6905ZM10 2C10.221 2 10.433 2.0878 10.5893 2.24408C10.7455 2.40036 10.8333 2.61232 10.8333 2.83333V9.22631L12.9467 7.11298C13.0235 7.03338 13.1155 6.9699 13.2172 6.92623C13.3188 6.88255 13.4282 6.85956 13.5388 6.8586C13.6495 6.85764 13.7592 6.87872 13.8616 6.92063C13.964 6.96253 14.0571 7.0244 14.1353 7.10265C14.2136 7.18089 14.2755 7.27393 14.3174 7.37635C14.3593 7.47876 14.3803 7.58849 14.3794 7.69914C14.3784 7.80979 14.3554 7.91914 14.3118 8.02081C14.2681 8.12248 14.2046 8.21444 14.125 8.29131L10.7367 11.6796C10.6399 11.7764 10.5251 11.8532 10.3987 11.9055C10.2723 11.9579 10.1368 11.9848 10 11.9848C9.86318 11.9848 9.72771 11.9579 9.60131 11.9055C9.47491 11.8532 9.36006 11.7764 9.26333 11.6796L5.875 8.29131C5.79541 8.21444 5.73192 8.12248 5.68825 8.02081C5.64457 7.91914 5.62159 7.80979 5.62062 7.69914C5.61966 7.58849 5.64075 7.47876 5.68265 7.37635C5.72455 7.27393 5.78643 7.18089 5.86467 7.10265C5.94291 7.0244 6.03596 6.96253 6.13837 6.92063C6.24079 6.87872 6.35052 6.85764 6.46117 6.8586C6.57182 6.85956 6.68117 6.88255 6.78284 6.92623C6.88451 6.9699 6.97646 7.03338 7.05333 7.11298L9.16667 9.22631V2.83333C9.16667 2.61232 9.25446 2.40036 9.41074 2.24408C9.56703 2.0878 9.77899 2 10 2Z" fill="currentColor"/>
</svg>
