<svg width="20" height="20" viewBox="0 0 20 20" fill="none" xmlns="http://www.w3.org/2000/svg">
<path fill-rule="evenodd" clip-rule="evenodd" d="M4.16667 1.66602C3.72464 1.66602 3.30072 1.84161 2.98816 2.15417C2.67559 2.46673 2.5 2.89065 2.5 3.33268V15.8327C2.5 16.2747 2.67559 16.6986 2.98816 17.0112C3.30072 17.3238 3.72464 17.4993 4.16667 17.4993H6.66667V15.8327H4.16667V3.33268H14.1667V6.66602H15.8333V3.33268C15.8333 2.89065 15.6577 2.46673 15.3452 2.15417C15.0326 1.84161 14.6087 1.66602 14.1667 1.66602H4.16667ZM6.66667 5.83268C6.44565 5.83268 6.23369 5.92048 6.07741 6.07676C5.92113 6.23304 5.83333 6.445 5.83333 6.66602C5.83333 6.88703 5.92113 7.09899 6.07741 7.25527C6.23369 7.41155 6.44565 7.49935 6.66667 7.49935H10C10.221 7.49935 10.433 7.41155 10.5893 7.25527C10.7455 7.09899 10.8333 6.88703 10.8333 6.66602C10.8333 6.445 10.7455 6.23304 10.5893 6.07676C10.433 5.92048 10.221 5.83268 10 5.83268H6.66667ZM13.2908 9.00852C13.761 8.54604 14.3949 8.28808 15.0544 8.29085C15.7139 8.29361 16.3456 8.55686 16.8119 9.02327C17.2782 9.48967 17.5413 10.1214 17.5439 10.7809C17.5465 11.4405 17.2884 12.0743 16.8258 12.5443L12.1125 17.2585C11.9563 17.4148 11.7443 17.5026 11.5233 17.5027H9.16583C8.94482 17.5027 8.73286 17.4149 8.57658 17.2586C8.4203 17.1023 8.3325 16.8904 8.3325 16.6693V14.3118C8.33255 14.0909 8.42038 13.8789 8.57667 13.7227L13.2908 9.00852ZM15.6475 10.1868C15.4912 10.0306 15.2793 9.94286 15.0583 9.94286C14.8374 9.94286 14.6254 10.0306 14.4692 10.1868L15.6475 11.366C15.725 11.2886 15.7864 11.1967 15.8284 11.0955C15.8703 10.9944 15.8919 10.8859 15.8919 10.7764C15.8919 10.6669 15.8703 10.5585 15.8284 10.4573C15.7864 10.3561 15.725 10.2642 15.6475 10.1868ZM14.4692 12.5443L13.2908 11.366L9.99917 14.6577V15.836H11.1775L14.4692 12.5443Z" fill="currentColor"/>
</svg>
