<svg width="20" height="20" viewBox="0 0 20 20" fill="none" xmlns="http://www.w3.org/2000/svg">
<path fill-rule="evenodd" clip-rule="evenodd" d="M13.9361 2.52313C13.6235 2.21068 13.1997 2.03516 12.7578 2.03516C12.3158 2.03516 11.892 2.21068 11.5794 2.52313L2.98443 11.1181C2.67184 11.4306 2.49619 11.8545 2.49609 12.2965V16.6573C2.49609 17.1215 2.87359 17.499 3.33776 17.499L16.6661 17.4981C16.8871 17.4981 17.0991 17.4103 17.2553 17.2541C17.4116 17.0978 17.4994 16.8858 17.4994 16.6648C17.4994 16.4438 17.4116 16.2318 17.2553 16.0755C17.0991 15.9193 16.8871 15.8315 16.6661 15.8315H10.0561L17.4719 8.41563C17.7844 8.10309 17.9599 7.67924 17.9599 7.2373C17.9599 6.79536 17.7844 6.37151 17.4719 6.05897L13.9361 2.52313ZM7.69943 15.8315L16.2936 7.2373L12.7578 3.70147L4.16276 12.2965V15.8315H7.69943Z" fill="currentColor"/>
</svg>
