<svg width="20" height="20" viewBox="0 0 20 20" fill="none" xmlns="http://www.w3.org/2000/svg">
<path d="M4.16638 8.91669C4.76458 8.91669 5.25019 9.40154 5.25037 9.99969C5.25037 10.598 4.76469 11.0837 4.16638 11.0837C3.56822 11.0835 3.08337 10.5979 3.08337 9.99969C3.08355 9.40164 3.56833 8.91686 4.16638 8.91669ZM10.0004 8.91669C10.5984 8.91686 11.0832 9.40164 11.0834 9.99969C11.0834 10.5979 10.5985 11.0835 10.0004 11.0837C9.40206 11.0837 8.91638 10.598 8.91638 9.99969C8.91656 9.40154 9.40217 8.91669 10.0004 8.91669ZM15.8334 8.91669C16.4316 8.91669 16.9162 9.40154 16.9164 9.99969C16.9164 10.598 16.4317 11.0837 15.8334 11.0837C15.2351 11.0837 14.7504 10.598 14.7504 9.99969C14.7505 9.40154 15.2352 8.91669 15.8334 8.91669Z" fill="currentColor" stroke="currentColor" stroke-width="0.5" stroke-linecap="round" stroke-linejoin="round"/>
</svg>
