<svg width="20" height="20" viewBox="0 0 20 20" fill="none" xmlns="http://www.w3.org/2000/svg">
<path d="M10.335 2C14.9384 2 18.67 5.73158 18.67 10.335C18.67 14.9384 14.9384 18.67 10.335 18.67C5.73158 18.67 2 14.9384 2 10.335C2 5.73158 5.73158 2 10.335 2ZM8.56715 7.38774C8.4175 7.23667 8.21577 7.1485 8.00324 7.14129C7.79072 7.13408 7.58348 7.20837 7.42393 7.34896C7.26439 7.48954 7.16461 7.68579 7.14503 7.89753C7.12544 8.10927 7.18752 8.3205 7.31856 8.48796L7.38858 8.56715L9.1556 10.3342L7.38858 12.1029C7.2375 12.2525 7.14934 12.4542 7.14213 12.6668C7.13492 12.8793 7.20921 13.0865 7.34979 13.2461C7.49038 13.4056 7.68662 13.5054 7.89837 13.525C8.11011 13.5446 8.32133 13.4825 8.4888 13.3514L8.56715 13.2823L10.335 11.5136L12.1029 13.2823C12.2525 13.4333 12.4542 13.5215 12.6668 13.5287C12.8793 13.5359 13.0865 13.4616 13.2461 13.321C13.4056 13.1805 13.5054 12.9842 13.525 12.7725C13.5446 12.5607 13.4825 12.3495 13.3514 12.182L13.2823 12.1029L11.5136 10.335L13.2823 8.56715C13.4333 8.4175 13.5215 8.21577 13.5287 8.00324C13.5359 7.79072 13.4616 7.58348 13.321 7.42393C13.1805 7.26439 12.9842 7.16461 12.7725 7.14503C12.5607 7.12544 12.3495 7.18752 12.182 7.31856L12.1029 7.38774L10.335 9.15643L8.56715 7.38774Z" fill="currentColor"/>
</svg>
