<svg width="20" height="20" viewBox="0 0 20 20" fill="none" xmlns="http://www.w3.org/2000/svg">
<path d="M2.54508 6.93143C2.50965 6.82564 2.49583 6.71382 2.50443 6.60259C2.51303 6.49136 2.54388 6.38299 2.59514 6.28391C2.64641 6.18482 2.71704 6.09704 2.80286 6.02576C2.88869 5.95448 2.98795 5.90116 3.09476 5.86896C3.20157 5.83676 3.31376 5.82634 3.42468 5.8383C3.5356 5.85027 3.64298 5.88439 3.74047 5.93863C3.83796 5.99287 3.92356 6.06614 3.9922 6.15408C4.06084 6.24203 4.11113 6.34286 4.14008 6.4506C5.87841 12.2723 14.1251 12.2731 15.8651 6.45393C15.8963 6.34898 15.9478 6.2512 16.0168 6.16618C16.0858 6.08116 16.1708 6.01055 16.2671 5.9584C16.3634 5.90624 16.4689 5.87356 16.5778 5.86221C16.6867 5.85086 16.7968 5.86107 16.9017 5.89226C17.0067 5.92345 17.1045 5.97501 17.1895 6.04398C17.2745 6.11296 17.3451 6.19801 17.3973 6.29427C17.4494 6.39054 17.4821 6.49613 17.4935 6.60502C17.5048 6.71392 17.4946 6.82398 17.4634 6.92893C17.1602 7.97159 16.646 8.9408 15.9526 9.77643L17.0151 10.8398C17.1669 10.9969 17.2509 11.2074 17.249 11.4259C17.2471 11.6444 17.1594 11.8534 17.0049 12.0079C16.8504 12.1625 16.6414 12.2501 16.4229 12.252C16.2044 12.2539 15.9939 12.1699 15.8367 12.0181L14.7442 10.9256C14.1546 11.3702 13.5033 11.7264 12.8109 11.9831L13.1084 13.0956C13.1401 13.2023 13.1502 13.3143 13.1379 13.4249C13.1257 13.5356 13.0913 13.6427 13.037 13.7398C12.9827 13.837 12.9094 13.9223 12.8216 13.9907C12.7338 14.0591 12.6331 14.1092 12.5256 14.138C12.418 14.1669 12.3058 14.1739 12.1955 14.1586C12.0853 14.1434 11.9792 14.1062 11.8835 14.0493C11.7878 13.9923 11.7045 13.9168 11.6385 13.8272C11.5725 13.7375 11.5252 13.6355 11.4992 13.5273L11.1959 12.3964C10.4067 12.5131 9.60008 12.5131 8.81091 12.3964L8.50758 13.5273C8.48165 13.6355 8.43428 13.7375 8.36829 13.8272C8.30229 13.9168 8.219 13.9923 8.12333 14.0493C8.02766 14.1062 7.92156 14.1434 7.81128 14.1586C7.701 14.1739 7.58878 14.1669 7.48125 14.138C7.37373 14.1092 7.27307 14.0591 7.18523 13.9907C7.09738 13.9223 7.02413 13.837 6.9698 13.7398C6.91547 13.6427 6.88116 13.5356 6.8689 13.4249C6.85664 13.3143 6.86667 13.2023 6.89841 13.0956L7.19591 11.9831C6.50345 11.7262 5.85216 11.3696 5.26258 10.9248L4.17091 12.0181C4.01465 12.1746 3.80264 12.2626 3.5815 12.2627C3.36036 12.2629 3.14822 12.1752 2.99174 12.0189C2.83527 11.8627 2.74727 11.6507 2.74711 11.4295C2.74696 11.2084 2.83465 10.9962 2.99091 10.8398L4.05341 9.77726C3.40008 8.99726 2.87841 8.04893 2.54341 6.93226L2.54508 6.93143Z" fill="currentColor"/>
</svg>
