<svg width="20" height="20" viewBox="0 0 20 20" fill="none" xmlns="http://www.w3.org/2000/svg">
<path d="M9.99996 3.33331C12.3225 3.33331 14.3858 4.38081 15.855 5.67748C16.5925 6.32831 17.2 7.05915 17.6283 7.78665C18.0491 8.50081 18.3333 9.27498 18.3333 9.99998C18.3333 10.725 18.05 11.4991 17.6283 12.2133C17.2 12.9408 16.5925 13.6716 15.855 14.3225C14.3858 15.6191 12.3216 16.6666 9.99996 16.6666C7.67746 16.6666 5.61413 15.6191 4.14496 14.3225C3.40746 13.6716 2.79996 12.9408 2.37163 12.2133C1.94996 11.4991 1.66663 10.725 1.66663 9.99998C1.66663 9.27498 1.94996 8.50081 2.37163 7.78665C2.79996 7.05915 3.40746 6.32831 4.14496 5.67748C5.61413 4.38081 7.67829 3.33331 9.99996 3.33331ZM9.99996 4.99998C8.17996 4.99998 6.49329 5.82748 5.24829 6.92665C4.62829 7.47331 4.13829 8.07081 3.80746 8.63248C3.46913 9.20748 3.33329 9.68331 3.33329 9.99998C3.33329 10.3166 3.46913 10.7925 3.80746 11.3675C4.13829 11.9291 4.62829 12.5258 5.24829 13.0733C6.49329 14.1725 8.17996 15 9.99996 15C11.82 15 13.5066 14.1725 14.7516 13.0733C15.3716 12.5258 15.8616 11.9291 16.1925 11.3675C16.5308 10.7925 16.6666 10.3166 16.6666 9.99998C16.6666 9.68331 16.5308 9.20748 16.1925 8.63248C15.8616 8.07081 15.3716 7.47415 14.7516 6.92665C13.5066 5.82748 11.82 4.99998 9.99996 4.99998ZM9.99996 7.49998C10.0733 7.49998 10.1458 7.50331 10.2175 7.50915C10.0365 7.82652 9.96489 8.19456 10.0136 8.55663C10.0622 8.9187 10.2285 9.25475 10.4869 9.51307C10.7452 9.7714 11.0812 9.93769 11.4433 9.98637C11.8054 10.035 12.1734 9.96341 12.4908 9.78248C12.5346 10.2843 12.4258 10.7876 12.1787 11.2266C11.9316 11.6655 11.5576 12.0195 11.1058 12.2423C10.654 12.465 10.1455 12.5461 9.64681 12.4749C9.14815 12.4036 8.68264 12.1835 8.31127 11.8431C7.93989 11.5028 7.67998 11.0583 7.56559 10.5677C7.4512 10.0772 7.48766 9.56349 7.6702 9.09401C7.85274 8.62453 8.17285 8.22115 8.58857 7.93671C9.00429 7.65227 9.49624 7.50004 9.99996 7.49998Z" fill="currentColor"/>
</svg>
