<svg width="20" height="20" viewBox="0 0 20 20" fill="none" xmlns="http://www.w3.org/2000/svg">
<path fill-rule="evenodd" clip-rule="evenodd" d="M9.10328 2.39024C9.19499 2.23288 9.32635 2.1023 9.48427 2.01155C9.64219 1.9208 9.82115 1.87305 10.0033 1.87305C10.1854 1.87305 10.3644 1.9208 10.5223 2.01155C10.6802 2.1023 10.8116 2.23288 10.9033 2.39024L13.2324 6.38858L17.7558 7.36858C17.9337 7.40724 18.0984 7.49187 18.2334 7.61402C18.3684 7.73617 18.4691 7.89158 18.5253 8.06476C18.5816 8.23794 18.5914 8.42283 18.5539 8.60101C18.5164 8.77919 18.4329 8.94442 18.3116 9.08024L15.2283 12.5311L15.6949 17.1352C15.7134 17.3165 15.6839 17.4995 15.6095 17.6658C15.5351 17.8322 15.4183 17.9761 15.2709 18.0832C15.1235 18.1903 14.9505 18.2569 14.7693 18.2762C14.5881 18.2956 14.405 18.2671 14.2383 18.1936L10.0033 16.3269L5.76828 18.1936C5.60155 18.2671 5.41844 18.2956 5.23725 18.2762C5.05605 18.2569 4.8831 18.1903 4.73568 18.0832C4.58825 17.9761 4.4715 17.8322 4.39709 17.6658C4.32268 17.4995 4.29321 17.3165 4.31162 17.1352L4.77828 12.5311L1.69495 9.08108C1.57347 8.94526 1.48975 8.77996 1.45213 8.60168C1.41451 8.42339 1.42432 8.23835 1.48057 8.06504C1.53682 7.89173 1.63755 7.7362 1.77271 7.61399C1.90786 7.49178 2.0727 7.40716 2.25078 7.36858L6.77412 6.38858L9.10328 2.39024ZM10.0033 4.15608L8.07578 7.46608C8.0029 7.59101 7.9048 7.6994 7.78772 7.78434C7.67065 7.86927 7.53717 7.92889 7.39578 7.95941L3.65245 8.77024L6.20412 11.6261C6.39912 11.8444 6.49328 12.1344 6.46412 12.4252L6.07828 16.2361L9.58328 14.6911C9.71563 14.6328 9.85866 14.6027 10.0033 14.6027C10.1479 14.6027 10.2909 14.6328 10.4233 14.6911L13.9283 16.2361L13.5424 12.4252C13.5278 12.2813 13.5433 12.136 13.5879 11.9984C13.6325 11.8608 13.7053 11.734 13.8016 11.6261L16.3541 8.77024L12.6108 7.95941C12.4694 7.92889 12.3359 7.86927 12.2188 7.78434C12.1018 7.6994 12.0037 7.59101 11.9308 7.46608L10.0033 4.15608Z" fill="currentColor"/>
</svg>
