<svg width="20" height="20" viewBox="0 0 20 20" fill="none" xmlns="http://www.w3.org/2000/svg">
<path d="M11.1895 2C11.5417 2.00009 11.8826 2.12408 12.1525 2.35025L12.25 2.4395L15.5605 5.75C15.8095 5.99902 15.963 6.32771 15.994 6.6785L16 6.8105V15.5C16.0001 15.8784 15.8572 16.2429 15.5999 16.5204C15.3426 16.7979 14.9899 16.9679 14.6125 16.9963L14.5 17H5.5C5.12157 17.0001 4.75708 16.8572 4.47959 16.5999C4.2021 16.3426 4.03213 15.9899 4.00375 15.6125L4 15.5V3.5C3.99988 3.12157 4.1428 2.75708 4.40012 2.47959C4.65744 2.2021 5.01013 2.03213 5.3875 2.00375L5.5 2H11.1895ZM10 3.5H5.5V15.5H14.5V8H11.125C10.8266 8 10.5405 7.88147 10.3295 7.6705C10.1185 7.45952 10 7.17337 10 6.875V3.5ZM11.5 3.8105V6.5H14.1895L11.5 3.8105Z" fill="currentColor"/>
</svg>
