<svg width="20" height="20" viewBox="0 0 20 20" fill="none" xmlns="http://www.w3.org/2000/svg">
<path d="M11.7778 14.6667C12.0043 14.6669 12.2223 14.7537 12.387 14.9092C12.5517 15.0647 12.6509 15.2773 12.6642 15.5035C12.6774 15.7296 12.6038 15.9523 12.4584 16.1261C12.313 16.2998 12.1068 16.4115 11.8818 16.4382L11.7778 16.4444H8.22222C7.99566 16.4442 7.77775 16.3574 7.61301 16.2019C7.44826 16.0464 7.34912 15.8338 7.33585 15.6076C7.32257 15.3815 7.39615 15.1588 7.54157 14.985C7.68698 14.8113 7.89325 14.6996 8.11822 14.6729L8.22222 14.6667H11.7778ZM14.4444 9.33333C14.6802 9.33333 14.9063 9.42698 15.073 9.59368C15.2397 9.76038 15.3333 9.98647 15.3333 10.2222C15.3333 10.458 15.2397 10.6841 15.073 10.8508C14.9063 11.0175 14.6802 11.1111 14.4444 11.1111H5.55556C5.31981 11.1111 5.09372 11.0175 4.92702 10.8508C4.76032 10.6841 4.66667 10.458 4.66667 10.2222C4.66667 9.98647 4.76032 9.76038 4.92702 9.59368C5.09372 9.42698 5.31981 9.33333 5.55556 9.33333H14.4444ZM17.1111 4C17.3469 4 17.573 4.09365 17.7397 4.26035C17.9064 4.42705 18 4.65314 18 4.88889C18 5.12464 17.9064 5.35073 17.7397 5.51743C17.573 5.68413 17.3469 5.77778 17.1111 5.77778H2.88889C2.65314 5.77778 2.42705 5.68413 2.26035 5.51743C2.09365 5.35073 2 5.12464 2 4.88889C2 4.65314 2.09365 4.42705 2.26035 4.26035C2.42705 4.09365 2.65314 4 2.88889 4H17.1111Z" fill="currentColor"/>
</svg>
