<svg width="20" height="20" viewBox="0 0 20 20" fill="none" xmlns="http://www.w3.org/2000/svg">
<path d="M9.99996 1.66669C14.6025 1.66669 18.3333 5.39752 18.3333 10C18.3333 14.6025 14.6025 18.3334 9.99996 18.3334C5.39746 18.3334 1.66663 14.6025 1.66663 10C1.66663 5.39752 5.39746 1.66669 9.99996 1.66669ZM7.93579 10.8334C8.01079 12.485 8.30079 13.9384 8.71413 15.0017C8.95579 15.6234 9.22413 16.07 9.47829 16.3467C9.73163 16.6225 9.90913 16.6667 9.99996 16.6667C10.0908 16.6667 10.2683 16.6225 10.5216 16.3467C10.7758 16.07 11.0441 15.6234 11.2858 15.0017C11.6991 13.9384 11.99 12.485 12.0641 10.8334H7.93579ZM3.38663 10.8334C3.53213 11.9893 3.97801 13.0869 4.67983 14.0168C5.38166 14.9467 6.31492 15.6765 7.38663 16.1334C7.30532 15.9602 7.22999 15.7842 7.16079 15.6059C6.66163 14.3225 6.34163 12.6575 6.26663 10.8334H3.38663ZM13.7333 10.8334C13.6583 12.6575 13.3383 14.3225 12.8391 15.6059C12.7686 15.7881 12.6933 15.9639 12.6133 16.1334C13.685 15.6765 14.6183 14.9467 15.3201 14.0168C16.0219 13.0869 16.4678 11.9893 16.6133 10.8334H13.7333ZM12.6133 3.86585C12.6933 4.03585 12.7686 4.21196 12.8391 4.39419C13.3383 5.67752 13.6575 7.34252 13.7333 9.16669H16.6133C16.4679 8.01063 16.0221 6.91285 15.3203 5.98278C14.6184 5.05271 13.6851 4.32282 12.6133 3.86585ZM9.99996 3.33335C9.90913 3.33335 9.73163 3.37752 9.47829 3.65335C9.22413 3.93002 8.95579 4.37669 8.71413 4.99835C8.30079 6.06169 8.01079 7.51502 7.93579 9.16669H12.0641C11.9891 7.51502 11.6991 6.06169 11.2858 4.99835C11.0441 4.37669 10.7758 3.93002 10.5216 3.65335C10.2683 3.37752 10.0908 3.33335 9.99996 3.33335ZM7.38579 3.86585C6.31413 4.32293 5.38097 5.05287 4.67929 5.98294C3.97761 6.913 3.53191 8.01072 3.38663 9.16669H6.26746C6.34246 7.34252 6.66163 5.67752 7.16079 4.39419C7.23135 4.21196 7.30635 4.03585 7.38579 3.86585Z" fill="currentColor"/>
</svg>
