<svg width="20" height="20" viewBox="0 0 20 20" fill="none" xmlns="http://www.w3.org/2000/svg">
<path fill-rule="evenodd" clip-rule="evenodd" d="M11.0208 2.23983C10.7282 2.01224 10.3682 1.88867 9.99748 1.88867C9.62681 1.88867 9.26672 2.01224 8.97415 2.23983L1.98748 7.67316C1.36082 8.16233 1.70582 9.16649 2.49998 9.16649H3.33082V15.8332C3.33082 16.2752 3.50641 16.6991 3.81897 17.0117C4.13153 17.3242 4.55545 17.4998 4.99748 17.4998H14.9975C15.4395 17.4998 15.8634 17.3242 16.176 17.0117C16.4886 16.6991 16.6641 16.2752 16.6641 15.8332V9.16649H17.495C18.2883 9.16649 18.635 8.16233 18.0075 7.67399L11.0208 2.23983ZM10.8308 15.8332V10.8332C10.8308 10.6121 10.743 10.4002 10.5867 10.2439C10.4305 10.0876 10.2185 9.99983 9.99748 9.99983C9.77647 9.99983 9.56451 10.0876 9.40823 10.2439C9.25195 10.4002 9.16415 10.6121 9.16415 10.8332V15.8332H4.99748V8.3415C4.99748 8.07733 4.87582 7.8415 4.68498 7.68733L9.99748 3.55566L15.31 7.68733C15.2123 7.76611 15.1336 7.86576 15.0795 7.97896C15.0254 8.09216 14.9974 8.21604 14.9975 8.3415V15.8332H10.8308Z" fill="currentColor"/>
</svg>
