<svg width="20" height="20" viewBox="0 0 20 20" fill="none" xmlns="http://www.w3.org/2000/svg">
<path d="M15.9575 1.93961C16.6625 1.55211 17.5 2.07377 17.5 2.85461V17.1446C17.5 17.9254 16.6625 18.4471 15.9575 18.0596C15.01 17.5396 12.205 16.0246 10.5258 15.3571C9.4846 14.9374 8.40151 14.6301 7.295 14.4404L6.65083 17.6629C6.62938 17.7703 6.587 17.8724 6.5261 17.9634C6.4652 18.0543 6.38698 18.1324 6.2959 18.1932C6.20482 18.2539 6.10267 18.2961 5.99528 18.3174C5.88788 18.3386 5.77736 18.3386 5.67 18.3171C5.56264 18.2957 5.46056 18.2533 5.36959 18.1924C5.27861 18.1315 5.20052 18.0533 5.13978 17.9622C5.07903 17.8711 5.03682 17.7689 5.01556 17.6615C4.99429 17.5542 4.99438 17.4436 5.01583 17.3363L5.635 14.2404C5.41048 14.2236 5.18574 14.21 4.96083 14.1996C3.625 14.1379 2.5 13.0588 2.5 11.6663V8.33294C2.5 6.94044 3.625 5.86127 4.96083 5.79961C5.25667 5.78544 5.5475 5.76711 5.83333 5.74294V13.3329H5.86167C5.93481 13.2063 6.04001 13.1011 6.16668 13.0279C6.29336 12.9548 6.43706 12.9163 6.58333 12.9163C6.72961 12.9163 6.8733 12.9548 6.99998 13.0279C7.12666 13.1011 7.23186 13.2063 7.305 13.3329H7.5V5.52294C8.53512 5.33067 9.54847 5.0356 10.525 4.64211C12.205 3.97461 15.01 2.45877 15.9575 1.93961Z" fill="currentColor"/>
</svg>
