<svg width="20" height="20" viewBox="0 0 20 20" fill="none" xmlns="http://www.w3.org/2000/svg">
<path d="M13.6491 3.33398C13.9356 3.33409 14.2173 3.40808 14.4669 3.5488C14.7165 3.68951 14.9256 3.89221 15.0741 4.13732L15.1399 4.25565L18.0666 10.1098C18.211 10.3984 18.2981 10.7123 18.3232 11.034L18.3307 11.2273V15.834C18.3309 16.2545 18.1721 16.6595 17.8861 16.9678C17.6002 17.2761 17.2084 17.4649 16.7891 17.4965L16.6641 17.5007H3.33073C2.91025 17.5008 2.50526 17.342 2.19694 17.0561C1.88862 16.7702 1.69977 16.3783 1.66823 15.959L1.66406 15.834V11.2273C1.66381 10.9045 1.72607 10.5848 1.8474 10.2857L1.92823 10.109L4.8549 4.25565C4.98304 3.99903 5.17524 3.77982 5.41291 3.61924C5.65057 3.45865 5.92566 3.36212 6.21156 3.33898L6.34573 3.33398H13.6491ZM6.66406 11.6673H3.33073V15.834H16.6641V11.6673H13.3307V12.084C13.3307 12.4155 13.199 12.7334 12.9646 12.9679C12.7302 13.2023 12.4123 13.334 12.0807 13.334H7.91406C7.58254 13.334 7.2646 13.2023 7.03018 12.9679C6.79576 12.7334 6.66406 12.4155 6.66406 12.084V11.6673ZM13.6491 5.00065H6.34573L3.84573 10.0007H7.08073C7.39147 10.0007 7.69106 10.1164 7.92108 10.3253C8.1511 10.5342 8.29507 10.8214 8.3249 11.1307L8.33073 11.2507V11.6673H11.6641V11.2507C11.6641 10.9399 11.7798 10.6403 11.9887 10.4103C12.1977 10.1803 12.4848 10.0363 12.7941 10.0065L12.9141 10.0007H16.1491L13.6491 5.00065Z" fill="currentColor"/>
</svg>
