<svg width="20" height="20" viewBox="0 0 20 20" fill="none" xmlns="http://www.w3.org/2000/svg">
<path d="M16.6641 3.33398C17.0845 3.33385 17.4895 3.49266 17.7979 3.77857C18.1062 4.06447 18.295 4.45635 18.3266 4.87565L18.3307 5.00065V15.0007C18.3309 15.4211 18.1721 15.8261 17.8861 16.1344C17.6002 16.4428 17.2084 16.6316 16.7891 16.6632L16.6641 16.6673H3.33073C2.91025 16.6675 2.50526 16.5086 2.19694 16.2227C1.88862 15.9368 1.69977 15.5449 1.66823 15.1257L1.66406 15.0007V5.00065C1.66393 4.58017 1.82273 4.17518 2.10864 3.86686C2.39455 3.55854 2.78643 3.36969 3.20573 3.33815L3.33073 3.33398H16.6641ZM16.6641 6.17898L10.8807 11.9623C10.6464 12.1964 10.3286 12.3279 9.9974 12.3279C9.66614 12.3279 9.34844 12.1964 9.11406 11.9623L3.33073 6.17898V15.0007H16.6641V6.17898ZM15.4857 5.00065H4.50906L9.9974 10.489L15.4857 5.00065Z" fill="currentColor"/>
</svg>
