<svg width="20" height="20" viewBox="0 0 20 20" fill="none" xmlns="http://www.w3.org/2000/svg">
<path d="M10 1.66699C14.6025 1.66699 18.333 5.39751 18.333 10C18.333 14.6025 14.6025 18.333 10 18.333C5.39754 18.333 1.66699 14.6025 1.66699 10C1.667 5.39754 5.39754 1.66704 10 1.66699ZM9.16699 8.33301C8.95467 8.33324 8.75013 8.41484 8.5957 8.56055C8.44126 8.70635 8.34839 8.90613 8.33594 9.11816C8.32359 9.32995 8.39223 9.53842 8.52832 9.70117C8.66465 9.86405 8.85842 9.96905 9.06934 9.99414L9.16699 10V14.1582C9.16699 14.5915 9.49533 14.9501 9.91699 14.9951L10.0088 15H10.417C10.5921 14.9999 10.7624 14.9443 10.9043 14.8418C11.0463 14.7391 11.153 14.5941 11.208 14.4277C11.2629 14.2615 11.2638 14.082 11.2109 13.915C11.158 13.748 11.0538 13.6015 10.9131 13.4971L10.833 13.4453V9.1748C10.8329 8.74155 10.5046 8.38288 10.083 8.33789L9.99121 8.33301H9.16699ZM10 5.83301C9.77914 5.83301 9.56738 5.92107 9.41113 6.07715C9.25485 6.23343 9.16699 6.44598 9.16699 6.66699C9.16708 6.88788 9.25493 7.09966 9.41113 7.25586C9.5674 7.41202 9.77907 7.5 10 7.5C10.2209 7.49999 10.4326 7.41203 10.5889 7.25586C10.7451 7.09966 10.8329 6.88788 10.833 6.66699C10.833 6.44598 10.7451 6.23343 10.5889 6.07715C10.4326 5.92106 10.2209 5.83302 10 5.83301Z" fill="currentColor"/>
</svg>
