<svg width="20" height="20" viewBox="0 0 20 20" fill="none" xmlns="http://www.w3.org/2000/svg">
<path d="M3.75 14.5834C4.08152 14.5834 4.39946 14.7151 4.63388 14.9495C4.8683 15.1839 5 15.5018 5 15.8334C5 16.1649 4.8683 16.4828 4.63388 16.7172C4.39946 16.9517 4.08152 17.0834 3.75 17.0834C3.41848 17.0834 3.10054 16.9517 2.86612 16.7172C2.6317 16.4828 2.5 16.1649 2.5 15.8334C2.5 15.5018 2.6317 15.1839 2.86612 14.9495C3.10054 14.7151 3.41848 14.5834 3.75 14.5834ZM16.6667 15C16.8877 15 17.0996 15.0878 17.2559 15.2441C17.4122 15.4004 17.5 15.6123 17.5 15.8334C17.5 16.0544 17.4122 16.2663 17.2559 16.4226C17.0996 16.5789 16.8877 16.6667 16.6667 16.6667H7.5C7.27899 16.6667 7.06702 16.5789 6.91074 16.4226C6.75446 16.2663 6.66667 16.0544 6.66667 15.8334C6.66667 15.6123 6.75446 15.4004 6.91074 15.2441C7.06702 15.0878 7.27899 15 7.5 15H16.6667ZM3.75 8.75002C4.08152 8.75002 4.39946 8.88172 4.63388 9.11614C4.8683 9.35056 5 9.6685 5 10C5 10.3315 4.8683 10.6495 4.63388 10.8839C4.39946 11.1183 4.08152 11.25 3.75 11.25C3.41848 11.25 3.10054 11.1183 2.86612 10.8839C2.6317 10.6495 2.5 10.3315 2.5 10C2.5 9.6685 2.6317 9.35056 2.86612 9.11614C3.10054 8.88172 3.41848 8.75002 3.75 8.75002ZM16.6667 9.16669C16.8791 9.16692 17.0834 9.24825 17.2378 9.39406C17.3923 9.53987 17.4852 9.73915 17.4976 9.95118C17.5101 10.1632 17.4411 10.372 17.3048 10.5349C17.1685 10.6978 16.9751 10.8024 16.7642 10.8275L16.6667 10.8334H7.5C7.2876 10.8331 7.08331 10.7518 6.92886 10.606C6.77441 10.4602 6.68147 10.2609 6.66902 10.0489C6.65658 9.83682 6.72556 9.62804 6.86189 9.46516C6.99821 9.30228 7.19159 9.19761 7.4025 9.17252L7.5 9.16669H16.6667ZM3.75 2.91669C4.08152 2.91669 4.39946 3.04838 4.63388 3.2828C4.8683 3.51722 5 3.83517 5 4.16669C5 4.49821 4.8683 4.81615 4.63388 5.05057C4.39946 5.28499 4.08152 5.41669 3.75 5.41669C3.41848 5.41669 3.10054 5.28499 2.86612 5.05057C2.6317 4.81615 2.5 4.49821 2.5 4.16669C2.5 3.83517 2.6317 3.51722 2.86612 3.2828C3.10054 3.04838 3.41848 2.91669 3.75 2.91669ZM16.6667 3.33335C16.8791 3.33359 17.0834 3.41492 17.2378 3.56073C17.3923 3.70653 17.4852 3.90581 17.4976 4.11785C17.5101 4.32988 17.4411 4.53867 17.3048 4.70155C17.1685 4.86442 16.9751 4.9691 16.7642 4.99419L16.6667 5.00002H7.5C7.2876 4.99978 7.08331 4.91845 6.92886 4.77265C6.77441 4.62684 6.68147 4.42756 6.66902 4.21552C6.65658 4.00349 6.72556 3.7947 6.86189 3.63183C6.99821 3.46895 7.19159 3.36427 7.4025 3.33919L7.5 3.33335H16.6667Z" fill="currentColor"/>
</svg>
