<svg width="20" height="20" viewBox="0 0 20 20" fill="none" xmlns="http://www.w3.org/2000/svg">
<path d="M4.25 13.8333C4.58152 13.8333 4.89946 13.965 5.13388 14.1995C5.3683 14.4339 5.5 14.7518 5.5 15.0833C5.5 15.4149 5.3683 15.7328 5.13388 15.9672C4.89946 16.2016 4.58152 16.3333 4.25 16.3333C3.91848 16.3333 3.60054 16.2016 3.36612 15.9672C3.1317 15.7328 3 15.4149 3 15.0833C3 14.7518 3.1317 14.4339 3.36612 14.1995C3.60054 13.965 3.91848 13.8333 4.25 13.8333ZM9.66667 13.8333C9.99819 13.8333 10.3161 13.965 10.5505 14.1995C10.785 14.4339 10.9167 14.7518 10.9167 15.0833C10.9167 15.4149 10.785 15.7328 10.5505 15.9672C10.3161 16.2016 9.99819 16.3333 9.66667 16.3333C9.33515 16.3333 9.0172 16.2016 8.78278 15.9672C8.54836 15.7328 8.41667 15.4149 8.41667 15.0833C8.41667 14.7518 8.54836 14.4339 8.78278 14.1995C9.0172 13.965 9.33515 13.8333 9.66667 13.8333ZM15.0833 13.8333C15.4149 13.8333 15.7328 13.965 15.9672 14.1995C16.2016 14.4339 16.3333 14.7518 16.3333 15.0833C16.3333 15.4149 16.2016 15.7328 15.9672 15.9672C15.7328 16.2016 15.4149 16.3333 15.0833 16.3333C14.7518 16.3333 14.4339 16.2016 14.1995 15.9672C13.965 15.7328 13.8333 15.4149 13.8333 15.0833C13.8333 14.7518 13.965 14.4339 14.1995 14.1995C14.4339 13.965 14.7518 13.8333 15.0833 13.8333ZM4.25 8.41667C4.58152 8.41667 4.89946 8.54836 5.13388 8.78278C5.3683 9.0172 5.5 9.33515 5.5 9.66667C5.5 9.99819 5.3683 10.3161 5.13388 10.5505C4.89946 10.785 4.58152 10.9167 4.25 10.9167C3.91848 10.9167 3.60054 10.785 3.36612 10.5505C3.1317 10.3161 3 9.99819 3 9.66667C3 9.33515 3.1317 9.0172 3.36612 8.78278C3.60054 8.54836 3.91848 8.41667 4.25 8.41667ZM9.66667 8.41667C9.99819 8.41667 10.3161 8.54836 10.5505 8.78278C10.785 9.0172 10.9167 9.33515 10.9167 9.66667C10.9167 9.99819 10.785 10.3161 10.5505 10.5505C10.3161 10.785 9.99819 10.9167 9.66667 10.9167C9.33515 10.9167 9.0172 10.785 8.78278 10.5505C8.54836 10.3161 8.41667 9.99819 8.41667 9.66667C8.41667 9.33515 8.54836 9.0172 8.78278 8.78278C9.0172 8.54836 9.33515 8.41667 9.66667 8.41667ZM15.0833 8.41667C15.4149 8.41667 15.7328 8.54836 15.9672 8.78278C16.2016 9.0172 16.3333 9.33515 16.3333 9.66667C16.3333 9.99819 16.2016 10.3161 15.9672 10.5505C15.7328 10.785 15.4149 10.9167 15.0833 10.9167C14.7518 10.9167 14.4339 10.785 14.1995 10.5505C13.965 10.3161 13.8333 9.99819 13.8333 9.66667C13.8333 9.33515 13.965 9.0172 14.1995 8.78278C14.4339 8.54836 14.7518 8.41667 15.0833 8.41667ZM4.25 3C4.41415 3 4.5767 3.03233 4.72835 3.09515C4.88001 3.15797 5.01781 3.25004 5.13388 3.36612C5.24996 3.48219 5.34203 3.61999 5.40485 3.77165C5.46767 3.9233 5.5 4.08585 5.5 4.25C5.5 4.41415 5.46767 4.5767 5.40485 4.72835C5.34203 4.88001 5.24996 5.01781 5.13388 5.13388C5.01781 5.24996 4.88001 5.34203 4.72835 5.40485C4.5767 5.46767 4.41415 5.5 4.25 5.5C3.91848 5.5 3.60054 5.3683 3.36612 5.13388C3.1317 4.89946 3 4.58152 3 4.25C3 3.91848 3.1317 3.60054 3.36612 3.36612C3.60054 3.1317 3.91848 3 4.25 3ZM9.66667 3C9.83082 3 9.99336 3.03233 10.145 3.09515C10.2967 3.15797 10.4345 3.25004 10.5505 3.36612C10.6666 3.48219 10.7587 3.61999 10.8215 3.77165C10.8843 3.9233 10.9167 4.08585 10.9167 4.25C10.9167 4.41415 10.8843 4.5767 10.8215 4.72835C10.7587 4.88001 10.6666 5.01781 10.5505 5.13388C10.4345 5.24996 10.2967 5.34203 10.145 5.40485C9.99336 5.46767 9.83082 5.5 9.66667 5.5C9.33515 5.5 9.0172 5.3683 8.78278 5.13388C8.54836 4.89946 8.41667 4.58152 8.41667 4.25C8.41667 3.91848 8.54836 3.60054 8.78278 3.36612C9.0172 3.1317 9.33515 3 9.66667 3ZM15.0833 3C15.2475 3 15.41 3.03233 15.5617 3.09515C15.7133 3.15797 15.8511 3.25004 15.9672 3.36612C16.0833 3.48219 16.1754 3.61999 16.2382 3.77165C16.301 3.9233 16.3333 4.08585 16.3333 4.25C16.3333 4.41415 16.301 4.5767 16.2382 4.72835C16.1754 4.88001 16.0833 5.01781 15.9672 5.13388C15.8511 5.24996 15.7133 5.34203 15.5617 5.40485C15.41 5.46767 15.2475 5.5 15.0833 5.5C14.7518 5.5 14.4339 5.3683 14.1995 5.13388C13.965 4.89946 13.8333 4.58152 13.8333 4.25C13.8333 3.91848 13.965 3.60054 14.1995 3.36612C14.4339 3.1317 14.7518 3 15.0833 3Z" fill="currentColor"/>
</svg>
