<svg width="29" height="20" viewBox="0 0 20 20" fill="none" xmlns="http://www.w3.org/2000/svg">
<path d="M8.67847 2.22852C8.35947 2.83978 8.14245 3.5124 8.05054 4.22461C7.68649 4.41726 7.35005 4.66533 7.05347 4.96191C6.27212 5.74331 5.83374 6.80318 5.83374 7.9082V11.0449C5.83371 11.3035 5.77259 11.5587 5.65698 11.79L4.68237 13.7412H15.3181L14.3435 11.79C14.2276 11.5588 14.1671 11.3036 14.1667 11.0449V11H15.8337V11.0449L17.3513 14.0811C17.4212 14.2208 17.454 14.3771 17.447 14.5332C17.4399 14.6891 17.3934 14.8408 17.3113 14.9736C17.2292 15.1064 17.1146 15.216 16.9783 15.292C16.8419 15.368 16.6881 15.4082 16.532 15.4082H13.2283C13.0429 16.1234 12.6251 16.7568 12.0408 17.209C11.4565 17.6611 10.7385 17.9062 9.99976 17.9062C9.26098 17.9062 8.543 17.6611 7.95874 17.209C7.37447 16.7568 6.9566 16.1234 6.77124 15.4082H3.46851C3.31232 15.4082 3.15866 15.368 3.02222 15.292C2.88574 15.2159 2.77039 15.1065 2.68823 14.9736C2.60616 14.8408 2.55959 14.6891 2.55249 14.5332C2.54547 14.3771 2.5783 14.2208 2.64819 14.0811L4.16675 11.0449V7.9082C4.16675 6.36115 4.78085 4.87716 5.87476 3.7832C6.6515 3.00646 7.62557 2.47351 8.67847 2.22852ZM8.5564 15.4082C8.70268 15.6615 8.91339 15.8723 9.16675 16.0186C9.42 16.1647 9.70736 16.2412 9.99976 16.2412C10.2921 16.2412 10.5795 16.1646 10.8328 16.0186C11.0861 15.8723 11.2968 15.6615 11.4431 15.4082H8.5564Z" fill="currentColor"/>
</svg>
