<svg width="20" height="20" viewBox="0 0 20 20" fill="none" xmlns="http://www.w3.org/2000/svg">
<path d="M9.9974 1.66602C14.5999 1.66602 18.3307 5.39685 18.3307 9.99935C18.3307 14.6018 14.5999 18.3327 9.9974 18.3327C5.3949 18.3327 1.66406 14.6018 1.66406 9.99935C1.66406 5.39685 5.3949 1.66602 9.9974 1.66602ZM9.9974 3.33268C8.22929 3.33268 6.53359 4.03506 5.28335 5.2853C4.03311 6.53555 3.33073 8.23124 3.33073 9.99935C3.33073 11.7675 4.03311 13.4632 5.28335 14.7134C6.53359 15.9636 8.22929 16.666 9.9974 16.666C11.7655 16.666 13.4612 15.9636 14.7114 14.7134C15.9617 13.4632 16.6641 11.7675 16.6641 9.99935C16.6641 8.23124 15.9617 6.53555 14.7114 5.2853C13.4612 4.03506 11.7655 3.33268 9.9974 3.33268ZM9.9974 13.3327C10.2184 13.3327 10.4304 13.4205 10.5867 13.5768C10.7429 13.733 10.8307 13.945 10.8307 14.166C10.8307 14.387 10.7429 14.599 10.5867 14.7553C10.4304 14.9116 10.2184 14.9993 9.9974 14.9993C9.77638 14.9993 9.56442 14.9116 9.40814 14.7553C9.25186 14.599 9.16406 14.387 9.16406 14.166C9.16406 13.945 9.25186 13.733 9.40814 13.5768C9.56442 13.4205 9.77638 13.3327 9.9974 13.3327ZM9.9974 5.41602C10.6993 5.41604 11.3793 5.66048 11.9205 6.10735C12.4618 6.55422 12.8306 7.17563 12.9635 7.86483C13.0964 8.55403 12.9852 9.268 12.6489 9.88411C12.3126 10.5002 11.7723 10.98 11.1207 11.241C11.0247 11.2775 10.9379 11.3347 10.8666 11.4085C10.8299 11.4502 10.8241 11.5035 10.8249 11.5585L10.8307 11.666C10.8305 11.8784 10.7492 12.0827 10.6034 12.2372C10.4575 12.3916 10.2583 12.4845 10.0462 12.497C9.8342 12.5094 9.62541 12.4405 9.46254 12.3041C9.29966 12.1678 9.19498 11.9744 9.1699 11.7635L9.16406 11.666V11.4577C9.16406 10.4968 9.93906 9.92018 10.5007 9.69435C10.7293 9.60307 10.9287 9.45124 11.0775 9.25517C11.2264 9.0591 11.319 8.8262 11.3454 8.58148C11.3718 8.33676 11.3311 8.08945 11.2276 7.86613C11.1241 7.64281 10.9617 7.4519 10.7578 7.31391C10.554 7.17592 10.3164 7.09606 10.0707 7.08291C9.82485 7.06975 9.58012 7.1238 9.36272 7.23924C9.14533 7.35469 8.96349 7.52717 8.83672 7.73816C8.70996 7.94916 8.64307 8.1907 8.64323 8.43685C8.64323 8.65786 8.55543 8.86982 8.39915 9.0261C8.24287 9.18238 8.03091 9.27018 7.8099 9.27018C7.58888 9.27018 7.37692 9.18238 7.22064 9.0261C7.06436 8.86982 6.97656 8.65786 6.97656 8.43685C6.97656 7.63567 7.29483 6.86731 7.86134 6.3008C8.42786 5.73428 9.19622 5.41602 9.9974 5.41602Z" fill="currentColor"/>
</svg>
