<svg width="20" height="20" viewBox="0 0 20 20" fill="none" xmlns="http://www.w3.org/2000/svg">
<path fill-rule="evenodd" clip-rule="evenodd" d="M7.94785 15.2948C9.26085 15.6464 10.6543 15.5419 11.9002 14.9984C13.146 14.4549 14.1705 13.5045 14.8059 12.3029C14.8518 12.2158 14.9144 12.1385 14.9902 12.0756C15.0659 12.0126 15.1533 11.9652 15.2474 11.936C15.3414 11.9069 15.4403 11.8965 15.5384 11.9056C15.6365 11.9146 15.7318 11.9429 15.819 11.9888C15.9061 12.0346 15.9834 12.0972 16.0463 12.173C16.1093 12.2487 16.1567 12.3361 16.1859 12.4302C16.215 12.5243 16.2254 12.6232 16.2164 12.7212C16.2073 12.8193 16.179 12.9147 16.1332 13.0018C14.536 16.0312 11.0072 17.6666 7.55943 16.7435C3.55901 15.6712 1.18575 11.5598 2.25728 7.55943C3.32956 3.55901 7.44095 1.18575 11.4406 2.25728C13.0254 2.68186 14.4272 3.61433 15.4313 4.9118C16.4355 6.20928 16.9865 7.8002 17 9.44079C17.0052 10.1179 16.2539 10.4921 15.7155 10.1306L13.7112 8.77942C12.9553 8.26953 13.4622 7.09153 14.3515 7.29023L15.1449 7.4672C14.7952 6.49667 14.2011 5.63273 13.42 4.95883C12.639 4.28493 11.6973 3.82384 10.686 3.6201C9.67474 3.41636 8.62801 3.47685 7.64693 3.79575C6.66585 4.11464 5.78359 4.68114 5.08537 5.44055C4.38715 6.19995 3.89656 7.12658 3.661 8.13093C3.42545 9.13527 3.45287 10.1834 3.74064 11.1741C4.02841 12.1647 4.56678 13.0644 5.30377 13.7862C6.04075 14.5081 6.95144 15.0277 7.94785 15.2948Z" fill="currentColor"/>
</svg>
