<svg width="20" height="20" viewBox="0 0 20 20" fill="none" xmlns="http://www.w3.org/2000/svg">
<path fill-rule="evenodd" clip-rule="evenodd" d="M9.11708 1.99963C7.98214 1.99973 6.86367 2.27124 5.855 2.79151C4.84632 3.31178 3.97669 4.06572 3.31866 4.99043C2.66062 5.91514 2.23327 6.98381 2.07224 8.10727C1.91122 9.23074 2.0212 10.3764 2.39301 11.4487C2.76481 12.5211 3.38766 13.4889 4.20959 14.2716C5.03152 15.0542 6.0287 15.6289 7.11793 15.9478C8.20716 16.2667 9.35685 16.3205 10.4711 16.1047C11.5853 15.8888 12.6318 15.4097 13.5232 14.7072L16.5812 17.7652C16.7391 17.9177 16.9506 18.0021 17.1702 18.0002C17.3897 17.9983 17.5997 17.9102 17.755 17.755C17.9102 17.5997 17.9983 17.3897 18.0002 17.1702C18.0021 16.9506 17.9177 16.7391 17.7652 16.5812L14.7072 13.5232C15.5345 12.4737 16.0496 11.2125 16.1936 9.88386C16.3375 8.55526 16.1046 7.21297 15.5213 6.0106C14.938 4.80823 14.028 3.79437 12.8954 3.08503C11.7629 2.37569 10.4535 1.99954 9.11708 1.99963ZM3.67433 9.11708C3.67433 7.67357 4.24776 6.28919 5.26848 5.26847C6.28919 4.24776 7.67357 3.67433 9.11708 3.67433C10.5606 3.67433 11.945 4.24776 12.9657 5.26847C13.9864 6.28919 14.5598 7.67357 14.5598 9.11708C14.5598 10.5606 13.9864 11.945 12.9657 12.9657C11.945 13.9864 10.5606 14.5598 9.11708 14.5598C7.67357 14.5598 6.28919 13.9864 5.26848 12.9657C4.24776 11.945 3.67433 10.5606 3.67433 9.11708Z" fill="currentColor"/>
</svg>
