<svg width="20" height="20" viewBox="0 0 20 20" fill="none" xmlns="http://www.w3.org/2000/svg">
<path d="M16.6667 3.33398C17.0871 3.33385 17.4921 3.49266 17.8005 3.77857C18.1088 4.06447 18.2976 4.45635 18.3292 4.87565L18.3333 5.00065V15.0007C18.3335 15.4211 18.1747 15.8261 17.8888 16.1344C17.6028 16.4428 17.211 16.6316 16.7917 16.6632L16.6667 16.6673H3.33333C2.91285 16.6675 2.50786 16.5086 2.19954 16.2227C1.89123 15.9368 1.70237 15.5449 1.67083 15.1257L1.66667 15.0007V14.1673H3.33333V15.0007H16.6667V6.17898L10.8833 11.9623C10.6646 12.181 10.3725 12.3109 10.0636 12.3267C9.75466 12.3426 9.45082 12.2433 9.21083 12.0482L9.11583 11.9623L3.33333 6.17898V6.66732H1.66667V5.00065C1.66653 4.58017 1.82534 4.17518 2.11125 3.86686C2.39716 3.55854 2.78904 3.36969 3.20833 3.33815L3.33333 3.33398H16.6667ZM5 10.834C5.22101 10.834 5.43298 10.9218 5.58926 11.0781C5.74554 11.2343 5.83333 11.4463 5.83333 11.6673C5.83333 11.8883 5.74554 12.1003 5.58926 12.2566C5.43298 12.4129 5.22101 12.5007 5 12.5007H0.833333C0.61232 12.5007 0.400358 12.4129 0.244078 12.2566C0.0877974 12.1003 0 11.8883 0 11.6673C0 11.4463 0.0877974 11.2343 0.244078 11.0781C0.400358 10.9218 0.61232 10.834 0.833333 10.834H5ZM15.4883 5.00065H4.51167L10 10.489L15.4883 5.00065ZM4.16667 8.33398C4.37907 8.33422 4.58336 8.41555 4.73781 8.56136C4.89225 8.70717 4.9852 8.90645 4.99764 9.11848C5.01009 9.33051 4.9411 9.5393 4.80478 9.70218C4.66845 9.86506 4.47508 9.96973 4.26417 9.99482L4.16667 10.0007H1.66667C1.45427 10.0004 1.24997 9.91909 1.09553 9.77328C0.94108 9.62747 0.848138 9.42819 0.83569 9.21616C0.823242 9.00412 0.892229 8.79533 1.02855 8.63246C1.16488 8.46958 1.35825 8.3649 1.56917 8.33982L1.66667 8.33398H4.16667Z" fill="currentColor"/>
</svg>
