<svg width="20" height="20" viewBox="0 0 20 20" fill="none" xmlns="http://www.w3.org/2000/svg">
<path fill-rule="evenodd" clip-rule="evenodd" d="M8.95854 2.13864C9.252 1.96915 9.58238 1.87381 9.92102 1.86089C10.2597 1.84797 10.5963 1.91785 10.9019 2.06448L11.0419 2.13864L16.2869 5.16614C16.5819 5.33638 16.8306 5.57634 17.0113 5.86502C17.1921 6.15369 17.2993 6.48226 17.3235 6.82198L17.3285 6.97031V13.027C17.3285 13.3675 17.2449 13.7027 17.0853 14.0034C16.9256 14.3042 16.6947 14.5612 16.4127 14.752L16.2877 14.8311L11.0419 17.8595C10.7484 18.029 10.418 18.1243 10.0794 18.1372C9.74075 18.1502 9.40407 18.0803 9.09854 17.9336L8.95854 17.8586L3.71354 14.8328C3.41856 14.6626 3.16982 14.4226 2.98909 14.1339C2.80836 13.8453 2.70116 13.5167 2.67687 13.177L2.67188 13.0286V6.97114C2.67204 6.63059 2.75569 6.29527 2.9155 5.99455C3.07531 5.69382 3.3064 5.43685 3.58854 5.24614L3.71354 5.16698L8.95854 2.13864ZM10.2085 3.58198C10.156 3.55166 10.0974 3.53319 10.0369 3.52786C9.97649 3.52254 9.91561 3.53048 9.85854 3.55114L9.79187 3.58198L4.54687 6.61031C4.49436 6.64066 4.44911 6.68212 4.41427 6.73178C4.37944 6.78143 4.35587 6.8381 4.34521 6.89781L4.33854 6.97114V13.0278C4.3386 13.0885 4.35191 13.1484 4.37753 13.2034C4.40315 13.2584 4.44047 13.3071 4.48687 13.3461L4.54687 13.3878L9.79187 16.417C9.84445 16.4473 9.90301 16.4658 9.96347 16.4711C10.0239 16.4764 10.0848 16.4685 10.1419 16.4478L10.2085 16.417L15.4535 13.3886C15.5062 13.3584 15.5516 13.317 15.5866 13.2673C15.6216 13.2176 15.6453 13.1609 15.656 13.1011L15.6619 13.0278V6.97114C15.6619 6.91055 15.6487 6.85067 15.6233 6.79569C15.5978 6.74072 15.5606 6.69195 15.5144 6.65281L15.4535 6.61031L10.2085 3.58198ZM10.0002 6.66614C10.8843 6.66614 11.7321 7.01733 12.3572 7.64245C12.9824 8.26757 13.3335 9.11542 13.3335 9.99948C13.3335 10.8835 12.9824 11.7314 12.3572 12.3565C11.7321 12.9816 10.8843 13.3328 10.0002 13.3328C9.11615 13.3328 8.26831 12.9816 7.64319 12.3565C7.01806 11.7314 6.66687 10.8835 6.66687 9.99948C6.66687 9.11542 7.01806 8.26757 7.64319 7.64245C8.26831 7.01733 9.11615 6.66614 10.0002 6.66614ZM10.0002 8.33281C9.55818 8.33281 9.13426 8.5084 8.8217 8.82097C8.50914 9.13353 8.33354 9.55745 8.33354 9.99948C8.33354 10.4415 8.50914 10.8654 8.8217 11.178C9.13426 11.4905 9.55818 11.6661 10.0002 11.6661C10.4422 11.6661 10.8662 11.4905 11.1787 11.178C11.4913 10.8654 11.6669 10.4415 11.6669 9.99948C11.6669 9.55745 11.4913 9.13353 11.1787 8.82097C10.8662 8.5084 10.4422 8.33281 10.0002 8.33281Z" fill="currentColor"/>
</svg>
