<svg width="20" height="20" viewBox="0 0 20 20" fill="none" xmlns="http://www.w3.org/2000/svg">
<path fill-rule="evenodd" clip-rule="evenodd" d="M11.6958 2.34131C12.0041 2.11964 12.4375 2.01631 12.8633 2.17214C13.7686 2.50379 14.6095 2.99019 15.3483 3.60964C15.6958 3.90131 15.8233 4.32714 15.785 4.70381C15.7225 5.33131 15.8325 5.93714 16.135 6.45881C16.4016 6.92297 16.8033 7.28964 17.2933 7.54797L17.4808 7.63964C17.8258 7.79547 18.1325 8.11964 18.21 8.56714C18.3746 9.51561 18.3746 10.4853 18.21 11.4338C18.1408 11.8371 17.885 12.1396 17.5825 12.3096L17.4808 12.3621C16.9058 12.6205 16.4358 13.0205 16.1341 13.5421C15.8325 14.0646 15.7225 14.6696 15.785 15.2971C15.8225 15.6738 15.6958 16.1005 15.3483 16.3913C14.6095 17.0108 13.7686 17.4972 12.8633 17.8288C12.6698 17.898 12.4623 17.9188 12.2589 17.8893C12.0556 17.8598 11.8625 17.781 11.6966 17.6596C11.1833 17.2921 10.6025 17.0838 9.99998 17.0838C9.39748 17.0838 8.81665 17.2913 8.30415 17.6596C8.13819 17.7811 7.94498 17.86 7.74145 17.8895C7.53792 17.919 7.33026 17.8982 7.13665 17.8288C6.23132 17.4972 5.39048 17.0108 4.65165 16.3913C4.49516 16.2584 4.37357 16.0892 4.29746 15.8984C4.22135 15.7077 4.19304 15.5013 4.21498 15.2971C4.27748 14.6696 4.16665 14.0638 3.86498 13.5421C3.59023 13.0764 3.18842 12.6986 2.70665 12.453L2.51915 12.3613C2.3311 12.278 2.16632 12.1499 2.03921 11.9882C1.9121 11.8266 1.82653 11.6362 1.78998 11.4338C1.62534 10.4853 1.62534 9.5156 1.78998 8.56714C1.85915 8.16381 2.11498 7.86131 2.41748 7.69131L2.51915 7.63964C3.09415 7.38047 3.56415 6.98131 3.86581 6.45881C4.16665 5.93714 4.27748 5.33131 4.21498 4.70381C4.19304 4.49965 4.22135 4.29322 4.29746 4.10251C4.37357 3.9118 4.49516 3.74259 4.65165 3.60964C5.39049 2.99019 6.23132 2.50379 7.13665 2.17214C7.33015 2.103 7.53764 2.08227 7.741 2.11176C7.94436 2.14124 8.13741 2.22005 8.30331 2.34131C8.81581 2.70964 9.39665 2.91714 9.99998 2.91714C10.6033 2.91714 11.1833 2.70964 11.6958 2.34131ZM12.4933 3.81547C11.7716 4.29047 10.9208 4.58381 9.99998 4.58381C9.07915 4.58381 8.22831 4.28964 7.50665 3.81547C6.92651 4.04964 6.38227 4.3644 5.88998 4.75047C5.93998 5.61131 5.76915 6.49464 5.30915 7.29214C4.84831 8.08881 4.16915 8.67797 3.39831 9.06547C3.31147 9.68522 3.31147 10.3141 3.39831 10.9338C4.16915 11.3213 4.84831 11.9105 5.30915 12.7088C5.76915 13.5046 5.93998 14.388 5.88998 15.2488C6.38222 15.6352 6.92646 15.9502 7.50665 16.1846C8.22831 15.7096 9.07915 15.4163 9.99998 15.4163C10.9208 15.4163 11.7716 15.7105 12.4933 16.1846C13.0734 15.9504 13.6177 15.6357 14.11 15.2496C14.06 14.388 14.2308 13.5046 14.6908 12.708C15.1508 11.9105 15.8308 11.3213 16.6016 10.933C16.6885 10.3138 16.6885 9.6855 16.6016 9.06631C15.8308 8.67797 15.1516 8.08881 14.6908 7.29131C14.2308 6.49464 14.06 5.61131 14.11 4.74964C13.6177 4.36357 13.0735 4.04964 12.4933 3.81547ZM9.99998 6.66714C10.884 6.66714 11.7319 7.01833 12.357 7.64345C12.9821 8.26857 13.3333 9.11642 13.3333 10.0005C13.3333 10.8845 12.9821 11.7324 12.357 12.3575C11.7319 12.9826 10.884 13.3338 9.99998 13.3338C9.11593 13.3338 8.26808 12.9826 7.64296 12.3575C7.01784 11.7324 6.66665 10.8845 6.66665 10.0005C6.66665 9.11642 7.01784 8.26857 7.64296 7.64345C8.26808 7.01833 9.11593 6.66714 9.99998 6.66714ZM9.99998 8.33381C9.55795 8.33381 9.13403 8.5094 8.82147 8.82196C8.50891 9.13452 8.33331 9.55844 8.33331 10.0005C8.33331 10.4425 8.50891 10.8664 8.82147 11.179C9.13403 11.4915 9.55795 11.6671 9.99998 11.6671C10.442 11.6671 10.8659 11.4915 11.1785 11.179C11.4911 10.8664 11.6666 10.4425 11.6666 10.0005C11.6666 9.55844 11.4911 9.13452 11.1785 8.82196C10.8659 8.5094 10.442 8.33381 9.99998 8.33381Z" fill="currentColor"/>
</svg>
