<svg width="24" height="24" viewBox="0 0 24 24" fill="none" xmlns="http://www.w3.org/2000/svg">
<path d="M4 3V5H2V11H8V8L9 7V5H5V3H4ZM17 7.90625V8C17 10.1992 15.1992 12 13 12H0V14.9062C0 14.9062 0.597656 17.0859 2.5 18.4062C1.66406 18.8516 0.664063 19 0 19V21C1.69922 21 2.39844 20.5938 3 20.0938C3.89844 20.793 5.19922 21 6 21C6.80078 21 8.10156 20.793 9 20.0938C9.89844 20.793 11.1992 21 12 21C12.8008 21 14.1016 20.793 15 20.0938C15.8984 20.793 17.1992 21 18 21C18.8008 21 20.1016 20.793 21 20.0938C21.8984 20.793 23.1992 21 24 21V19C23.1992 19 21.8984 18.793 21 18.0938C20.1016 18.793 18.8008 19 18 19C17.8906 19 17.75 18.9766 17.625 18.9688C23.6719 16.9062 24 7.90625 24 7.90625H17ZM18 11H19V12H20V11H21V11.5C21 12.3008 20.3008 13 19.5 13C18.6992 13 18 12.3008 18 11.5V11ZM3 21.0938C2.10156 21.793 0.800781 22 0 22V24C1.69922 24 2.39844 23.5938 3 23.0938C3.89844 23.793 5.19922 24 6 24C6.80078 24 8.10156 23.793 9 23.0938C9.89844 23.793 11.1992 24 12 24C12.8008 24 14.1016 23.793 15 23.0938C15.8984 23.793 17.1992 24 18 24C18.8008 24 20.1016 23.793 21 23.0938C21.8984 23.793 23.1992 24 24 24V22C23.1992 22 21.8984 21.793 21 21.0938C20.1016 21.793 18.8008 22 18 22C17.1992 22 15.8984 21.793 15 21.0938C14.1016 21.793 12.8008 22 12 22C11.1992 22 9.89844 21.793 9 21.0938C8.10156 21.793 6.80078 22 6 22C5.19922 22 3.89844 21.793 3 21.0938Z" fill="currentColor"/>
</svg>
