<svg width="20" height="20" viewBox="0 0 20 20" fill="none" xmlns="http://www.w3.org/2000/svg">
<path d="M10.335 2C14.9384 2 18.67 5.73158 18.67 10.335C18.67 14.9384 14.9384 18.67 10.335 18.67C5.73158 18.67 2 14.9384 2 10.335C2 5.73158 5.73158 2 10.335 2ZM13.2814 7.31856L9.1556 11.4444L7.38858 9.67654C7.31119 9.59909 7.21931 9.53765 7.11818 9.49572C7.01705 9.45379 6.90865 9.43219 6.79917 9.43215C6.57807 9.43207 6.36599 9.51983 6.20959 9.67612C6.05319 9.83241 5.96529 10.0444 5.96521 10.2655C5.96513 10.4866 6.05289 10.6987 6.20918 10.8551L8.50797 13.1539C8.59311 13.2391 8.6942 13.3067 8.80547 13.3528C8.91673 13.3989 9.03599 13.4226 9.15643 13.4226C9.27687 13.4226 9.39613 13.3989 9.50739 13.3528C9.61866 13.3067 9.71975 13.2391 9.80489 13.1539L14.4608 8.49797C14.6172 8.34157 14.7051 8.12945 14.7051 7.90827C14.7051 7.68708 14.6172 7.47496 14.4608 7.31856C14.3044 7.16216 14.0923 7.0743 13.8711 7.0743C13.6499 7.0743 13.4378 7.16216 13.2814 7.31856Z" fill="currentColor"/>
</svg>
