<svg width="12" height="12" viewBox="0 0 12 12" fill="none" xmlns="http://www.w3.org/2000/svg">
<g clip-path="url(#clip0_2288_128145)">
<path fill-rule="evenodd" clip-rule="evenodd" d="M4 3.5C4 2.96957 4.21071 2.46086 4.58579 2.08579C4.96086 1.71071 5.46957 1.5 6 1.5C6.53043 1.5 7.03914 1.71071 7.41421 2.08579C7.78929 2.46086 8 2.96957 8 3.5C8 4.03043 7.78929 4.53914 7.41421 4.91421C7.03914 5.28929 6.53043 5.5 6 5.5C5.46957 5.5 4.96086 5.28929 4.58579 4.91421C4.21071 4.53914 4 4.03043 4 3.5ZM6 2.5C5.73478 2.5 5.48043 2.60536 5.29289 2.79289C5.10536 2.98043 5 3.23478 5 3.5C5 3.76522 5.10536 4.01957 5.29289 4.20711C5.48043 4.39464 5.73478 4.5 6 4.5C6.26522 4.5 6.51957 4.39464 6.70711 4.20711C6.89464 4.01957 7 3.76522 7 3.5C7 3.23478 6.89464 2.98043 6.70711 2.79289C6.51957 2.60536 6.26522 2.5 6 2.5ZM1.5 8C1.5 7.46957 1.71071 6.96086 2.08579 6.58579C2.46086 6.21071 2.96957 6 3.5 6C4.03043 6 4.53914 6.21071 4.91421 6.58579C5.28929 6.96086 5.5 7.46957 5.5 8C5.5 8.53043 5.28929 9.03914 4.91421 9.41421C4.53914 9.78929 4.03043 10 3.5 10C2.96957 10 2.46086 9.78929 2.08579 9.41421C1.71071 9.03914 1.5 8.53043 1.5 8ZM3.5 7C3.23478 7 2.98043 7.10536 2.79289 7.29289C2.60536 7.48043 2.5 7.73478 2.5 8C2.5 8.26522 2.60536 8.51957 2.79289 8.70711C2.98043 8.89464 3.23478 9 3.5 9C3.76522 9 4.01957 8.89464 4.20711 8.70711C4.39464 8.51957 4.5 8.26522 4.5 8C4.5 7.73478 4.39464 7.48043 4.20711 7.29289C4.01957 7.10536 3.76522 7 3.5 7ZM8.5 6C7.96957 6 7.46086 6.21071 7.08579 6.58579C6.71071 6.96086 6.5 7.46957 6.5 8C6.5 8.53043 6.71071 9.03914 7.08579 9.41421C7.46086 9.78929 7.96957 10 8.5 10C9.03043 10 9.53914 9.78929 9.91421 9.41421C10.2893 9.03914 10.5 8.53043 10.5 8C10.5 7.46957 10.2893 6.96086 9.91421 6.58579C9.53914 6.21071 9.03043 6 8.5 6ZM7.5 8C7.5 7.73478 7.60536 7.48043 7.79289 7.29289C7.98043 7.10536 8.23478 7 8.5 7C8.76522 7 9.01957 7.10536 9.20711 7.29289C9.39464 7.48043 9.5 7.73478 9.5 8C9.5 8.26522 9.39464 8.51957 9.20711 8.70711C9.01957 8.89464 8.76522 9 8.5 9C8.23478 9 7.98043 8.89464 7.79289 8.70711C7.60536 8.51957 7.5 8.26522 7.5 8Z" fill="currentColor"/>
</g>
<defs>
<clipPath id="clip0_2288_128145">
<rect width="12" height="12" fill="currentColor"/>
</clipPath>
</defs>
</svg>
