<svg width="20" height="20" viewBox="0 0 20 20" fill="none" xmlns="http://www.w3.org/2000/svg">
<path d="M11.9 1.66669C12.2498 1.66678 12.5907 1.77692 12.8744 1.98153C13.1581 2.18613 13.3703 2.47481 13.4808 2.80669L13.9333 4.16669H16.6667C16.8877 4.16669 17.0996 4.25448 17.2559 4.41076C17.4122 4.56705 17.5 4.77901 17.5 5.00002C17.5 5.22103 17.4122 5.433 17.2559 5.58928C17.0996 5.74556 16.8877 5.83335 16.6667 5.83335L16.6642 5.89252L15.9417 16.0117C15.8966 16.6422 15.6143 17.2322 15.1517 17.663C14.6891 18.0938 14.0805 18.3333 13.4483 18.3334H6.55167C5.91955 18.3333 5.31092 18.0938 4.84831 17.663C4.38569 17.2322 4.10342 16.6422 4.05833 16.0117L3.33583 5.89169C3.33433 5.87228 3.33349 5.85282 3.33333 5.83335C3.11232 5.83335 2.90036 5.74556 2.74408 5.58928C2.5878 5.433 2.5 5.22103 2.5 5.00002C2.5 4.77901 2.5878 4.56705 2.74408 4.41076C2.90036 4.25448 3.11232 4.16669 3.33333 4.16669H6.06667L6.51917 2.80669C6.62975 2.47468 6.84203 2.1859 7.12592 1.98128C7.4098 1.77667 7.75089 1.6666 8.10083 1.66669H11.9ZM14.9975 5.83335H5.0025L5.72083 15.8925C5.73579 16.1027 5.82981 16.2994 5.98397 16.443C6.13812 16.5867 6.34096 16.6666 6.55167 16.6667H13.4483C13.659 16.6666 13.8619 16.5867 14.016 16.443C14.1702 16.2994 14.2642 16.1027 14.2792 15.8925L14.9975 5.83335ZM8.33333 8.33335C8.53744 8.33338 8.73445 8.40832 8.88698 8.54395C9.03951 8.67958 9.13695 8.86648 9.16083 9.06919L9.16667 9.16669V13.3334C9.16643 13.5458 9.0851 13.75 8.93929 13.9045C8.79349 14.0589 8.59421 14.1519 8.38217 14.1643C8.17014 14.1768 7.96135 14.1078 7.79847 13.9715C7.6356 13.8351 7.53092 13.6418 7.50583 13.4309L7.5 13.3334V9.16669C7.5 8.94567 7.5878 8.73371 7.74408 8.57743C7.90036 8.42115 8.11232 8.33335 8.33333 8.33335ZM11.6667 8.33335C11.8877 8.33335 12.0996 8.42115 12.2559 8.57743C12.4122 8.73371 12.5 8.94567 12.5 9.16669V13.3334C12.5 13.5544 12.4122 13.7663 12.2559 13.9226C12.0996 14.0789 11.8877 14.1667 11.6667 14.1667C11.4457 14.1667 11.2337 14.0789 11.0774 13.9226C10.9211 13.7663 10.8333 13.5544 10.8333 13.3334V9.16669C10.8333 8.94567 10.9211 8.73371 11.0774 8.57743C11.2337 8.42115 11.4457 8.33335 11.6667 8.33335ZM11.9 3.33335H8.1L7.8225 4.16669H12.1775L11.9 3.33335Z" fill="currentColor"/>
</svg>
