<svg width="20" height="20" viewBox="0 0 20 20" fill="none" xmlns="http://www.w3.org/2000/svg">
<path d="M16.6667 11.5C16.8877 11.5 17.0996 11.5878 17.2559 11.7441C17.4122 11.9004 17.5 12.1123 17.5 12.3333V15.6667C17.5 16.1087 17.3244 16.5326 17.0118 16.8452C16.6993 17.1577 16.2754 17.3333 15.8333 17.3333H4.16667C3.72464 17.3333 3.30072 17.1577 2.98816 16.8452C2.67559 16.5326 2.5 16.1087 2.5 15.6667V12.3333C2.5 12.1123 2.5878 11.9004 2.74408 11.7441C2.90036 11.5878 3.11232 11.5 3.33333 11.5C3.55435 11.5 3.76631 11.5878 3.92259 11.7441C4.07887 11.9004 4.16667 12.1123 4.16667 12.3333V15.6667H15.8333V12.3333C15.8333 12.1123 15.9211 11.9004 16.0774 11.7441C16.2337 11.5878 16.4457 11.5 16.6667 11.5Z" fill="currentColor"/>
<path d="M9.41073 12.2208C9.56701 12.377 9.77897 12.4648 9.99999 12.4648C10.221 12.4648 10.433 12.377 10.5892 12.2208C10.7455 12.0645 10.8333 11.8525 10.8333 11.6315L10.8333 5.23853L12.9467 7.35187C13.0235 7.43146 13.1155 7.49494 13.2172 7.53862C13.3188 7.58229 13.4282 7.60528 13.5388 7.60624C13.6495 7.6072 13.7592 7.58612 13.8616 7.54422C13.964 7.50232 14.0571 7.44044 14.1353 7.3622C14.2136 7.28395 14.2754 7.19091 14.3173 7.0885C14.3592 6.98608 14.3803 6.87635 14.3794 6.7657C14.3784 6.65505 14.3554 6.5457 14.3117 6.44403C14.2681 6.34236 14.2046 6.25041 14.125 6.17353L10.7367 2.7852C10.6399 2.68844 10.5251 2.61169 10.3987 2.55932C10.2723 2.50696 10.1368 2.48001 9.99999 2.48001C9.86317 2.48001 9.7277 2.50696 9.6013 2.55932C9.4749 2.61169 9.36005 2.68844 9.26332 2.7852L5.87499 6.17353C5.7954 6.25041 5.73191 6.34236 5.68824 6.44403C5.64456 6.5457 5.62157 6.65505 5.62061 6.7657C5.61965 6.87635 5.64074 6.98608 5.68264 7.0885C5.72454 7.19091 5.78642 7.28395 5.86466 7.3622C5.9429 7.44044 6.03595 7.50232 6.13836 7.54422C6.24077 7.58612 6.35051 7.6072 6.46116 7.60624C6.57181 7.60528 6.68116 7.58229 6.78283 7.53862C6.8845 7.49494 6.97645 7.43146 7.05332 7.35187L9.16666 5.23853L9.16666 11.6315C9.16666 11.8525 9.25445 12.0645 9.41073 12.2208Z" fill="currentColor"/>
</svg>
