<svg width="20" height="20" viewBox="0 0 20 20" fill="none" xmlns="http://www.w3.org/2000/svg">
<path d="M17.4999 3.33337C16.5791 3.33337 15.8333 4.07921 15.8333 5.00004H4.16659C4.16659 4.07921 3.42075 3.33337 2.49992 3.33337C1.57909 3.33337 0.833252 4.07921 0.833252 5.00004V15C0.833252 15.92 1.57909 16.6667 2.49992 16.6667H17.4999C18.4208 16.6667 19.1666 15.92 19.1666 15V5.00004C19.1666 4.07921 18.4208 3.33337 17.4999 3.33337Z" fill="url(#paint0_linear_1916_61)"/>
<path d="M15.0001 8.33337C14.5401 8.33337 14.1667 8.70671 14.1667 9.16671V12.5C14.1667 12.96 14.5401 13.3334 15.0001 13.3334C15.4601 13.3334 15.8334 12.96 15.8334 12.5V9.16671C15.8334 8.70671 15.4601 8.33337 15.0001 8.33337Z" fill="url(#paint1_linear_1916_61)"/>
<path d="M11.6666 8.33337C11.2066 8.33337 10.8333 8.70671 10.8333 9.16671V12.5C10.8333 12.96 11.2066 13.3334 11.6666 13.3334C12.1266 13.3334 12.4999 12.96 12.4999 12.5V9.16671C12.4999 8.70671 12.1266 8.33337 11.6666 8.33337Z" fill="url(#paint2_linear_1916_61)"/>
<path d="M8.33333 8.33337C7.87333 8.33337 7.5 8.70671 7.5 9.16671V12.5C7.5 12.96 7.87333 13.3334 8.33333 13.3334C8.79333 13.3334 9.16667 12.96 9.16667 12.5V9.16671C9.16667 8.70671 8.79333 8.33337 8.33333 8.33337Z" fill="url(#paint3_linear_1916_61)"/>
<path d="M5.00008 8.33337C4.54008 8.33337 4.16675 8.70671 4.16675 9.16671V12.5C4.16675 12.96 4.54008 13.3334 5.00008 13.3334C5.46008 13.3334 5.83341 12.96 5.83341 12.5V9.16671C5.83341 8.70671 5.46008 8.33337 5.00008 8.33337Z" fill="url(#paint4_linear_1916_61)"/>
<defs>
<linearGradient id="paint0_linear_1916_61" x1="2.57159" y1="2.57171" x2="17.4283" y2="17.4284" gradientUnits="userSpaceOnUse">
<stop stop-color="#11113A" stop-opacity="0.6"/>
<stop offset="1" stop-color="#11113A" stop-opacity="0.3"/>
</linearGradient>
<linearGradient id="paint1_linear_1916_61" x1="13.5776" y1="9.41087" x2="16.4226" y2="12.2559" gradientUnits="userSpaceOnUse">
<stop stop-color="#11113A" stop-opacity="0.6"/>
<stop offset="1" stop-color="#11113A" stop-opacity="0.3"/>
</linearGradient>
<linearGradient id="paint2_linear_1916_61" x1="10.2441" y1="9.41087" x2="13.0891" y2="12.2559" gradientUnits="userSpaceOnUse">
<stop stop-color="#11113A" stop-opacity="0.6"/>
<stop offset="1" stop-color="#11113A" stop-opacity="0.3"/>
</linearGradient>
<linearGradient id="paint3_linear_1916_61" x1="6.91083" y1="9.41087" x2="9.75583" y2="12.2559" gradientUnits="userSpaceOnUse">
<stop stop-color="#11113A" stop-opacity="0.6"/>
<stop offset="1" stop-color="#11113A" stop-opacity="0.3"/>
</linearGradient>
<linearGradient id="paint4_linear_1916_61" x1="3.57758" y1="9.41087" x2="6.42258" y2="12.2559" gradientUnits="userSpaceOnUse">
<stop stop-color="#11113A" stop-opacity="0.6"/>
<stop offset="1" stop-color="#11113A" stop-opacity="0.3"/>
</linearGradient>
</defs>
</svg>
