<svg width="20" height="20" viewBox="0 0 20 20" fill="none" xmlns="http://www.w3.org/2000/svg">
<path d="M17.5001 15.0767V7.34087C17.9917 7.09754 18.3334 6.59504 18.3334 6.00921C18.3334 5.39921 17.9626 4.85171 17.3959 4.62504L11.1042 2.10837C10.3951 1.82504 9.60342 1.82504 8.89425 2.10837L2.60258 4.62504C2.03758 4.85171 1.66675 5.40004 1.66675 6.00921C1.66675 6.59504 2.00841 7.09754 2.50008 7.34087V15.0767C2.01591 15.2492 1.66675 15.7067 1.66675 16.25C1.66675 16.94 2.22675 17.5 2.91675 17.5C3.06341 17.5 16.9367 17.5 17.0834 17.5C17.7734 17.5 18.3334 16.94 18.3334 16.25C18.3334 15.7067 17.9842 15.2492 17.5001 15.0767ZM2.81925 7.45754C2.81258 7.45671 2.80675 7.45421 2.80091 7.45254C2.80675 7.45337 2.81258 7.45671 2.81925 7.45754ZM17.1992 7.45254C17.1926 7.45421 17.1867 7.45671 17.1809 7.45837C17.1876 7.45671 17.1934 7.45337 17.1992 7.45254Z" fill="url(#paint0_linear_1916_82)"/>
<path d="M17.0833 15C17.23 15 17.3692 15.03 17.5 15.0767V7.34082C17.3008 7.43915 17.08 7.49999 16.8425 7.49999H15V15C16.2258 15 17.0483 15 17.0833 15Z" fill="url(#paint1_linear_1916_82)"/>
<path d="M2.91667 15C2.95167 15 3.77417 15 5 15V7.49999H3.1575C2.92 7.49999 2.69917 7.43915 2.5 7.34082V15.0767C2.63083 15.03 2.77 15 2.91667 15Z" fill="url(#paint2_linear_1916_82)"/>
<path d="M11.9817 12.2375C11.9817 10.0792 9.5992 10.3742 9.5992 9.24917C9.5992 8.58667 10.12 8.51667 10.3 8.51667C10.4775 8.51667 10.635 8.55917 10.7684 8.61917C11.0817 8.76084 11.4534 8.62917 11.6517 8.34834C11.9059 7.98834 11.7742 7.4825 11.3725 7.30167C11.1525 7.2025 10.8775 7.1225 10.5442 7.09084V6.77751C10.5442 6.48917 10.31 6.255 10.0217 6.255C9.73336 6.255 9.4992 6.48917 9.4992 6.77751V7.20084C8.62503 7.4925 8.0567 8.29251 8.0567 9.31667C8.0567 11.5817 10.41 11.1725 10.41 12.35C10.41 12.5767 10.3025 13.0708 9.7192 13.0708C9.46003 13.0708 9.23586 12.9975 9.05336 12.9025C8.7442 12.7408 8.36003 12.86 8.16253 13.1483L8.1417 13.1792C7.91336 13.5125 8.00586 13.9792 8.3567 14.1783C8.6517 14.3458 9.01253 14.4758 9.44836 14.5217V14.8883C9.44836 15.1767 9.68253 15.4108 9.97086 15.4108C10.2592 15.4108 10.4934 15.1767 10.4934 14.8883V14.4275C11.4609 14.1317 11.9817 13.25 11.9817 12.2375Z" fill="url(#paint3_linear_1916_82)"/>
<defs>
<linearGradient id="paint0_linear_1916_82" x1="2.98925" y1="4.06921" x2="17.0109" y2="18.09" gradientUnits="userSpaceOnUse">
<stop stop-color="#11113A" stop-opacity="0.6"/>
<stop offset="1" stop-color="#11113A" stop-opacity="0.3"/>
</linearGradient>
<linearGradient id="paint1_linear_1916_82" x1="13.79" y1="8.70999" x2="18.8283" y2="13.7483" gradientUnits="userSpaceOnUse">
<stop stop-color="#11113A" stop-opacity="0.7"/>
<stop offset="0.519" stop-color="#11113A" stop-opacity="0.45"/>
<stop offset="1" stop-color="#11113A" stop-opacity="0.55"/>
</linearGradient>
<linearGradient id="paint2_linear_1916_82" x1="1.15083" y1="8.68999" x2="6.23083" y2="13.7692" gradientUnits="userSpaceOnUse">
<stop stop-color="#11113A" stop-opacity="0.7"/>
<stop offset="0.519" stop-color="#11113A" stop-opacity="0.45"/>
<stop offset="1" stop-color="#11113A" stop-opacity="0.55"/>
</linearGradient>
<linearGradient id="paint3_linear_1916_82" x1="7.60086" y1="8.46084" x2="12.3692" y2="13.2292" gradientUnits="userSpaceOnUse">
<stop stop-color="#11113A" stop-opacity="0.7"/>
<stop offset="0.519" stop-color="#11113A" stop-opacity="0.45"/>
<stop offset="1" stop-color="#11113A" stop-opacity="0.55"/>
</linearGradient>
</defs>
</svg>
