<svg width="20" height="20" viewBox="0 0 20 20" fill="none" xmlns="http://www.w3.org/2000/svg">
<g clip-path="url(#clip0_1916_104)">
<path d="M16.6665 14.7142C16.6665 13.5633 17.124 12.4592 17.9373 11.645C18.1907 11.3925 18.3332 11.0492 18.3332 10.6908C18.3332 10.0475 17.879 9.4925 17.2473 9.36667L15.8332 9.08333V7.08333C15.8332 6.16333 15.0873 5.41667 14.1665 5.41667H13.3332V4.58333C13.3332 3.66333 12.5873 2.91667 11.6665 2.91667H10.8332C10.8332 2.91667 10.8332 2.23833 10.8332 2.08333C10.8332 1.62333 10.4598 1.25 9.99984 1.25C9.53984 1.25 9.1665 1.62333 9.1665 2.08333C9.1665 2.23833 9.1665 2.91667 9.1665 2.91667H8.33317C7.41234 2.91667 6.6665 3.66333 6.6665 4.58333V5.41667H5.83317C4.91234 5.41667 4.1665 6.16333 4.1665 7.08333V9.08333L2.75234 9.36667C2.12067 9.4925 1.6665 10.0467 1.6665 10.6908C1.6665 11.0492 1.809 11.3925 2.06234 11.6458C2.87567 12.4592 3.33317 13.5633 3.33317 14.7142V15.6983C2.83817 15.5442 2.31567 15.4167 1.6665 15.4167V17.0833C1.6665 18.0033 2.41234 18.75 3.33317 18.75H16.6665C17.5873 18.75 18.3332 18.0033 18.3332 17.0833V15.4167C17.684 15.4167 17.1615 15.5442 16.6665 15.6983V14.7142Z" fill="url(#paint0_linear_1916_104)"/>
<path d="M16.6665 18.7501H3.33317C2.41234 18.7501 1.6665 18.0042 1.6665 17.0834V15.4167C3.33317 15.4167 4.1665 16.2501 5.83317 16.2501C7.49984 16.2501 8.33317 15.4167 9.99984 15.4167C11.6665 15.4167 12.4998 16.2501 14.1665 16.2501C15.8332 16.2501 16.6665 15.4167 18.3332 15.4167V17.0834C18.3332 18.0042 17.5873 18.7501 16.6665 18.7501Z" fill="url(#paint1_linear_1916_104)"/>
<path d="M14.1668 12.9167C14.6271 12.9167 15.0002 12.5436 15.0002 12.0833C15.0002 11.6231 14.6271 11.25 14.1668 11.25C13.7066 11.25 13.3335 11.6231 13.3335 12.0833C13.3335 12.5436 13.7066 12.9167 14.1668 12.9167Z" fill="url(#paint2_linear_1916_104)"/>
<path d="M5.83333 12.9167C6.29357 12.9167 6.66667 12.5436 6.66667 12.0833C6.66667 11.6231 6.29357 11.25 5.83333 11.25C5.3731 11.25 5 11.6231 5 12.0833C5 12.5436 5.3731 12.9167 5.83333 12.9167Z" fill="url(#paint3_linear_1916_104)"/>
<path d="M14.1665 5.41675H5.83317C4.91234 5.41675 4.1665 6.16341 4.1665 7.08341V9.08341L9.99984 7.91675L15.8332 9.08341V7.08341C15.8332 6.16341 15.0873 5.41675 14.1665 5.41675Z" fill="url(#paint4_linear_1916_104)"/>
</g>
<defs>
<linearGradient id="paint0_linear_1916_104" x1="3.61317" y1="6.94667" x2="16.3865" y2="19.72" gradientUnits="userSpaceOnUse">
<stop stop-color="#11113A" stop-opacity="0.6"/>
<stop offset="1" stop-color="#11113A" stop-opacity="0.3"/>
</linearGradient>
<linearGradient id="paint1_linear_1916_104" x1="5.244" y1="11.8392" x2="14.7557" y2="21.3509" gradientUnits="userSpaceOnUse">
<stop stop-color="#11113A" stop-opacity="0.7"/>
<stop offset="0.519" stop-color="#11113A" stop-opacity="0.45"/>
<stop offset="1" stop-color="#11113A" stop-opacity="0.55"/>
</linearGradient>
<linearGradient id="paint2_linear_1916_104" x1="13.5777" y1="11.4942" x2="14.756" y2="12.6725" gradientUnits="userSpaceOnUse">
<stop stop-color="#11113A" stop-opacity="0.7"/>
<stop offset="0.519" stop-color="#11113A" stop-opacity="0.45"/>
<stop offset="1" stop-color="#11113A" stop-opacity="0.55"/>
</linearGradient>
<linearGradient id="paint3_linear_1916_104" x1="5.24417" y1="11.4942" x2="6.4225" y2="12.6725" gradientUnits="userSpaceOnUse">
<stop stop-color="#11113A" stop-opacity="0.7"/>
<stop offset="0.519" stop-color="#11113A" stop-opacity="0.45"/>
<stop offset="1" stop-color="#11113A" stop-opacity="0.55"/>
</linearGradient>
<linearGradient id="paint4_linear_1916_104" x1="6.41067" y1="4.14925" x2="13.589" y2="11.3276" gradientUnits="userSpaceOnUse">
<stop stop-color="#11113A" stop-opacity="0.7"/>
<stop offset="0.519" stop-color="#11113A" stop-opacity="0.45"/>
<stop offset="1" stop-color="#11113A" stop-opacity="0.55"/>
</linearGradient>
<clipPath id="clip0_1916_104">
<rect width="20" height="20" fill="white"/>
</clipPath>
</defs>
</svg>
