<svg width="20" height="20" viewBox="0 0 20 20" fill="none" xmlns="http://www.w3.org/2000/svg">
<path d="M11.4034 3.61686L18.5047 15.9163C18.613 16.1038 18.67 16.3165 18.67 16.5331C18.67 16.7497 18.613 16.9624 18.5047 17.15C18.3964 17.3375 18.2407 17.4933 18.0532 17.6015C17.8656 17.7098 17.6529 17.7668 17.4363 17.7668H3.23369C3.01713 17.7668 2.80439 17.7098 2.61684 17.6015C2.4293 17.4933 2.27356 17.3375 2.16528 17.15C2.057 16.9624 2 16.7497 2 16.5331C2 16.3165 2.05701 16.1038 2.16529 15.9163L9.2666 3.61686C9.74117 2.79438 10.928 2.79438 11.4034 3.61686ZM10.335 13.3649C10.1169 13.3649 9.90766 13.4516 9.75342 13.6058C9.59917 13.7601 9.51252 13.9693 9.51252 14.1874C9.51252 14.4055 9.59917 14.6147 9.75342 14.769C9.90766 14.9232 10.1169 15.0099 10.335 15.0099C10.5531 15.0099 10.7623 14.9232 10.9166 14.769C11.0708 14.6147 11.1575 14.4055 11.1575 14.1874C11.1575 13.9693 11.0708 13.7601 10.9166 13.6058C10.7623 13.4516 10.5531 13.3649 10.335 13.3649ZM10.335 7.60754C10.1335 7.60757 9.93911 7.68153 9.78856 7.8154C9.63802 7.94926 9.54184 8.13373 9.51827 8.3338L9.51252 8.43003V11.72C9.51275 11.9296 9.59302 12.1312 9.73693 12.2837C9.88084 12.4361 10.0775 12.5278 10.2868 12.5401C10.4961 12.5524 10.7021 12.4843 10.8629 12.3498C11.0237 12.2152 11.127 12.0243 11.1517 11.8162L11.1575 11.72V8.43003C11.1575 8.21189 11.0708 8.00269 10.9166 7.84844C10.7623 7.6942 10.5531 7.60754 10.335 7.60754Z" fill="currentColor"/>
</svg>
